{
.appVersion = "3151";
DisplayStrings = (
"Open/space Paths:\012n\012\012"
);
copyright = "Copyright 2011 The Sigmar One Project Authors (https://github.com/googlefonts/sigmarone)";
customParameters = (
{
name = panose;
value = (
0,
0,
5,
0,
0,
0,
0,
0,
0,
0
);
},
{
disabled = 1;
name = unicodeRanges;
value = (
0,
1,
2,
29
);
},
{
disabled = 1;
name = codePageRanges;
value = (
1252,
1250,
1254,
1257,
1258
);
},
{
name = fsType;
value = (
);
},
{
name = "Use Typo Metrics";
value = 1;
},
{
name = license;
value = "This Font Software is licensed under the SIL Open Font License, Version 1.1. This license is available with a FAQ at: https//scripts.sil.org/OFL";
},
{
name = licenseURL;
value = "https://scripts.sil.org/OFL";
},
{
name = vendorID;
value = NeWT;
}
);
date = "2018-01-04 12:23:28 +0000";
designer = "Vernon Adams";
designerURL = "http://www.sansoxygen.com";
disablesNiceNames = 1;
familyName = Sigmar;
featurePrefixes = (
{
automatic = 1;
code = "languagesystem DFLT dflt;\012\012languagesystem latn dflt;\012languagesystem latn AZE;\012languagesystem latn CRT;\012languagesystem latn KAZ;\012languagesystem latn TAT;\012languagesystem latn TRK;\012languagesystem latn ROM;\012languagesystem latn MOL;\012languagesystem latn NLD;\012languagesystem latn CAT;\012";
name = Languagesystems;
}
);
features = (
{
automatic = 1;
code = "feature locl;\012feature sups;\012feature frac;\012feature ordn;\012feature c2sc;\012feature smcp;\012feature ss01;\012";
name = aalt;
},
{
automatic = 1;

glyphs = (
{
color = 6;
glyphname = A;
lastChange = "2023-02-22 08:59:45 +0000";
layers = (
{
anchors = (
{
name = bottom;
position = "{391, 0}";
},
{
name = ogonek;
position = "{717, 0}";
},
{
name = top;
position = "{391, 655}";
}
);
background = {
anchors = (
{
name = bottom;
position = "{391, 0}";
},
{
name = ogonek;
position = "{769, 4}";
},
{
name = top;
position = "{391, 676}";
}
);
paths = (
{
closed = 1;
nodes = (
"755 -2 LINE SMOOTH",
"763 -2 OFFCURVE",
"769 4 OFFCURVE",
"772 18 CURVE",
"776 19 OFFCURVE",
"776 22 OFFCURVE",
"776 27 CURVE SMOOTH",
"776 38 OFFCURVE",
"767 65 OFFCURVE",
"766 74 CURVE SMOOTH",
"765 80 OFFCURVE",
"764 83 OFFCURVE",
"762 97 CURVE",
"727 249 OFFCURVE",
"661 524 OFFCURVE",
"629 651 CURVE",
"629 652 OFFCURVE",
"624 660 OFFCURVE",
"620 662 CURVE",
"616 662 LINE",
"616 660 OFFCURVE",
"615 660 OFFCURVE",
"612 660 CURVE SMOOTH",
"605 660 OFFCURVE",
"596 660 OFFCURVE",
"586 665 CURVE SMOOTH",
"577 670 OFFCURVE",
"569 667 OFFCURVE",
"561 667 CURVE SMOOTH",
"547 667 OFFCURVE",
"536 666 OFFCURVE",
"522 665 CURVE",
"519 665 OFFCURVE",
"511 665 OFFCURVE",
"504 664 CURVE SMOOTH",
"497 663 OFFCURVE",
"489 662 OFFCURVE",
"483 662 CURVE SMOOTH",
"480 662 OFFCURVE",
"476 664 OFFCURVE",
"474 665 CURVE",
"424 665 LINE",
"418 666 OFFCURVE",
"414 666 OFFCURVE",
"408 666 CURVE SMOOTH",
"403 666 OFFCURVE",
"399 666 OFFCURVE",
"399 667 CURVE",
"384 667 LINE",
"353 667 LINE",
"304 667 LINE SMOOTH",
"277 667 OFFCURVE",
"263 666 OFFCURVE",
"251 665 CURVE",
"248 665 OFFCURVE",
"239 665 OFFCURVE",
"239 662 CURVE",
"234 662 OFFCURVE",
"227 662 OFFCURVE",
"224 664 CURVE SMOOTH",
"221 666 OFFCURVE",
"217 665 OFFCURVE",
"214 665 CURVE",
"204 666 OFFCURVE",
"196 667 OFFCURVE",
"187 667 CURVE SMOOTH",
"184 667 OFFCURVE",
"179 666 OFFCURVE",
"175 665 CURVE SMOOTH",
"171 664 OFFCURVE",
"168 660 OFFCURVE",
"162 660 CURVE",
"160 662 LINE",
"156 662 LINE",
"151 659 OFFCURVE",
"147 652 OFFCURVE",
"147 651 CURVE",
"68 327 OFFCURVE",
"19 110 OFFCURVE",
"15 86 CURVE",
"15 82 OFFCURVE",
"14 78 OFFCURVE",
"12 71 CURVE",
"10 68 OFFCURVE",
"8 62 OFFCURVE",
"7 55 CURVE SMOOTH",
"6 47 OFFCURVE",
"6 41 OFFCURVE",
"6 35 CURVE",
"5 32 OFFCURVE",
"5 31 OFFCURVE",
"5 25 CURVE SMOOTH",
"5 18 OFFCURVE",
"7 10 OFFCURVE",
"12 3 CURVE",
"14 0 OFFCURVE",
"20 -2 OFFCURVE",
"23 -2 CURVE SMOOTH",
"33 -2 LINE SMOOTH",
"44 -2 OFFCURVE",
"51 -2 OFFCURVE",
"56 0 CURVE",
"80 0 LINE",
"103 0 LINE",
"124 0 LINE SMOOTH",
"128 0 OFFCURVE",
"130 0 OFFCURVE",
"130 0 CURVE",
"189 0 LINE",
"189 2 LINE",
"192 3 OFFCURVE",
"196 3 OFFCURVE",
"200 3 CURVE",
"200 3 OFFCURVE",
"200 3 OFFCURVE",
"200 3 CURVE",
"202 3 OFFCURVE",
"202 3 OFFCURVE",
"203 2 CURVE",
"203 1 OFFCURVE",
"203 0 OFFCURVE",
"204 0 CURVE SMOOTH",
"206 0 LINE",
"213 0 LINE",
"215 1 OFFCURVE",
"224 2 OFFCURVE",
"232 2 CURVE",
"252 3 OFFCURVE",
"266 3 OFFCURVE",
"277 3 CURVE",
"284 14 OFFCURVE",
"294 54 OFFCURVE",
"303 104 CURVE",
"304 116 OFFCURVE",
"306 122 OFFCURVE",
"306 127 CURVE",
"323 123 OFFCURVE",
"338 122 OFFCURVE",
"359 122 CURVE SMOOTH",
"387 122 LINE",
"415 122 LINE",
"423 94 LINE SMOOTH",
"438 41 OFFCURVE",
"439 14 OFFCURVE",
"442 3 CURVE",
"444 3 OFFCURVE",
"449 3 OFFCURVE",
"453 2 CURVE",
"453 1 OFFCURVE",
"454 1 OFFCURVE",
"457 1 CURVE",
"458 0 OFFCURVE",
"458 0 OFFCURVE",
"458 0 CURVE",
"461 0 LINE SMOOTH",
"466 0 OFFCURVE",
"468 1 OFFCURVE",
"469 2 CURVE",
"470 3 OFFCURVE",
"473 3 OFFCURVE",
"474 3 CURVE",
"517 2 LINE",
"532 2 LINE",
"547 2 LINE",
"551 1 OFFCURVE",
"553 0 OFFCURVE",
"555 0 CURVE SMOOTH",
"559 0 LINE",
"645 0 LINE",
"655 0 LINE",
"662 0 OFFCURVE",
"676 0 OFFCURVE",
"696 0 CURVE SMOOTH",
"721 0 LINE",
"727 -2 OFFCURVE",
"733 -2 OFFCURVE",
"743 -2 CURVE SMOOTH"
);
},
{
closed = 1;
nodes = (
"324 271 OFFCURVE",
"325 286 OFFCURVE",
"325 286 CURVE",
"328 304 OFFCURVE",
"332 342 OFFCURVE",
"342 397 CURVE SMOOTH",
"348 429 OFFCURVE",
"351 444 OFFCURVE",
"351 444 CURVE",
"353 455 OFFCURVE",
"354 465 OFFCURVE",
"357 476 CURVE",
"357 488 LINE",
"359 491 OFFCURVE",
"361 494 OFFCURVE",
"361 498 CURVE",
"361 502 LINE",
"362 502 OFFCURVE",
"362 501 OFFCURVE",
"362 498 CURVE SMOOTH",
"362 494 OFFCURVE",
"363 494 OFFCURVE",
"364 493 CURVE",
"364 488 LINE",
"366 476 LINE",
"367 467 OFFCURVE",
"369 456 OFFCURVE",
"373 444 CURVE",
"377 416 LINE SMOOTH",
"382 378 OFFCURVE",
"387 347 OFFCURVE",
"387 340 CURVE SMOOTH",
"387 331 OFFCURVE",
"389 322 OFFCURVE",
"393 307 CURVE SMOOTH",
"394 303 OFFCURVE",
"395 297 OFFCURVE",
"397 288 CURVE",
"404 243 LINE",
"357 243 LINE",
"350 248 LINE",
"349 248 LINE SMOOTH",
"340 248 OFFCURVE",
"333 244 OFFCURVE",
"330 243 CURVE",
"328 243 OFFCURVE",
"327 243 OFFCURVE",
"324 243 CURVE",
"324 242 OFFCURVE",
"322 241 OFFCURVE",
"318 241 CURVE"
);
}
);
};
layerId = "CBDECE4A-293B-4E5C-B714-A3FD26C7130D";
paths = (
{
closed = 1;
nodes = (
"755 -2 LINE SMOOTH",
"763 -2 OFFCURVE",
"769 4 OFFCURVE",
"772 18 CURVE",
"776 19 OFFCURVE",
"776 22 OFFCURVE",
"776 27 CURVE SMOOTH",
"776 38 OFFCURVE",
"767 65 OFFCURVE",
"766 74 CURVE SMOOTH",
"765 80 OFFCURVE",
"764 83 OFFCURVE",
"762 97 CURVE",
"727 249 OFFCURVE",
"661 524 OFFCURVE",
"629 651 CURVE SMOOTH",
"629 652 OFFCURVE",
"624 660 OFFCURVE",
"620 662 CURVE",
"616 662 LINE",
"616 660 OFFCURVE",
"615 660 OFFCURVE",
"612 660 CURVE SMOOTH",
"605 660 OFFCURVE",
"596 660 OFFCURVE",
"586 665 CURVE SMOOTH",
"577 670 OFFCURVE",
"569 667 OFFCURVE",
"561 667 CURVE SMOOTH",
"547 667 OFFCURVE",
"536 666 OFFCURVE",
"522 665 CURVE SMOOTH",
"519 665 OFFCURVE",
"511 665 OFFCURVE",
"504 664 CURVE SMOOTH",
"497 663 OFFCURVE",
"489 662 OFFCURVE",
"483 662 CURVE SMOOTH",
"480 662 OFFCURVE",
"476 664 OFFCURVE",
"474 665 CURVE",
"424 665 LINE",
"418 666 OFFCURVE",
"414 666 OFFCURVE",
"408 666 CURVE SMOOTH",
"403 666 OFFCURVE",
"399 666 OFFCURVE",
"399 667 CURVE",
"304 667 LINE SMOOTH",
"277 667 OFFCURVE",
"263 666 OFFCURVE",
"251 665 CURVE SMOOTH",
"248 665 OFFCURVE",
"239 665 OFFCURVE",
"239 662 CURVE",
"234 662 OFFCURVE",
"227 662 OFFCURVE",
"224 664 CURVE SMOOTH",
"221 666 OFFCURVE",
"217 665 OFFCURVE",
"214 665 CURVE SMOOTH",
"204 666 OFFCURVE",
"196 667 OFFCURVE",
"187 667 CURVE SMOOTH",
"184 667 OFFCURVE",
"179 666 OFFCURVE",
"175 665 CURVE SMOOTH",
"171 664 OFFCURVE",
"168 660 OFFCURVE",
"162 660 CURVE",
"160 662 LINE",
"156 662 LINE",
"151 659 OFFCURVE",
"147 652 OFFCURVE",
"147 651 CURVE SMOOTH",
"68 327 OFFCURVE",
"19 110 OFFCURVE",
"15 86 CURVE",
"15 82 OFFCURVE",
"14 78 OFFCURVE",
"12 71 CURVE",
"10 68 OFFCURVE",
"8 62 OFFCURVE",
"7 55 CURVE SMOOTH",
"6 47 OFFCURVE",
"6 41 OFFCURVE",
"6 35 CURVE",
"5 32 OFFCURVE",
"5 31 OFFCURVE",
"5 25 CURVE SMOOTH",
"5 18 OFFCURVE",
"7 10 OFFCURVE",
"12 3 CURVE SMOOTH",
"14 0 OFFCURVE",
"20 -2 OFFCURVE",
"23 -2 CURVE SMOOTH",
"33 -2 LINE SMOOTH",
"44 -2 OFFCURVE",
"51 -2 OFFCURVE",
"56 0 CURVE",
"124 0 LINE",
"130 0 LINE",
"189 0 LINE",
"189 2 LINE",
"192 3 OFFCURVE",
"196 3 OFFCURVE",
"200 3 CURVE SMOOTH",
"202 3 OFFCURVE",
"202 3 OFFCURVE",
"203 2 CURVE",
"203 1 OFFCURVE",
"203 0 OFFCURVE",
"204 0 CURVE SMOOTH",
"213 0 LINE",
"215 1 OFFCURVE",
"224 2 OFFCURVE",
"232 2 CURVE SMOOTH",
"252 3 OFFCURVE",
"266 3 OFFCURVE",
"277 3 CURVE",
"284 14 OFFCURVE",
"294 54 OFFCURVE",
"303 104 CURVE",
"304 116 OFFCURVE",
"306 122 OFFCURVE",
"306 127 CURVE",
"323 123 OFFCURVE",
"338 122 OFFCURVE",
"359 122 CURVE SMOOTH",
"415 122 LINE",
"423 94 LINE SMOOTH",
"438 41 OFFCURVE",
"439 14 OFFCURVE",
"442 3 CURVE",
"444 3 OFFCURVE",
"449 3 OFFCURVE",
"453 2 CURVE",
"453 1 OFFCURVE",
"454 1 OFFCURVE",
"457 1 CURVE",
"458 0 LINE",
"461 0 LINE SMOOTH",
"466 0 OFFCURVE",
"468 1 OFFCURVE",
"469 2 CURVE SMOOTH",
"470 3 OFFCURVE",
"473 3 OFFCURVE",
"474 3 CURVE SMOOTH",
"517 2 LINE",
"547 2 LINE",
"551 1 OFFCURVE",
"553 0 OFFCURVE",
"555 0 CURVE SMOOTH",
"655 0 LINE",
"696 0 LINE",
"721 0 LINE",
"727 -2 OFFCURVE",
"733 -2 OFFCURVE",
"743 -2 CURVE SMOOTH"
);
},
{
closed = 1;
nodes = (
"328 292 OFFCURVE",
"331 344 OFFCURVE",
"342 397 CURVE SMOOTH",
"351 444 LINE SMOOTH",
"353 455 OFFCURVE",
"354 465 OFFCURVE",
"357 476 CURVE",
"357 488 LINE",
"359 491 OFFCURVE",
"361 494 OFFCURVE",
"361 498 CURVE SMOOTH",
"361 502 LINE",
"362 502 OFFCURVE",
"362 501 OFFCURVE",
"362 498 CURVE SMOOTH",
"362 494 OFFCURVE",
"363 494 OFFCURVE",
"364 493 CURVE",
"364 488 LINE",
"366 476 LINE SMOOTH",
"367 467 OFFCURVE",
"369 456 OFFCURVE",
"373 444 CURVE",
"377 416 LINE SMOOTH",
"382 378 OFFCURVE",
"387 347 OFFCURVE",
"387 340 CURVE SMOOTH",
"387 331 OFFCURVE",
"390 322 OFFCURVE",
"393 307 CURVE SMOOTH",
"397 288 LINE",
"404 243 LINE",
"357 243 LINE",
"350 248 LINE",
"349 248 LINE SMOOTH",
"340 248 OFFCURVE",
"333 244 OFFCURVE",
"330 243 CURVE",
"324 243 LINE",
"324 242 OFFCURVE",
"322 241 OFFCURVE",
"318 241 CURVE"
);
}
);
width = 781;
}
);
leftKerningGroup = A;
note = A;
rightKerningGroup = A;
unicode = 0041;
},
{
color = 6;
glyphname = AE;
lastChange = "2023-02-22 08:59:45 +0000";
layers = (
{
anchors = (
{
name = bottom;
position = "{635, 0}";
},
{
name = ogonek;
position = "{1062, 18}";
},
{
name = top;
position = "{635, 655}";
},
{
name = topleft;
position = "{497, 676}";
}
);
background = {
anchors = (
{
name = bottom;
position = "{635, 0}";
},
{
name = ogonek;
position = "{1062, 18}";
},
{
name = top;
position = "{635, 676}";
},
{
name = topleft;
position = "{497, 684}";
}
);
paths = (
{
closed = 1;
nodes = (
"1032 85 OFFCURVE",
"1019 147 OFFCURVE",
"1012 160 CURVE",
"1008 166 OFFCURVE",
"1007 167 OFFCURVE",
"1004 167 CURVE SMOOTH",
"964 167 OFFCURVE",
"931 166 OFFCURVE",
"909 165 CURVE",
"887 163 OFFCURVE",
"855 162 OFFCURVE",
"762 162 CURVE",
"762 179 OFFCURVE",
"762 193 OFFCURVE",
"764 201 CURVE",
"765 242 OFFCURVE",
"763 250 OFFCURVE",
"770 254 CURVE",
"782 253 OFFCURVE",
"803 253 OFFCURVE",
"835 253 CURVE SMOOTH",
"871 253 OFFCURVE",
"895 255 OFFCURVE",
"911 257 CURVE",
"935 258 OFFCURVE",
"953 259 OFFCURVE",
"964 262 CURVE",
"987 263 OFFCURVE",
"998 271 OFFCURVE",
"998 282 CURVE SMOOTH",
"998 285 LINE",
"996 384 LINE",
"994 393 OFFCURVE",
"991 404 OFFCURVE",
"973 406 CURVE",
"963 406 LINE",
"929 410 OFFCURVE",
"899 412 OFFCURVE",
"874 412 CURVE SMOOTH",
"785 412 LINE SMOOTH",
"771 412 OFFCURVE",
"767 415 OFFCURVE",
"767 433 CURVE",
"769 467 LINE SMOOTH",
"770 479 OFFCURVE",
"775 479 OFFCURVE",
"779 488 CURVE SMOOTH",
"782 495 OFFCURVE",
"785 499 OFFCURVE",
"787 499 CURVE",
"800 500 OFFCURVE",
"817 501 OFFCURVE",
"839 504 CURVE",
"891 508 LINE",
"933 514 OFFCURVE",
"967 515 OFFCURVE",
"996 515 CURVE SMOOTH",
"999 515 OFFCURVE",
"1004 515 OFFCURVE",
"1007 514 CURVE",
"1014 514 OFFCURVE",
"1017 517 OFFCURVE",
"1018 523 CURVE",
"1018 524 OFFCURVE",
"1018 527 OFFCURVE",
"1019 531 CURVE",
"1019 534 OFFCURVE",
"1019 538 OFFCURVE",
"1018 542 CURVE",
"1015 557 OFFCURVE",
"1012 569 OFFCURVE",
"1010 599 CURVE",
"1007 618 OFFCURVE",
"1005 630 OFFCURVE",
"1003 636 CURVE",
"998 660 OFFCURVE",
"991 673 OFFCURVE",
"980 673 CURVE",
"951 675 OFFCURVE",
"910 679 OFFCURVE",
"854 679 CURVE SMOOTH",
"810 679 LINE SMOOTH",
"769 679 OFFCURVE",
"751 678 OFFCURVE",
"702 677 CURVE",
"677 674 OFFCURVE",
"637 674 OFFCURVE",
"593 674 CURVE SMOOTH",
"571 674 OFFCURVE",
"553 673 OFFCURVE",
"544 672 CURVE",
"543 672 OFFCURVE",
"542 671 OFFCURVE",
"541 671 CURVE SMOOTH",
"494 671 LINE",
"494 670 OFFCURVE",
"492 670 OFFCURVE",
"489 670 CURVE SMOOTH",
"412 668 LINE",
"399 670 OFFCURVE",
"385 671 OFFCURVE",
"372 671 CURVE SMOOTH",
"362 671 OFFCURVE",
"352 670 OFFCURVE",
"343 668 CURVE SMOOTH",
"333 666 OFFCURVE",
"324 665 OFFCURVE",
"317 665 CURVE SMOOTH",
"314 665 OFFCURVE",
"312 665 OFFCURVE",
"312 666 CURVE",
"308 666 LINE",
"303 665 OFFCURVE",
"295 658 OFFCURVE",
"295 655 CURVE",
"144 339 LINE SMOOTH",
"104 256 OFFCURVE",
"66 173 OFFCURVE",
"30 91 CURVE",
"29 86 OFFCURVE",
"27 82 OFFCURVE",
"24 78 CURVE",
"17 59 LINE",
"11 40 OFFCURVE",
"6 27 OFFCURVE",
"5 19 CURVE",
"4 6 OFFCURVE",
"8 -1 OFFCURVE",
"17 -1 CURVE SMOOTH",
"32 -1 LINE SMOOTH",
"41 -1 OFFCURVE",
"48 -1 OFFCURVE",
"53 0 CURVE",
"79 0 LINE SMOOTH",
"102 0 OFFCURVE",
"117 0 OFFCURVE",
"124 1 CURVE",
"189 1 LINE SMOOTH",
"193 1 OFFCURVE",
"197 2 OFFCURVE",
"200 3 CURVE",
"232 3 LINE",
"277 5 LINE",
"282 3 LINE",
"283 2 OFFCURVE",
"285 1 OFFCURVE",
"289 1 CURVE SMOOTH",
"292 1 LINE SMOOTH",
"294 1 OFFCURVE",
"296 2 OFFCURVE",
"299 3 CURVE",
"308 5 LINE",
"314 12 OFFCURVE",
"321 25 OFFCURVE",
"329 42 CURVE SMOOTH",
"337 59 OFFCURVE",
"348 84 OFFCURVE",
"363 119 CURVE",
"418 119 LINE",
"435 118 OFFCURVE",
"452 120 OFFCURVE",
"469 123 CURVE",
"468 104 OFFCURVE",
"468 79 OFFCURVE",
"468 48 CURVE SMOOTH",
"468 27 OFFCURVE",
"469 12 OFFCURVE",
"472 5 CURVE",
"483 5 OFFCURVE",
"499 4 OFFCURVE",
"519 3 CURVE",
"528 3 OFFCURVE",
"535 2 OFFCURVE",
"539 1 CURVE",
"550 1 LINE SMOOTH",
"551 1 OFFCURVE",
"551 1 OFFCURVE",
"552 2 CURVE",
"552 3 OFFCURVE",
"552 3 OFFCURVE",
"553 3 CURVE SMOOTH",
"564 3 LINE",
"564 1 LINE",
"572 1 LINE",
"576 0 OFFCURVE",
"580 0 OFFCURVE",
"585 0 CURVE SMOOTH",
"655 0 LINE",
"660 -1 OFFCURVE",
"668 -1 OFFCURVE",
"677 -1 CURVE SMOOTH",
"692 -1 LINE",
"698 0 LINE",
"703 0 OFFCURVE",
"729 0 OFFCURVE",
"747 1 CURVE",
"812 1 LINE SMOOTH",
"840 1 OFFCURVE",
"860 2 OFFCURVE",
"873 3 CURVE",
"898 4 OFFCURVE",
"919 5 OFFCURVE",
"934 5 CURVE SMOOTH",
"939 5 LINE",
"944 6 OFFCURVE",
"948 6 OFFCURVE",
"952 6 CURVE",
"980 8 OFFCURVE",
"1005 9 OFFCURVE",
"1023 9 CURVE SMOOTH",
"1034 9 OFFCURVE",
"1042 16 OFFCURVE",
"1042 30 CURVE SMOOTH",
"1042 35 OFFCURVE",
"1041 40 OFFCURVE",
"1040 45 CURVE SMOOTH"
);
},
{
closed = 1;
nodes = (
"499 496 LINE",
"498 483 LINE",
"497 448 LINE SMOOTH",
"497 443 OFFCURVE",
"496 433 OFFCURVE",
"495 420 CURVE SMOOTH",
"494 400 LINE SMOOTH",
"493 377 OFFCURVE",
"492 359 OFFCURVE",
"492 346 CURVE",
"485 244 LINE",
"478 247 OFFCURVE",
"465 248 OFFCURVE",
"445 248 CURVE SMOOTH",
"404 248 LINE",
"415 275 OFFCURVE",
"421 291 OFFCURVE",
"422 294 CURVE",
"424 303 OFFCURVE",
"427 312 OFFCURVE",
"431 323 CURVE SMOOTH",
"440 348 LINE SMOOTH",
"449 372 OFFCURVE",
"456 390 OFFCURVE",
"460 403 CURVE",
"462 408 OFFCURVE",
"468 423 OFFCURVE",
"477 449 CURVE SMOOTH",
"483 466 LINE",
"484 471 OFFCURVE",
"486 477 OFFCURVE",
"489 483 CURVE",
"492 492 LINE",
"493 494 OFFCURVE",
"493 495 OFFCURVE",
"493 496 CURVE",
"495 500 LINE",
"498 506 LINE",
"498 507 OFFCURVE",
"498 509 OFFCURVE",
"499 511 CURVE"
);
}
);
};
layerId = "CBDECE4A-293B-4E5C-B714-A3FD26C7130D";
paths = (
{
closed = 1;
nodes = (
"1026 112 OFFCURVE",
"1017 151 OFFCURVE",
"1012 160 CURVE SMOOTH",
"1008 166 OFFCURVE",
"1007 167 OFFCURVE",
"1004 167 CURVE SMOOTH",
"978 167 OFFCURVE",
"947 166 OFFCURVE",
"909 165 CURVE SMOOTH",
"883 163 OFFCURVE",
"842 162 OFFCURVE",
"762 162 CURVE",
"762 191 OFFCURVE",
"762 196 OFFCURVE",
"764 201 CURVE",
"765 242 OFFCURVE",
"763 250 OFFCURVE",
"770 254 CURVE",
"782 253 OFFCURVE",
"803 253 OFFCURVE",
"835 253 CURVE SMOOTH",
"868 253 OFFCURVE",
"892 254 OFFCURVE",
"911 257 CURVE SMOOTH",
"936 258 OFFCURVE",
"952 259 OFFCURVE",
"964 262 CURVE",
"986 263 OFFCURVE",
"998 270 OFFCURVE",
"998 282 CURVE SMOOTH",
"998 285 LINE",
"996 384 LINE",
"993 399 OFFCURVE",
"986 406 OFFCURVE",
"973 406 CURVE SMOOTH",
"963 406 LINE",
"929 410 OFFCURVE",
"899 412 OFFCURVE",
"874 412 CURVE SMOOTH",
"785 412 LINE SMOOTH",
"770 412 OFFCURVE",
"766 416 OFFCURVE",
"767 433 CURVE SMOOTH",
"769 467 LINE SMOOTH",
"770 479 OFFCURVE",
"775 479 OFFCURVE",
"779 488 CURVE SMOOTH",
"782 495 OFFCURVE",
"785 499 OFFCURVE",
"787 499 CURVE SMOOTH",
"800 500 OFFCURVE",
"817 502 OFFCURVE",
"839 504 CURVE SMOOTH",
"891 508 LINE SMOOTH",
"933 511 OFFCURVE",
"967 515 OFFCURVE",
"996 515 CURVE SMOOTH",
"1004 515 OFFCURVE",
"1005 515 OFFCURVE",
"1007 514 CURVE",
"1014 514 OFFCURVE",
"1017 517 OFFCURVE",
"1018 523 CURVE SMOOTH",
"1018 528 OFFCURVE",
"1018 530 OFFCURVE",
"1019 531 CURVE SMOOTH",
"1019 538 OFFCURVE",
"1019 540 OFFCURVE",
"1018 542 CURVE SMOOTH",
"1015 557 OFFCURVE",
"1012 569 OFFCURVE",
"1010 599 CURVE SMOOTH",
"1006 622 OFFCURVE",
"1005 631 OFFCURVE",
"1003 636 CURVE SMOOTH",
"998 660 OFFCURVE",
"990 673 OFFCURVE",
"980 673 CURVE SMOOTH",
"951 675 OFFCURVE",
"910 679 OFFCURVE",
"854 679 CURVE SMOOTH",
"810 679 LINE SMOOTH",
"769 679 OFFCURVE",
"751 678 OFFCURVE",
"702 677 CURVE",
"677 674 OFFCURVE",
"637 674 OFFCURVE",
"593 674 CURVE SMOOTH",
"577 674 OFFCURVE",
"557 673 OFFCURVE",
"544 672 CURVE SMOOTH",
"543 672 OFFCURVE",
"542 671 OFFCURVE",
"541 671 CURVE SMOOTH",
"494 671 LINE",
"494 670 OFFCURVE",
"494 670 OFFCURVE",
"489 670 CURVE SMOOTH",
"412 668 LINE",
"399 670 OFFCURVE",
"385 671 OFFCURVE",
"372 671 CURVE SMOOTH",
"362 671 OFFCURVE",
"352 670 OFFCURVE",
"343 668 CURVE SMOOTH",
"333 666 OFFCURVE",
"324 665 OFFCURVE",
"317 665 CURVE SMOOTH",
"313 665 OFFCURVE",
"312 665 OFFCURVE",
"312 666 CURVE",
"308 666 LINE SMOOTH",
"304 666 OFFCURVE",
"295 659 OFFCURVE",
"295 655 CURVE",
"144 339 LINE SMOOTH",
"101 249 OFFCURVE",
"64 168 OFFCURVE",
"30 91 CURVE",
"29 86 OFFCURVE",
"27 82 OFFCURVE",
"24 78 CURVE",
"17 59 LINE SMOOTH",
"9 35 OFFCURVE",
"6 26 OFFCURVE",
"5 19 CURVE SMOOTH",
"4 6 OFFCURVE",
"8 -1 OFFCURVE",
"17 -1 CURVE SMOOTH",
"32 -1 LINE SMOOTH",
"41 -1 OFFCURVE",
"48 -1 OFFCURVE",
"53 0 CURVE",
"79 0 LINE SMOOTH",
"114 0 OFFCURVE",
"119 0 OFFCURVE",
"124 1 CURVE",
"189 1 LINE SMOOTH",
"191 1 OFFCURVE",
"194 2 OFFCURVE",
"200 3 CURVE",
"232 3 LINE",
"277 5 LINE",
"282 3 LINE",
"283 2 OFFCURVE",
"286 1 OFFCURVE",
"289 1 CURVE SMOOTH",
"292 1 LINE SMOOTH",
"294 1 OFFCURVE",
"296 2 OFFCURVE",
"299 3 CURVE SMOOTH",
"308 5 LINE",
"313 11 OFFCURVE",
"320 24 OFFCURVE",
"329 42 CURVE SMOOTH",
"337 58 OFFCURVE",
"347 83 OFFCURVE",
"363 119 CURVE",
"418 119 LINE SMOOTH",
"439 119 OFFCURVE",
"455 120 OFFCURVE",
"469 123 CURVE",
"468 110 OFFCURVE",
"468 100 OFFCURVE",
"468 48 CURVE SMOOTH",
"468 23 OFFCURVE",
"469 11 OFFCURVE",
"472 5 CURVE",
"483 5 OFFCURVE",
"499 4 OFFCURVE",
"519 3 CURVE SMOOTH",
"526 3 OFFCURVE",
"533 2 OFFCURVE",
"539 1 CURVE",
"550 1 LINE SMOOTH",
"551 1 OFFCURVE",
"551 1 OFFCURVE",
"552 2 CURVE",
"552 3 OFFCURVE",
"552 3 OFFCURVE",
"553 3 CURVE SMOOTH",
"564 3 LINE",
"564 1 LINE",
"572 1 LINE",
"575 0 OFFCURVE",
"577 0 OFFCURVE",
"585 0 CURVE SMOOTH",
"655 0 LINE",
"658 -1 OFFCURVE",
"662 -1 OFFCURVE",
"677 -1 CURVE SMOOTH",
"692 -1 LINE",
"698 0 LINE SMOOTH",
"703 1 OFFCURVE",
"729 1 OFFCURVE",
"747 1 CURVE SMOOTH",
"812 1 LINE SMOOTH",
"830 1 OFFCURVE",
"850 2 OFFCURVE",
"873 3 CURVE SMOOTH",
"898 4 OFFCURVE",
"919 5 OFFCURVE",
"934 5 CURVE SMOOTH",
"939 5 LINE SMOOTH",
"944 5 OFFCURVE",
"948 6 OFFCURVE",
"952 6 CURVE SMOOTH",
"978 8 OFFCURVE",
"1003 9 OFFCURVE",
"1023 9 CURVE SMOOTH",
"1035 9 OFFCURVE",
"1042 17 OFFCURVE",
"1042 30 CURVE SMOOTH",
"1042 36 OFFCURVE",
"1042 40 OFFCURVE",
"1040 45 CURVE SMOOTH"
);
},
{
closed = 1;
nodes = (
"499 496 LINE",
"498 483 LINE",
"497 448 LINE SMOOTH",
"497 443 OFFCURVE",
"496 433 OFFCURVE",
"495 420 CURVE SMOOTH",
"494 400 LINE SMOOTH",
"493 377 OFFCURVE",
"493 359 OFFCURVE",
"492 346 CURVE SMOOTH",
"485 244 LINE",
"478 247 OFFCURVE",
"468 248 OFFCURVE",
"445 248 CURVE SMOOTH",
"404 248 LINE",
"412 267 OFFCURVE",
"420 289 OFFCURVE",
"422 294 CURVE SMOOTH",
"425 306 OFFCURVE",
"427 313 OFFCURVE",
"431 323 CURVE SMOOTH",
"440 348 LINE SMOOTH",
"449 372 OFFCURVE",
"456 390 OFFCURVE",
"460 403 CURVE SMOOTH",
"462 408 OFFCURVE",
"468 423 OFFCURVE",
"477 449 CURVE SMOOTH",
"483 466 LINE SMOOTH",
"485 470 OFFCURVE",
"486 474 OFFCURVE",
"489 483 CURVE SMOOTH",
"492 492 LINE SMOOTH",
"493 494 OFFCURVE",
"493 495 OFFCURVE",
"493 496 CURVE",
"498 506 LINE",
"498 509 OFFCURVE",
"498 510 OFFCURVE",
"499 511 CURVE"
);
}
);
width = 1047;
}
);
leftKerningGroup = AE;
note = AE;
rightKerningGroup = E;
unicode = 00C6;
},
{
color = 6;
glyphname = B;
lastChange = "2023-02-22 08:59:45 +0000";
layers = (
{
anchors = (
{
name = bottom;
position = "{399, 0}";
},
{
name = top;
position = "{399, 655}";
}
);
background = {
anchors = (
{
name = bottom;
position = "{399, 0}";
},
{
name = top;
position = "{399, 676}";
}
);
paths = (
{
closed = 1;
nodes = (
"287 -13 OFFCURVE",
"325 -12 OFFCURVE",
"360 -8 CURVE SMOOTH",
"453 3 OFFCURVE",
"637 11 OFFCURVE",
"725 80 CURVE SMOOTH",
"771 116 OFFCURVE",
"792 163 OFFCURVE",
"792 200 CURVE SMOOTH",
"792 226 OFFCURVE",
"781 251 OFFCURVE",
"760 275 CURVE",
"731 302 OFFCURVE",
"694 325 OFFCURVE",
"648 344 CURVE",
"647 345 OFFCURVE",
"646 346 OFFCURVE",
"646 346 CURVE",
"646 347 OFFCURVE",
"646 347 OFFCURVE",
"646 348 CURVE",
"645 348 OFFCURVE",
"645 348 OFFCURVE",
"645 348 CURVE",
"648 353 OFFCURVE",
"652 357 OFFCURVE",
"655 358 CURVE",
"664 363 OFFCURVE",
"674 368 OFFCURVE",
"686 371 CURVE",
"689 372 OFFCURVE",
"691 374 OFFCURVE",
"694 375 CURVE SMOOTH",
"697 376 OFFCURVE",
"700 377 OFFCURVE",
"703 379 CURVE SMOOTH",
"748 409 OFFCURVE",
"772 450 OFFCURVE",
"772 506 CURVE SMOOTH",
"772 549 OFFCURVE",
"756 575 OFFCURVE",
"723 603 CURVE",
"672 641 OFFCURVE",
"535 669 OFFCURVE",
"432 670 CURVE SMOOTH",
"358 671 OFFCURVE",
"295 675 OFFCURVE",
"240 675 CURVE SMOOTH",
"231 675 OFFCURVE",
"179 671 OFFCURVE",
"165 670 CURVE",
"142 669 OFFCURVE",
"126 668 OFFCURVE",
"115 668 CURVE SMOOTH",
"107 668 OFFCURVE",
"100 668 OFFCURVE",
"93 667 CURVE SMOOTH",
"86 666 OFFCURVE",
"79 666 OFFCURVE",
"73 666 CURVE SMOOTH",
"64 666 OFFCURVE",
"56 665 OFFCURVE",
"51 663 CURVE",
"42 657 OFFCURVE",
"37 648 OFFCURVE",
"36 636 CURVE",
"36 633 OFFCURVE",
"36 628 OFFCURVE",
"33 621 CURVE",
"31 610 OFFCURVE",
"30 593 OFFCURVE",
"30 570 CURVE SMOOTH",
"30 558 LINE",
"30 525 LINE SMOOTH",
"30 458 OFFCURVE",
"32 400 OFFCURVE",
"35 353 CURVE",
"36 293 LINE SMOOTH",
"37 242 OFFCURVE",
"38 204 OFFCURVE",
"38 179 CURVE SMOOTH",
"38 172 OFFCURVE",
"38 165 OFFCURVE",
"37 158 CURVE",
"37 131 OFFCURVE",
"36 122 OFFCURVE",
"35 109 CURVE",
"35 84 LINE SMOOTH",
"35 41 OFFCURVE",
"50 18 OFFCURVE",
"85 3 CURVE",
"118 -9 OFFCURVE",
"151 -13 OFFCURVE",
"246 -13 CURVE SMOOTH"
);
},
{
closed = 1;
nodes = (
"368 399 OFFCURVE",
"366 400 OFFCURVE",
"366 403 CURVE SMOOTH",
"366 409 LINE SMOOTH",
"366 416 OFFCURVE",
"366 422 OFFCURVE",
"366 436 CURVE SMOOTH",
"366 462 OFFCURVE",
"368 513 OFFCURVE",
"406 513 CURVE SMOOTH",
"452 513 OFFCURVE",
"495 507 OFFCURVE",
"495 464 CURVE SMOOTH",
"495 460 OFFCURVE",
"494 458 OFFCURVE",
"491 458 CURVE",
"484 454 LINE",
"474 449 LINE",
"471 448 OFFCURVE",
"466 442 OFFCURVE",
"458 437 CURVE",
"449 430 OFFCURVE",
"440 425 OFFCURVE",
"431 422 CURVE",
"418 414 OFFCURVE",
"400 409 OFFCURVE",
"385 402 CURVE",
"380 400 OFFCURVE",
"376 399 OFFCURVE",
"374 399 CURVE SMOOTH"
);
},
{
closed = 1;
nodes = (
"338 153 OFFCURVE",
"360 222 OFFCURVE",
"362 243 CURVE SMOOTH",
"363 252 OFFCURVE",
"364 256 OFFCURVE",
"370 256 CURVE SMOOTH",
"388 256 OFFCURVE",
"400 255 OFFCURVE",
"429 254 CURVE",
"449 252 OFFCURVE",
"449 252 OFFCURVE",
"469 252 CURVE",
"480 251 OFFCURVE",
"485 249 OFFCURVE",
"484 234 CURVE",
"484 175 OFFCURVE",
"444 153 OFFCURVE",
"390 153 CURVE SMOOTH",
"387 153 LINE SMOOTH"
);
}
);
};
layerId = "CBDECE4A-293B-4E5C-B714-A3FD26C7130D";
paths = (
{
closed = 1;
nodes = (
"280 -13 OFFCURVE",
"315 -11 OFFCURVE",
"360 -8 CURVE SMOOTH",
"453 3 OFFCURVE",
"637 11 OFFCURVE",
"725 80 CURVE SMOOTH",
"766 112 OFFCURVE",
"792 158 OFFCURVE",
"792 200 CURVE SMOOTH",
"792 226 OFFCURVE",
"781 251 OFFCURVE",
"760 275 CURVE",
"730 303 OFFCURVE",
"692 327 OFFCURVE",
"648 344 CURVE",
"646 346 LINE",
"646 348 LINE",
"645 348 LINE",
"648 353 OFFCURVE",
"652 357 OFFCURVE",
"655 358 CURVE",
"666 365 OFFCURVE",
"676 368 OFFCURVE",
"686 371 CURVE SMOOTH",
"689 372 OFFCURVE",
"691 374 OFFCURVE",
"694 375 CURVE SMOOTH",
"703 379 LINE",
"749 410 OFFCURVE",
"772 452 OFFCURVE",
"772 506 CURVE SMOOTH",
"772 546 OFFCURVE",
"759 572 OFFCURVE",
"723 603 CURVE",
"672 638 OFFCURVE",
"540 669 OFFCURVE",
"432 670 CURVE SMOOTH",
"358 671 OFFCURVE",
"295 675 OFFCURVE",
"240 675 CURVE SMOOTH",
"231 675 OFFCURVE",
"179 671 OFFCURVE",
"165 670 CURVE SMOOTH",
"142 669 OFFCURVE",
"126 668 OFFCURVE",
"115 668 CURVE SMOOTH",
"98 668 OFFCURVE",
"97 668 OFFCURVE",
"93 667 CURVE SMOOTH",
"86 666 OFFCURVE",
"79 666 OFFCURVE",
"73 666 CURVE SMOOTH",
"64 666 OFFCURVE",
"56 665 OFFCURVE",
"51 663 CURVE",
"42 657 OFFCURVE",
"37 648 OFFCURVE",
"36 636 CURVE SMOOTH",
"36 631 OFFCURVE",
"35 626 OFFCURVE",
"33 621 CURVE",
"31 610 OFFCURVE",
"30 593 OFFCURVE",
"30 570 CURVE SMOOTH",
"30 525 LINE SMOOTH",
"30 479 OFFCURVE",
"32 427 OFFCURVE",
"35 353 CURVE SMOOTH",
"36 293 LINE SMOOTH",
"37 242 OFFCURVE",
"38 204 OFFCURVE",
"38 179 CURVE SMOOTH",
"38 163 OFFCURVE",
"38 162 OFFCURVE",
"37 158 CURVE",
"37 131 OFFCURVE",
"36 122 OFFCURVE",
"35 109 CURVE SMOOTH",
"35 84 LINE SMOOTH",
"35 41 OFFCURVE",
"50 18 OFFCURVE",
"85 3 CURVE",
"121 -9 OFFCURVE",
"160 -13 OFFCURVE",
"246 -13 CURVE SMOOTH"
);
},
{
closed = 1;
nodes = (
"368 399 OFFCURVE",
"366 400 OFFCURVE",
"366 403 CURVE SMOOTH",
"366 436 LINE SMOOTH",
"366 486 OFFCURVE",
"380 513 OFFCURVE",
"406 513 CURVE SMOOTH",
"468 513 OFFCURVE",
"495 498 OFFCURVE",
"495 464 CURVE SMOOTH",
"495 460 OFFCURVE",
"494 458 OFFCURVE",
"491 458 CURVE",
"484 454 LINE",
"474 449 LINE SMOOTH",
"471 448 OFFCURVE",
"466 442 OFFCURVE",
"458 437 CURVE SMOOTH",
"449 430 OFFCURVE",
"440 425 OFFCURVE",
"431 422 CURVE",
"418 414 OFFCURVE",
"400 409 OFFCURVE",
"385 402 CURVE SMOOTH",
"380 400 OFFCURVE",
"376 399 OFFCURVE",
"374 399 CURVE SMOOTH"
);
},
{
closed = 1;
nodes = (
"338 153 OFFCURVE",
"360 222 OFFCURVE",
"362 243 CURVE SMOOTH",
"363 253 OFFCURVE",
"365 256 OFFCURVE",
"370 256 CURVE SMOOTH",
"388 256 OFFCURVE",
"400 255 OFFCURVE",
"429 254 CURVE SMOOTH",
"449 252 OFFCURVE",
"449 252 OFFCURVE",
"469 252 CURVE SMOOTH",
"482 251 OFFCURVE",
"485 247 OFFCURVE",
"484 234 CURVE SMOOTH",
"484 181 OFFCURVE",
"451 153 OFFCURVE",
"390 153 CURVE SMOOTH",
"387 153 LINE SMOOTH"
);
}
);
width = 797;
}
);
leftKerningGroup = H;
leftMetricsKey = "=H";
note = B;
rightKerningGroup = B;
unicode = 0042;
},
{
color = 6;
glyphname = C;
lastChange = "2023-02-22 08:59:45 +0000";
layers = (
{
anchors = (
{
name = bottom;
position = "{394, 0}";
},
{
name = top;
position = "{424, 655}";
}
);
background = {
anchors = (
{
name = bottom;
position = "{394, 0}";
},
{
name = top;
position = "{424, 686}";
}
);
paths = (
{
closed = 1;
nodes = (
"603 199 OFFCURVE",
"579 198 OFFCURVE",
"554 195 CURVE SMOOTH",
"511 190 LINE SMOOTH",
"429 180 OFFCURVE",
"359 228 OFFCURVE",
"359 330 CURVE SMOOTH",
"359 442 OFFCURVE",
"439 489 OFFCURVE",
"524 489 CURVE",
"524 489 OFFCURVE",
"525 489 OFFCURVE",
"525 490 CURVE",
"549 491 OFFCURVE",
"537 489 OFFCURVE",
"558 489 CURVE SMOOTH",
"572 489 LINE",
"656 477 LINE",
"673 489 OFFCURVE",
"676 506 OFFCURVE",
"676 539 CURVE SMOOTH",
"676 557 OFFCURVE",
"676 587 OFFCURVE",
"674 603 CURVE",
"673 613 OFFCURVE",
"672 624 OFFCURVE",
"672 635 CURVE",
"670 655 LINE",
"667 655 LINE SMOOTH",
"665 655 OFFCURVE",
"662 656 OFFCURVE",
"659 659 CURVE",
"657 660 OFFCURVE",
"656 663 OFFCURVE",
"655 665 CURVE",
"652 666 OFFCURVE",
"651 667 OFFCURVE",
"650 667 CURVE SMOOTH",
"641 667 OFFCURVE",
"624 672 OFFCURVE",
"613 674 CURVE SMOOTH",
"580 679 LINE",
"571 680 OFFCURVE",
"563 683 OFFCURVE",
"555 683 CURVE",
"496 690 OFFCURVE",
"489 694 OFFCURVE",
"457 694 CURVE SMOOTH",
"340 694 OFFCURVE",
"209 662 OFFCURVE",
"135 605 CURVE SMOOTH",
"58 545 OFFCURVE",
"20 465 OFFCURVE",
"20 332 CURVE SMOOTH",
"20 213 OFFCURVE",
"62 126 OFFCURVE",
"135 65 CURVE SMOOTH",
"208 4 OFFCURVE",
"298 -26 OFFCURVE",
"416 -26 CURVE SMOOTH",
"511 -26 OFFCURVE",
"621 -20 OFFCURVE",
"692 54 CURVE",
"692 101 OFFCURVE",
"687 153 OFFCURVE",
"667 209 CURVE",
"667 212 LINE",
"666 221 OFFCURVE",
"662 226 OFFCURVE",
"654 229 CURVE"
);
}
);
};
layerId = "CBDECE4A-293B-4E5C-B714-A3FD26C7130D";
paths = (
{
closed = 1;
nodes = (
"603 199 OFFCURVE",
"579 198 OFFCURVE",
"554 195 CURVE SMOOTH",
"511 190 LINE SMOOTH",
"421 179 OFFCURVE",
"359 236 OFFCURVE",
"359 330 CURVE SMOOTH",
"359 427 OFFCURVE",
"423 489 OFFCURVE",
"524 489 CURVE",
"525 490 LINE",
"549 491 OFFCURVE",
"537 489 OFFCURVE",
"558 489 CURVE SMOOTH",
"572 489 LINE",
"656 477 LINE",
"671 488 OFFCURVE",
"676 503 OFFCURVE",
"676 539 CURVE SMOOTH",
"676 566 OFFCURVE",
"675 589 OFFCURVE",
"674 603 CURVE SMOOTH",
"673 613 OFFCURVE",
"673 624 OFFCURVE",
"672 635 CURVE SMOOTH",
"670 655 LINE",
"667 655 LINE SMOOTH",
"666 655 OFFCURVE",
"664 656 OFFCURVE",
"659 659 CURVE",
"657 660 OFFCURVE",
"656 663 OFFCURVE",
"655 665 CURVE",
"652 666 OFFCURVE",
"651 667 OFFCURVE",
"650 667 CURVE SMOOTH",
"641 667 OFFCURVE",
"624 672 OFFCURVE",
"613 674 CURVE SMOOTH",
"580 679 LINE SMOOTH",
"571 680 OFFCURVE",
"563 683 OFFCURVE",
"555 683 CURVE",
"496 690 OFFCURVE",
"489 694 OFFCURVE",
"457 694 CURVE SMOOTH",
"332 694 OFFCURVE",
"205 659 OFFCURVE",
"135 605 CURVE SMOOTH",
"55 543 OFFCURVE",
"20 460 OFFCURVE",
"20 332 CURVE SMOOTH",
"20 218 OFFCURVE",
"58 129 OFFCURVE",
"135 65 CURVE SMOOTH",
"209 3 OFFCURVE",
"299 -26 OFFCURVE",
"416 -26 CURVE SMOOTH",
"556 -26 OFFCURVE",
"638 -2 OFFCURVE",
"692 54 CURVE",
"692 112 OFFCURVE",
"684 162 OFFCURVE",
"667 209 CURVE",
"667 212 LINE SMOOTH",
"667 220 OFFCURVE",
"663 226 OFFCURVE",
"654 229 CURVE"
);
}
);
width = 707;
}
);
leftKerningGroup = O;
leftMetricsKey = "=O";
note = C;
rightKerningGroup = C;
unicode = 0043;
},
{
color = 6;
glyphname = D;
lastChange = "2023-02-22 08:59:45 +0000";
layers = (
{
anchors = (
{
name = bottom;
position = "{400, 0}";
},
{
name = center;
position = "{400, 338}";
},
{
name = top;
position = "{400, 655}";
}
);
background = {
anchors = (
{
name = bottom;
position = "{400, 0}";
},
{
name = center;
position = "{400, 338}";
},
{
name = top;
position = "{400, 676}";
}
);
paths = (
{
closed = 1;
nodes = (
"512 -2 OFFCURVE",
"619 24 OFFCURVE",
"687 83 CURVE SMOOTH",
"755 142 OFFCURVE",
"785 233 OFFCURVE",
"785 373 CURVE SMOOTH",
"785 447 OFFCURVE",
"769 509 OFFCURVE",
"736 560 CURVE SMOOTH",
"681 644 OFFCURVE",
"590 673 OFFCURVE",
"507 673 CURVE SMOOTH",
"483 673 OFFCURVE",
"450 672 OFFCURVE",
"409 671 CURVE SMOOTH",
"372 670 LINE SMOOTH",
"344 669 OFFCURVE",
"305 669 OFFCURVE",
"255 669 CURVE SMOOTH",
"222 669 OFFCURVE",
"194 669 OFFCURVE",
"172 670 CURVE",
"56 671 LINE SMOOTH",
"44 671 OFFCURVE",
"30 657 OFFCURVE",
"30 645 CURVE SMOOTH",
"30 425 LINE SMOOTH",
"30 352 OFFCURVE",
"32 283 OFFCURVE",
"33 218 CURVE SMOOTH",
"34 173 OFFCURVE",
"35 121 OFFCURVE",
"35 63 CURVE SMOOTH",
"35 46 OFFCURVE",
"37 32 OFFCURVE",
"40 23 CURVE",
"43 8 OFFCURVE",
"51 1 OFFCURVE",
"62 1 CURVE SMOOTH",
"215 0 LINE",
"347 -1 LINE SMOOTH"
);
},
{
closed = 1;
nodes = (
"357 301 OFFCURVE",
"358 325 OFFCURVE",
"359 358 CURVE SMOOTH",
"360 382 LINE SMOOTH",
"361 403 OFFCURVE",
"364 419 OFFCURVE",
"364 430 CURVE SMOOTH",
"365 550 LINE",
"373 553 OFFCURVE",
"376 554 OFFCURVE",
"377 555 CURVE",
"382 556 OFFCURVE",
"396 560 OFFCURVE",
"414 560 CURVE SMOOTH",
"422 560 OFFCURVE",
"432 555 OFFCURVE",
"442 546 CURVE",
"467 518 OFFCURVE",
"477 430 OFFCURVE",
"477 395 CURVE SMOOTH",
"477 376 LINE SMOOTH",
"477 348 OFFCURVE",
"475 315 OFFCURVE",
"470 276 CURVE",
"452 185 OFFCURVE",
"435 140 OFFCURVE",
"414 121 CURVE",
"412 120 OFFCURVE",
"408 120 OFFCURVE",
"407 119 CURVE",
"404 118 OFFCURVE",
"401 117 OFFCURVE",
"396 116 CURVE",
"383 115 OFFCURVE",
"373 114 OFFCURVE",
"365 114 CURVE SMOOTH",
"357 114 OFFCURVE",
"354 114 OFFCURVE",
"349 115 CURVE",
"356 286 LINE SMOOTH"
);
}
);
};
layerId = "CBDECE4A-293B-4E5C-B714-A3FD26C7130D";
paths = (
{
closed = 1;
nodes = (
"513 -2 OFFCURVE",
"619 24 OFFCURVE",
"687 83 CURVE SMOOTH",
"754 142 OFFCURVE",
"785 233 OFFCURVE",
"785 373 CURVE SMOOTH",
"785 447 OFFCURVE",
"769 509 OFFCURVE",
"736 560 CURVE SMOOTH",
"689 632 OFFCURVE",
"606 673 OFFCURVE",
"507 673 CURVE SMOOTH",
"483 673 OFFCURVE",
"450 672 OFFCURVE",
"409 671 CURVE SMOOTH",
"372 670 LINE SMOOTH",
"344 669 OFFCURVE",
"305 669 OFFCURVE",
"255 669 CURVE SMOOTH",
"199 669 OFFCURVE",
"187 669 OFFCURVE",
"172 670 CURVE SMOOTH",
"56 671 LINE SMOOTH",
"44 671 OFFCURVE",
"30 657 OFFCURVE",
"30 645 CURVE SMOOTH",
"30 425 LINE SMOOTH",
"30 352 OFFCURVE",
"32 283 OFFCURVE",
"33 218 CURVE SMOOTH",
"34 155 OFFCURVE",
"35 108 OFFCURVE",
"35 63 CURVE SMOOTH",
"35 48 OFFCURVE",
"37 34 OFFCURVE",
"40 23 CURVE SMOOTH",
"43 9 OFFCURVE",
"51 1 OFFCURVE",
"62 1 CURVE SMOOTH",
"347 -1 LINE SMOOTH"
);
},
{
closed = 1;
nodes = (
"357 301 OFFCURVE",
"358 325 OFFCURVE",
"359 358 CURVE SMOOTH",
"360 382 LINE SMOOTH",
"361 403 OFFCURVE",
"364 419 OFFCURVE",
"364 430 CURVE SMOOTH",
"365 550 LINE",
"373 553 OFFCURVE",
"376 554 OFFCURVE",
"377 555 CURVE",
"382 556 OFFCURVE",
"396 560 OFFCURVE",
"414 560 CURVE SMOOTH",
"422 560 OFFCURVE",
"432 555 OFFCURVE",
"442 546 CURVE",
"460 526 OFFCURVE",
"477 452 OFFCURVE",
"477 395 CURVE SMOOTH",
"477 376 LINE SMOOTH",
"477 343 OFFCURVE",
"475 309 OFFCURVE",
"470 276 CURVE",
"451 184 OFFCURVE",
"435 139 OFFCURVE",
"414 121 CURVE",
"412 120 OFFCURVE",
"408 120 OFFCURVE",
"407 119 CURVE",
"403 118 OFFCURVE",
"400 117 OFFCURVE",
"396 116 CURVE SMOOTH",
"383 115 OFFCURVE",
"373 114 OFFCURVE",
"365 114 CURVE SMOOTH",
"357 114 OFFCURVE",
"354 114 OFFCURVE",
"349 115 CURVE",
"356 286 LINE SMOOTH"
);
}
);
width = 805;
}
);
leftKerningGroup = H;
leftMetricsKey = "=H";
note = D;
rightKerningGroup = O;
rightMetricsKey = "=O";
unicode = 0044;
},
{
color = 6;
glyphname = Eth;
lastChange = "2023-02-22 08:59:45 +0000";
layers = (
{
background = {
paths = (
{
closed = 1;
nodes = (
"211 407 OFFCURVE",
"132 407 OFFCURVE",
"104 408 CURVE",
"57 408 LINE SMOOTH",
"44 408 OFFCURVE",
"30 398 OFFCURVE",
"30 394 CURVE SMOOTH",
"30 368 OFFCURVE",
"30 354 OFFCURVE",
"31 340 CURVE",
"31 284 LINE SMOOTH",
"31 279 OFFCURVE",
"40 274 OFFCURVE",
"54 271 CURVE",
"61 271 OFFCURVE",
"81 269 OFFCURVE",
"104 269 CURVE",
"104 271 LINE",
"132 272 OFFCURVE",
"209 273 OFFCURVE",
"459 274 CURVE",
"473 275 OFFCURVE",
"485 283 OFFCURVE",
"485 300 CURVE SMOOTH",
"485 323 LINE SMOOTH",
"485 328 OFFCURVE",
"486 335 OFFCURVE",
"486 342 CURVE",
"489 394 LINE",
"489 397 OFFCURVE",
"480 406 OFFCURVE",
"468 406 CURVE SMOOTH"
);
},
{
closed = 1;
nodes = (
"576 -2 OFFCURVE",
"683 24 OFFCURVE",
"751 83 CURVE SMOOTH",
"819 142 OFFCURVE",
"849 233 OFFCURVE",
"849 373 CURVE SMOOTH",
"849 447 OFFCURVE",
"833 509 OFFCURVE",
"800 560 CURVE SMOOTH",
"745 644 OFFCURVE",
"654 673 OFFCURVE",
"571 673 CURVE SMOOTH",
"547 673 OFFCURVE",
"514 672 OFFCURVE",
"473 671 CURVE SMOOTH",
"436 670 LINE SMOOTH",
"408 669 OFFCURVE",
"369 669 OFFCURVE",
"319 669 CURVE SMOOTH",
"286 669 OFFCURVE",
"258 669 OFFCURVE",
"236 670 CURVE SMOOTH",
"120 671 LINE SMOOTH",
"108 671 OFFCURVE",
"94 657 OFFCURVE",
"94 645 CURVE SMOOTH",
"94 425 LINE SMOOTH",
"94 352 OFFCURVE",
"96 283 OFFCURVE",
"97 218 CURVE SMOOTH",
"98 173 OFFCURVE",
"99 121 OFFCURVE",
"99 63 CURVE SMOOTH",
"99 46 OFFCURVE",
"101 32 OFFCURVE",
"104 23 CURVE SMOOTH",
"107 8 OFFCURVE",
"115 1 OFFCURVE",
"126 1 CURVE SMOOTH",
"411 -1 LINE SMOOTH"
);
},
{
closed = 1;
nodes = (
"421 301 OFFCURVE",
"422 325 OFFCURVE",
"423 358 CURVE SMOOTH",
"424 382 LINE SMOOTH",
"425 403 OFFCURVE",
"428 419 OFFCURVE",
"428 430 CURVE SMOOTH",
"429 550 LINE",
"437 553 OFFCURVE",
"440 554 OFFCURVE",
"441 555 CURVE",
"446 556 OFFCURVE",
"460 560 OFFCURVE",
"478 560 CURVE SMOOTH",
"486 560 OFFCURVE",
"496 555 OFFCURVE",
"506 546 CURVE",
"531 518 OFFCURVE",
"541 430 OFFCURVE",
"541 395 CURVE SMOOTH",
"541 376 LINE SMOOTH",
"541 348 OFFCURVE",
"539 315 OFFCURVE",
"534 276 CURVE",
"516 185 OFFCURVE",
"499 140 OFFCURVE",
"478 121 CURVE",
"476 120 OFFCURVE",
"472 120 OFFCURVE",
"471 119 CURVE",
"468 118 OFFCURVE",
"465 117 OFFCURVE",
"460 116 CURVE SMOOTH",
"447 115 OFFCURVE",
"437 114 OFFCURVE",
"429 114 CURVE SMOOTH",
"421 114 OFFCURVE",
"418 114 OFFCURVE",
"413 115 CURVE",
"420 286 LINE SMOOTH"
);
}
);
};
layerId = "CBDECE4A-293B-4E5C-B714-A3FD26C7130D";
paths = (
{
closed = 1;
nodes = (
"426 406 LINE",
"427 416 OFFCURVE",
"428 424 OFFCURVE",
"428 430 CURVE SMOOTH",
"429 550 LINE",
"437 553 OFFCURVE",
"440 554 OFFCURVE",
"441 555 CURVE",
"446 556 OFFCURVE",
"460 560 OFFCURVE",
"478 560 CURVE SMOOTH",
"486 560 OFFCURVE",
"496 555 OFFCURVE",
"506 546 CURVE",
"531 518 OFFCURVE",
"541 430 OFFCURVE",
"541 395 CURVE SMOOTH",
"541 376 LINE SMOOTH",
"541 348 OFFCURVE",
"539 315 OFFCURVE",
"534 276 CURVE",
"516 185 OFFCURVE",
"499 140 OFFCURVE",
"478 121 CURVE",
"476 120 OFFCURVE",
"472 120 OFFCURVE",
"471 119 CURVE",
"468 118 OFFCURVE",
"465 117 OFFCURVE",
"460 116 CURVE SMOOTH",
"447 115 OFFCURVE",
"437 114 OFFCURVE",
"429 114 CURVE SMOOTH",
"421 114 OFFCURVE",
"418 114 OFFCURVE",
"413 115 CURVE",
"420 274 LINE",
"459 274 LINE SMOOTH",
"473 275 OFFCURVE",
"485 283 OFFCURVE",
"485 300 CURVE SMOOTH",
"485 323 LINE SMOOTH",
"485 328 OFFCURVE",
"486 335 OFFCURVE",
"486 342 CURVE SMOOTH",
"489 394 LINE SMOOTH",
"489 397 OFFCURVE",
"480 406 OFFCURVE",
"468 406 CURVE SMOOTH"
);
},
{
closed = 1;
nodes = (
"30 368 OFFCURVE",
"30 354 OFFCURVE",
"31 340 CURVE SMOOTH",
"31 284 LINE SMOOTH",
"31 279 OFFCURVE",
"40 274 OFFCURVE",
"54 271 CURVE",
"60 271 OFFCURVE",
"77 269 OFFCURVE",
"96 269 CURVE",
"96 252 OFFCURVE",
"97 235 OFFCURVE",
"97 218 CURVE SMOOTH",
"98 173 OFFCURVE",
"99 121 OFFCURVE",
"99 63 CURVE SMOOTH",
"99 46 OFFCURVE",
"101 32 OFFCURVE",
"104 23 CURVE SMOOTH",
"107 8 OFFCURVE",
"115 1 OFFCURVE",
"126 1 CURVE SMOOTH",
"411 -1 LINE SMOOTH",
"576 -2 OFFCURVE",
"683 24 OFFCURVE",
"751 83 CURVE SMOOTH",
"819 142 OFFCURVE",
"849 233 OFFCURVE",
"849 373 CURVE SMOOTH",
"849 447 OFFCURVE",
"833 509 OFFCURVE",
"800 560 CURVE SMOOTH",
"745 644 OFFCURVE",
"654 673 OFFCURVE",
"571 673 CURVE SMOOTH",
"547 673 OFFCURVE",
"514 672 OFFCURVE",
"473 671 CURVE SMOOTH",
"436 670 LINE SMOOTH",
"408 669 OFFCURVE",
"369 669 OFFCURVE",
"319 669 CURVE SMOOTH",
"286 669 OFFCURVE",
"258 669 OFFCURVE",
"236 670 CURVE SMOOTH",
"120 671 LINE SMOOTH",
"108 671 OFFCURVE",
"94 657 OFFCURVE",
"94 645 CURVE SMOOTH",
"94 425 LINE",
"94 408 LINE",
"57 408 LINE SMOOTH",
"44 408 OFFCURVE",
"30 398 OFFCURVE",
"30 394 CURVE SMOOTH"
);
}
);
width = 869;
}
);
leftKerningGroup = H;
leftMetricsKey = "=D";
note = Eth;
rightKerningGroup = O;
rightMetricsKey = "=D";
unicode = 00D0;
},
{
color = 6;
glyphname = E;
lastChange = "2023-02-22 08:59:45 +0000";
layers = (
{
anchors = (
{
name = bottom;
position = "{320, 0}";
},
{
name = ogonek;
position = "{584, 0}";
},
{
name = top;
position = "{320, 655}";
},
{
name = topleft;
position = "{15, 676}";
}
);
background = {
anchors = (
{
name = bottom;
position = "{320, 0}";
},
{
name = ogonek;
position = "{634, 5}";
},
{
name = top;
position = "{320, 676}";
},
{
name = topleft;
position = "{15, 676}";
}
);
paths = (
{
closed = 1;
nodes = (
"305 -4 OFFCURVE",
"408 -3 OFFCURVE",
"479 -3 CURVE SMOOTH",
"510 -3 OFFCURVE",
"535 -3 OFFCURVE",
"550 -2 CURVE SMOOTH",
"578 0 OFFCURVE",
"603 1 OFFCURVE",
"621 1 CURVE SMOOTH",
"632 1 OFFCURVE",
"640 8 OFFCURVE",
"640 22 CURVE SMOOTH",
"640 27 OFFCURVE",
"639 32 OFFCURVE",
"638 37 CURVE SMOOTH",
"630 77 OFFCURVE",
"617 139 OFFCURVE",
"610 152 CURVE",
"606 158 OFFCURVE",
"605 159 OFFCURVE",
"602 159 CURVE SMOOTH",
"562 159 OFFCURVE",
"529 158 OFFCURVE",
"507 157 CURVE",
"485 155 OFFCURVE",
"453 154 OFFCURVE",
"360 154 CURVE",
"360 171 OFFCURVE",
"360 185 OFFCURVE",
"362 193 CURVE",
"364 248 OFFCURVE",
"359 244 OFFCURVE",
"380 249 CURVE SMOOTH",
"384 250 OFFCURVE",
"396 250 OFFCURVE",
"415 250 CURVE",
"425 249 OFFCURVE",
"447 249 OFFCURVE",
"480 249 CURVE SMOOTH",
"520 249 OFFCURVE",
"547 250 OFFCURVE",
"562 254 CURVE",
"585 255 OFFCURVE",
"596 263 OFFCURVE",
"596 274 CURVE SMOOTH",
"596 277 LINE",
"594 376 LINE",
"592 385 OFFCURVE",
"589 396 OFFCURVE",
"571 398 CURVE",
"561 398 LINE",
"527 402 OFFCURVE",
"497 404 OFFCURVE",
"472 404 CURVE SMOOTH",
"383 404 LINE SMOOTH",
"369 404 OFFCURVE",
"365 407 OFFCURVE",
"365 425 CURVE",
"367 459 LINE SMOOTH",
"368 471 OFFCURVE",
"373 471 OFFCURVE",
"377 480 CURVE",
"380 487 OFFCURVE",
"383 491 OFFCURVE",
"385 491 CURVE",
"398 492 OFFCURVE",
"415 493 OFFCURVE",
"437 496 CURVE",
"489 500 LINE",
"531 506 OFFCURVE",
"565 507 OFFCURVE",
"594 507 CURVE SMOOTH",
"597 507 OFFCURVE",
"602 507 OFFCURVE",
"605 506 CURVE",
"612 506 OFFCURVE",
"615 509 OFFCURVE",
"616 515 CURVE",
"616 516 OFFCURVE",
"616 519 OFFCURVE",
"617 523 CURVE",
"617 526 OFFCURVE",
"617 530 OFFCURVE",
"616 534 CURVE",
"613 549 OFFCURVE",
"610 561 OFFCURVE",
"608 591 CURVE",
"605 610 OFFCURVE",
"603 622 OFFCURVE",
"601 628 CURVE",
"596 652 OFFCURVE",
"589 665 OFFCURVE",
"578 665 CURVE",
"549 667 OFFCURVE",
"508 671 OFFCURVE",
"452 671 CURVE SMOOTH",
"408 671 LINE SMOOTH",
"367 671 OFFCURVE",
"309 670 OFFCURVE",
"230 669 CURVE",
"205 666 OFFCURVE",
"165 666 OFFCURVE",
"111 666 CURVE SMOOTH",
"89 666 OFFCURVE",
"71 665 OFFCURVE",
"62 664 CURVE",
"44 658 OFFCURVE",
"37 653 OFFCURVE",
"37 646 CURVE",
"30 567 OFFCURVE",
"30 473 OFFCURVE",
"30 390 CURVE SMOOTH",
"30 344 OFFCURVE",
"30 315 OFFCURVE",
"31 301 CURVE SMOOTH",
"32 287 OFFCURVE",
"30 267 OFFCURVE",
"32 242 CURVE SMOOTH",
"34 212 LINE SMOOTH",
"35 193 OFFCURVE",
"35 179 OFFCURVE",
"35 167 CURVE",
"37 125 LINE",
"38 113 OFFCURVE",
"41 99 OFFCURVE",
"41 78 CURVE",
"43 50 OFFCURVE",
"44 27 OFFCURVE",
"44 10 CURVE",
"43 9 OFFCURVE",
"44 9 OFFCURVE",
"44 8 CURVE",
"45 7 OFFCURVE",
"49 5 OFFCURVE",
"52 5 CURVE",
"73 0 LINE",
"82 -2 OFFCURVE",
"90 -2 OFFCURVE",
"97 -3 CURVE SMOOTH",
"104 -4 OFFCURVE",
"109 -4 OFFCURVE",
"112 -4 CURVE SMOOTH",
"270 -4 LINE SMOOTH"
);
}
);
};
layerId = "CBDECE4A-293B-4E5C-B714-A3FD26C7130D";
paths = (
{
closed = 1;
nodes = (
"305 -4 OFFCURVE",
"408 -3 OFFCURVE",
"479 -3 CURVE SMOOTH",
"531 -3 OFFCURVE",
"540 -3 OFFCURVE",
"550 -2 CURVE SMOOTH",
"576 0 OFFCURVE",
"601 1 OFFCURVE",
"621 1 CURVE SMOOTH",
"633 1 OFFCURVE",
"640 9 OFFCURVE",
"640 22 CURVE SMOOTH",
"640 28 OFFCURVE",
"640 32 OFFCURVE",
"638 37 CURVE SMOOTH",
"624 104 OFFCURVE",
"615 143 OFFCURVE",
"610 152 CURVE SMOOTH",
"606 158 OFFCURVE",
"605 159 OFFCURVE",
"602 159 CURVE SMOOTH",
"576 159 OFFCURVE",
"545 158 OFFCURVE",
"507 157 CURVE SMOOTH",
"481 155 OFFCURVE",
"440 154 OFFCURVE",
"360 154 CURVE",
"360 183 OFFCURVE",
"360 188 OFFCURVE",
"362 193 CURVE",
"364 248 OFFCURVE",
"359 244 OFFCURVE",
"380 249 CURVE SMOOTH",
"383 250 OFFCURVE",
"387 250 OFFCURVE",
"415 250 CURVE SMOOTH",
"422 249 OFFCURVE",
"430 249 OFFCURVE",
"480 249 CURVE SMOOTH",
"529 249 OFFCURVE",
"550 250 OFFCURVE",
"562 254 CURVE",
"584 255 OFFCURVE",
"596 262 OFFCURVE",
"596 274 CURVE SMOOTH",
"596 277 LINE",
"594 376 LINE",
"591 391 OFFCURVE",
"584 398 OFFCURVE",
"571 398 CURVE SMOOTH",
"561 398 LINE",
"527 402 OFFCURVE",
"497 404 OFFCURVE",
"472 404 CURVE SMOOTH",
"383 404 LINE SMOOTH",
"368 404 OFFCURVE",
"364 408 OFFCURVE",
"365 425 CURVE SMOOTH",
"367 459 LINE SMOOTH",
"368 471 OFFCURVE",
"373 471 OFFCURVE",
"377 480 CURVE SMOOTH",
"380 487 OFFCURVE",
"383 491 OFFCURVE",
"385 491 CURVE SMOOTH",
"437 496 LINE",
"489 500 LINE SMOOTH",
"531 503 OFFCURVE",
"565 507 OFFCURVE",
"594 507 CURVE SMOOTH",
"602 507 OFFCURVE",
"603 507 OFFCURVE",
"605 506 CURVE",
"612 506 OFFCURVE",
"615 509 OFFCURVE",
"616 515 CURVE SMOOTH",
"616 520 OFFCURVE",
"616 522 OFFCURVE",
"617 523 CURVE SMOOTH",
"617 530 OFFCURVE",
"617 532 OFFCURVE",
"616 534 CURVE SMOOTH",
"613 549 OFFCURVE",
"610 561 OFFCURVE",
"608 591 CURVE SMOOTH",
"604 614 OFFCURVE",
"603 623 OFFCURVE",
"601 628 CURVE SMOOTH",
"596 652 OFFCURVE",
"588 665 OFFCURVE",
"578 665 CURVE SMOOTH",
"549 667 OFFCURVE",
"508 671 OFFCURVE",
"452 671 CURVE SMOOTH",
"408 671 LINE SMOOTH",
"367 671 OFFCURVE",
"309 670 OFFCURVE",
"230 669 CURVE",
"205 666 OFFCURVE",
"165 666 OFFCURVE",
"111 666 CURVE SMOOTH",
"95 666 OFFCURVE",
"75 665 OFFCURVE",
"62 664 CURVE",
"44 658 OFFCURVE",
"37 653 OFFCURVE",
"37 646 CURVE SMOOTH",
"32 587 OFFCURVE",
"30 517 OFFCURVE",
"30 390 CURVE SMOOTH",
"30 321 OFFCURVE",
"30 311 OFFCURVE",
"31 301 CURVE SMOOTH",
"32 287 OFFCURVE",
"30 267 OFFCURVE",
"32 242 CURVE SMOOTH",
"34 212 LINE SMOOTH",
"35 193 OFFCURVE",
"34 179 OFFCURVE",
"35 167 CURVE SMOOTH",
"37 125 LINE SMOOTH",
"38 113 OFFCURVE",
"41 99 OFFCURVE",
"41 78 CURVE SMOOTH",
"43 50 OFFCURVE",
"44 27 OFFCURVE",
"44 10 CURVE",
"43 9 OFFCURVE",
"44 9 OFFCURVE",
"44 8 CURVE",
"45 7 OFFCURVE",
"50 5 OFFCURVE",
"52 5 CURVE",
"73 0 LINE SMOOTH",
"82 -2 OFFCURVE",
"90 -2 OFFCURVE",
"97 -3 CURVE SMOOTH",
"101 -4 OFFCURVE",
"105 -4 OFFCURVE",
"112 -4 CURVE SMOOTH",
"270 -4 LINE SMOOTH"
);
}
);
width = 645;
}
);
leftKerningGroup = H;
leftMetricsKey = "=H";
note = E;
rightKerningGroup = E;
unicode = 0045;
},
{
color = 6;
glyphname = Schwa;
lastChange = "2023-02-22 08:59:45 +0000";
layers = (
{
anchors = (
{
name = bottom;
position = "{430, 0}";
},
{
name = top;
position = "{430, 655}";
}
);
background = {
paths = (
{
closed = 1;
nodes = (
"573 -14 LINE SMOOTH",
"618 -9 OFFCURVE",
"660 10 OFFCURVE",
"697 42 CURVE SMOOTH",
"771 105 OFFCURVE",
"814 205 OFFCURVE",
"814 305 CURVE",
"813 388 LINE",
"813 437 OFFCURVE",
"801 483 OFFCURVE",
"778 525 CURVE SMOOTH",
"730 609 OFFCURVE",
"644 665 OFFCURVE",
"545 676 CURVE SMOOTH",
"454 686 LINE",
"321 688 LINE SMOOTH",
"260 688 OFFCURVE",
"150 674 OFFCURVE",
"95 661 CURVE",
"78 638 LINE",
"78 493 LINE",
"94 475 LINE",
"120 480 LINE SMOOTH",
"169 491 OFFCURVE",
"208 497 OFFCURVE",
"236 498 CURVE SMOOTH",
"308 503 LINE",
"329 503 LINE",
"343 500 OFFCURVE",
"352 499 OFFCURVE",
"357 498 CURVE",
"360 497 OFFCURVE",
"367 496 OFFCURVE",
"380 494 CURVE",
"392 491 OFFCURVE",
"403 488 OFFCURVE",
"413 483 CURVE",
"448 470 OFFCURVE",
"463 453 OFFCURVE",
"468 426 CURVE",
"473 386 LINE",
"474 355 LINE",
"433 353 LINE",
"311 351 LINE",
"65 353 LINE",
"46 333 LINE",
"46 235 LINE SMOOTH",
"46 188 OFFCURVE",
"59 145 OFFCURVE",
"85 107 CURVE SMOOTH",
"136 30 OFFCURVE",
"236 -18 OFFCURVE",
"368 -21 CURVE SMOOTH",
"494 -24 LINE"
);
},
{
closed = 1;
nodes = (
"415 73 OFFCURVE",
"403 90 OFFCURVE",
"396 125 CURVE SMOOTH",
"389 162 OFFCURVE",
"385 198 OFFCURVE",
"384 234 CURVE",
"478 241 LINE",
"478 225 OFFCURVE",
"476 208 OFFCURVE",
"473 189 CURVE SMOOTH",
"467 154 LINE SMOOTH",
"465 141 OFFCURVE",
"463 128 OFFCURVE",
"461 117 CURVE SMOOTH",
"456 93 OFFCURVE",
"446 73 OFFCURVE",
"430 73 CURVE SMOOTH"
);
}
);
};
layerId = "CBDECE4A-293B-4E5C-B714-A3FD26C7130D";
paths = (
{
closed = 1;
nodes = (
"573 -14 LINE SMOOTH",
"618 -8 OFFCURVE",
"660 10 OFFCURVE",
"697 42 CURVE SMOOTH",
"771 105 OFFCURVE",
"814 205 OFFCURVE",
"814 305 CURVE SMOOTH",
"813 388 LINE SMOOTH",
"813 437 OFFCURVE",
"801 483 OFFCURVE",
"778 525 CURVE SMOOTH",
"730 609 OFFCURVE",
"644 665 OFFCURVE",
"545 676 CURVE SMOOTH",
"454 686 LINE",
"321 688 LINE SMOOTH",
"260 689 OFFCURVE",
"150 674 OFFCURVE",
"95 661 CURVE",
"78 638 LINE",
"78 493 LINE",
"94 475 LINE",
"120 480 LINE SMOOTH",
"169 489 OFFCURVE",
"208 496 OFFCURVE",
"236 498 CURVE SMOOTH",
"308 503 LINE",
"329 503 LINE",
"343 500 OFFCURVE",
"352 499 OFFCURVE",
"357 498 CURVE SMOOTH",
"360 497 OFFCURVE",
"367 496 OFFCURVE",
"380 494 CURVE SMOOTH",
"392 491 OFFCURVE",
"403 488 OFFCURVE",
"413 483 CURVE",
"448 470 OFFCURVE",
"463 453 OFFCURVE",
"468 426 CURVE SMOOTH",
"473 386 LINE",
"474 355 LINE",
"433 353 LINE",
"311 351 LINE",
"65 353 LINE",
"46 333 LINE",
"46 235 LINE SMOOTH",
"46 188 OFFCURVE",
"59 145 OFFCURVE",
"85 107 CURVE SMOOTH",
"136 30 OFFCURVE",
"236 -18 OFFCURVE",
"368 -21 CURVE SMOOTH",
"494 -24 LINE"
);
},
{
closed = 1;
nodes = (
"415 73 OFFCURVE",
"403 90 OFFCURVE",
"396 125 CURVE SMOOTH",
"389 162 OFFCURVE",
"385 198 OFFCURVE",
"384 234 CURVE",
"478 241 LINE",
"478 225 OFFCURVE",
"476 208 OFFCURVE",
"473 189 CURVE SMOOTH",
"467 154 LINE",
"461 117 LINE SMOOTH",
"456 93 OFFCURVE",
"446 73 OFFCURVE",
"430 73 CURVE SMOOTH"
);
}
);
width = 859;
}
);
leftKerningGroup = O;
note = uni018F;
rightKerningGroup = O;
unicode = 018F;
},
{
color = 6;
glyphname = F;
lastChange = "2023-02-22 08:59:45 +0000";
layers = (
{
anchors = (
{
name = bottom;
position = "{286, 0}";
},
{
name = top;
position = "{286, 655}";
}
);
background = {
anchors = (
{
name = bottom;
position = "{286, 0}";
},
{
name = top;
position = "{286, 676}";
}
);
paths = (
{
closed = 1;
nodes = (
"151 -2 LINE",
"154 -1 OFFCURVE",
"157 0 OFFCURVE",
"160 1 CURVE",
"162 1 OFFCURVE",
"163 1 OFFCURVE",
"164 2 CURVE",
"243 -8 LINE",
"246 -5 OFFCURVE",
"250 -4 OFFCURVE",
"251 -4 CURVE SMOOTH",
"253 -4 OFFCURVE",
"254 -4 OFFCURVE",
"254 -5 CURVE",
"257 -6 LINE",
"258 -6 OFFCURVE",
"260 -6 OFFCURVE",
"261 -7 CURVE SMOOTH",
"262 -8 OFFCURVE",
"264 -8 OFFCURVE",
"267 -8 CURVE SMOOTH",
"269 -8 LINE",
"277 -8 LINE",
"280 -7 OFFCURVE",
"286 -6 OFFCURVE",
"297 -6 CURVE",
"319 -5 OFFCURVE",
"336 -4 OFFCURVE",
"348 -4 CURVE",
"353 10 OFFCURVE",
"355 32 OFFCURVE",
"357 61 CURVE SMOOTH",
"357 83 OFFCURVE",
"359 122 OFFCURVE",
"359 180 CURVE",
"362 186 OFFCURVE",
"366 189 OFFCURVE",
"368 190 CURVE",
"371 193 OFFCURVE",
"378 194 OFFCURVE",
"388 194 CURVE SMOOTH",
"401 194 LINE",
"409 195 OFFCURVE",
"415 196 OFFCURVE",
"420 197 CURVE",
"423 198 OFFCURVE",
"430 199 OFFCURVE",
"440 199 CURVE SMOOTH",
"459 199 LINE",
"500 201 LINE",
"505 202 OFFCURVE",
"510 203 OFFCURVE",
"515 203 CURVE SMOOTH",
"523 203 OFFCURVE",
"527 206 OFFCURVE",
"530 218 CURVE",
"530 242 LINE",
"530 299 LINE SMOOTH",
"530 329 OFFCURVE",
"529 348 OFFCURVE",
"526 356 CURVE SMOOTH",
"522 367 OFFCURVE",
"516 370 OFFCURVE",
"500 370 CURVE SMOOTH",
"386 370 LINE",
"383 373 OFFCURVE",
"382 376 OFFCURVE",
"382 379 CURVE",
"383 381 LINE",
"383 423 OFFCURVE",
"388 487 OFFCURVE",
"389 496 CURVE",
"389 498 OFFCURVE",
"389 500 OFFCURVE",
"390 501 CURVE SMOOTH",
"391 502 OFFCURVE",
"391 504 OFFCURVE",
"391 505 CURVE",
"392 505 OFFCURVE",
"393 505 OFFCURVE",
"394 506 CURVE SMOOTH",
"395 507 OFFCURVE",
"396 507 OFFCURVE",
"398 508 CURVE",
"399 507 OFFCURVE",
"407 507 OFFCURVE",
"421 507 CURVE SMOOTH",
"435 507 OFFCURVE",
"445 508 OFFCURVE",
"451 510 CURVE",
"479 511 LINE",
"522 511 LINE",
"536 511 LINE SMOOTH",
"551 511 OFFCURVE",
"569 510 OFFCURVE",
"569 523 CURVE SMOOTH",
"569 545 OFFCURVE",
"570 561 OFFCURVE",
"570 572 CURVE SMOOTH",
"570 584 OFFCURVE",
"572 601 OFFCURVE",
"572 605 CURVE SMOOTH",
"572 610 OFFCURVE",
"571 617 OFFCURVE",
"570 623 CURVE",
"569 650 OFFCURVE",
"561 664 OFFCURVE",
"547 664 CURVE",
"545 662 OFFCURVE",
"543 661 OFFCURVE",
"540 661 CURVE SMOOTH",
"533 661 OFFCURVE",
"527 662 OFFCURVE",
"522 663 CURVE",
"519 664 OFFCURVE",
"515 664 OFFCURVE",
"510 664 CURVE SMOOTH",
"482 664 OFFCURVE",
"464 665 OFFCURVE",
"452 666 CURVE",
"354 666 LINE",
"344 667 OFFCURVE",
"328 667 OFFCURVE",
"308 667 CURVE SMOOTH",
"299 667 LINE",
"281 667 LINE SMOOTH",
"273 667 OFFCURVE",
"268 667 OFFCURVE",
"264 668 CURVE",
"254 668 LINE SMOOTH",
"221 668 OFFCURVE",
"180 667 OFFCURVE",
"133 666 CURVE SMOOTH",
"96 665 OFFCURVE",
"68 663 OFFCURVE",
"46 663 CURVE",
"43 664 LINE",
"37 664 LINE",
"32 663 OFFCURVE",
"30 659 OFFCURVE",
"30 653 CURVE SMOOTH",
"30 323 LINE",
"31 313 OFFCURVE",
"35 284 OFFCURVE",
"35 261 CURVE",
"37 237 OFFCURVE",
"39 197 OFFCURVE",
"42 138 CURVE",
"42 118 OFFCURVE",
"43 89 OFFCURVE",
"45 67 CURVE",
"45 46 LINE SMOOTH",
"45 29 OFFCURVE",
"47 -10 OFFCURVE",
"74 -10 CURVE",
"91 -9 LINE"
);
}
);
};
layerId = "CBDECE4A-293B-4E5C-B714-A3FD26C7130D";
paths = (
{
closed = 1;
nodes = (
"151 -2 LINE",
"160 1 LINE",
"162 1 OFFCURVE",
"163 1 OFFCURVE",
"164 2 CURVE",
"243 -8 LINE",
"246 -5 OFFCURVE",
"250 -4 OFFCURVE",
"251 -4 CURVE SMOOTH",
"253 -4 OFFCURVE",
"254 -4 OFFCURVE",
"254 -5 CURVE",
"257 -6 LINE SMOOTH",
"258 -6 OFFCURVE",
"260 -6 OFFCURVE",
"261 -7 CURVE SMOOTH",
"262 -8 OFFCURVE",
"264 -8 OFFCURVE",
"267 -8 CURVE SMOOTH",
"277 -8 LINE",
"280 -7 OFFCURVE",
"286 -6 OFFCURVE",
"297 -6 CURVE SMOOTH",
"319 -5 OFFCURVE",
"336 -4 OFFCURVE",
"348 -4 CURVE",
"353 10 OFFCURVE",
"355 32 OFFCURVE",
"357 61 CURVE SMOOTH",
"357 83 OFFCURVE",
"359 122 OFFCURVE",
"359 180 CURVE",
"362 186 OFFCURVE",
"366 189 OFFCURVE",
"368 190 CURVE",
"371 193 OFFCURVE",
"378 194 OFFCURVE",
"388 194 CURVE SMOOTH",
"401 194 LINE",
"420 197 LINE",
"423 198 OFFCURVE",
"430 199 OFFCURVE",
"440 199 CURVE SMOOTH",
"459 199 LINE",
"500 201 LINE",
"505 202 OFFCURVE",
"510 203 OFFCURVE",
"515 203 CURVE SMOOTH",
"523 203 OFFCURVE",
"527 206 OFFCURVE",
"530 218 CURVE",
"530 299 LINE SMOOTH",
"530 329 OFFCURVE",
"529 348 OFFCURVE",
"526 356 CURVE SMOOTH",
"522 367 OFFCURVE",
"516 370 OFFCURVE",
"500 370 CURVE SMOOTH",
"386 370 LINE",
"383 373 OFFCURVE",
"382 376 OFFCURVE",
"382 379 CURVE",
"383 381 LINE",
"383 423 OFFCURVE",
"388 487 OFFCURVE",
"389 496 CURVE SMOOTH",
"389 498 OFFCURVE",
"389 500 OFFCURVE",
"390 501 CURVE SMOOTH",
"391 502 OFFCURVE",
"391 504 OFFCURVE",
"391 505 CURVE",
"392 505 OFFCURVE",
"393 505 OFFCURVE",
"394 506 CURVE SMOOTH",
"395 507 OFFCURVE",
"396 507 OFFCURVE",
"398 508 CURVE",
"399 507 OFFCURVE",
"407 507 OFFCURVE",
"421 507 CURVE SMOOTH",
"435 507 OFFCURVE",
"445 508 OFFCURVE",
"451 510 CURVE",
"479 511 LINE",
"536 511 LINE SMOOTH",
"551 511 OFFCURVE",
"569 510 OFFCURVE",
"569 523 CURVE SMOOTH",
"569 545 OFFCURVE",
"570 561 OFFCURVE",
"570 572 CURVE SMOOTH",
"570 584 OFFCURVE",
"572 601 OFFCURVE",
"572 605 CURVE SMOOTH",
"572 610 OFFCURVE",
"571 617 OFFCURVE",
"570 623 CURVE",
"569 650 OFFCURVE",
"561 664 OFFCURVE",
"547 664 CURVE",
"545 662 OFFCURVE",
"543 661 OFFCURVE",
"540 661 CURVE SMOOTH",
"533 661 OFFCURVE",
"527 662 OFFCURVE",
"522 663 CURVE SMOOTH",
"519 664 OFFCURVE",
"515 664 OFFCURVE",
"510 664 CURVE SMOOTH",
"482 664 OFFCURVE",
"464 665 OFFCURVE",
"452 666 CURVE",
"354 666 LINE",
"344 667 OFFCURVE",
"328 667 OFFCURVE",
"308 667 CURVE SMOOTH",
"281 667 LINE SMOOTH",
"273 667 OFFCURVE",
"268 667 OFFCURVE",
"264 668 CURVE",
"254 668 LINE SMOOTH",
"221 668 OFFCURVE",
"180 667 OFFCURVE",
"133 666 CURVE SMOOTH",
"96 665 OFFCURVE",
"68 663 OFFCURVE",
"46 663 CURVE",
"43 664 LINE",
"37 664 LINE SMOOTH",
"32 663 OFFCURVE",
"30 659 OFFCURVE",
"30 653 CURVE SMOOTH",
"30 323 LINE",
"31 313 OFFCURVE",
"35 284 OFFCURVE",
"35 261 CURVE SMOOTH",
"37 237 OFFCURVE",
"39 197 OFFCURVE",
"42 138 CURVE SMOOTH",
"42 118 OFFCURVE",
"43 89 OFFCURVE",
"45 67 CURVE SMOOTH",
"45 46 LINE SMOOTH",
"45 29 OFFCURVE",
"47 -10 OFFCURVE",
"74 -10 CURVE SMOOTH",
"91 -9 LINE"
);
}
);
width = 582;
}
);
leftKerningGroup = H;
leftMetricsKey = "=H";
note = F;
rightKerningGroup = F;
unicode = 0046;
},
{
color = 6;
glyphname = G;
lastChange = "2023-02-22 08:59:45 +0000";
layers = (
{
anchors = (
{
name = bottom;
position = "{425, -10}";
},
{
name = top;
position = "{415, 655}";
}
);
background = {
anchors = (
{
name = bottom;
position = "{425, -10}";
},
{
name = top;
position = "{415, 676}";
}
);
paths = (
{
closed = 1;
nodes = (
"733 350 OFFCURVE",
"728 358 OFFCURVE",
"711 361 CURVE SMOOTH",
"706 362 OFFCURVE",
"694 362 OFFCURVE",
"676 362 CURVE",
"668 361 OFFCURVE",
"647 361 OFFCURVE",
"616 361 CURVE SMOOTH",
"512 361 LINE SMOOTH",
"503 361 OFFCURVE",
"497 361 OFFCURVE",
"494 362 CURVE",
"484 362 OFFCURVE",
"481 359 OFFCURVE",
"481 346 CURVE SMOOTH",
"481 322 LINE SMOOTH",
"481 294 OFFCURVE",
"481 252 OFFCURVE",
"482 238 CURVE SMOOTH",
"483 219 LINE SMOOTH",
"484 199 OFFCURVE",
"485 193 OFFCURVE",
"485 183 CURVE",
"464 165 OFFCURVE",
"465 159 OFFCURVE",
"449 159 CURVE SMOOTH",
"421 159 OFFCURVE",
"391 173 OFFCURVE",
"377 195 CURVE",
"362 215 OFFCURVE",
"352 251 OFFCURVE",
"352 342 CURVE SMOOTH",
"352 456 OFFCURVE",
"402 489 OFFCURVE",
"483 489 CURVE SMOOTH",
"484 489 OFFCURVE",
"484 490 OFFCURVE",
"485 490 CURVE",
"485 489 LINE",
"485 489 OFFCURVE",
"485 489 OFFCURVE",
"485 490 CURVE",
"512 493 OFFCURVE",
"528 488 OFFCURVE",
"550 488 CURVE SMOOTH",
"564 488 LINE",
"674 468 LINE",
"690 480 OFFCURVE",
"696 498 OFFCURVE",
"696 530 CURVE SMOOTH",
"696 546 OFFCURVE",
"694 564 OFFCURVE",
"691 595 CURVE",
"689 605 OFFCURVE",
"689 616 OFFCURVE",
"689 626 CURVE",
"687 644 LINE",
"685 644 LINE SMOOTH",
"681 644 OFFCURVE",
"680 646 OFFCURVE",
"677 650 CURVE",
"676 651 OFFCURVE",
"674 653 OFFCURVE",
"673 655 CURVE",
"671 656 OFFCURVE",
"670 657 OFFCURVE",
"670 657 CURVE SMOOTH",
"661 657 OFFCURVE",
"644 661 OFFCURVE",
"621 665 CURVE SMOOTH",
"591 670 LINE",
"580 672 OFFCURVE",
"572 673 OFFCURVE",
"567 673 CURVE",
"509 681 OFFCURVE",
"471 684 OFFCURVE",
"440 684 CURVE",
"318 684 OFFCURVE",
"201 652 OFFCURVE",
"134 596 CURVE SMOOTH",
"63 536 OFFCURVE",
"20 452 OFFCURVE",
"20 346 CURVE SMOOTH",
"20 159 OFFCURVE",
"90 50 OFFCURVE",
"181 10 CURVE",
"222 -12 OFFCURVE",
"268 -24 OFFCURVE",
"320 -24 CURVE SMOOTH",
"416 -24 OFFCURVE",
"478 13 OFFCURVE",
"491 75 CURVE",
"492 61 OFFCURVE",
"493 49 OFFCURVE",
"494 42 CURVE",
"496 28 OFFCURVE",
"499 15 OFFCURVE",
"503 3 CURVE",
"505 -2 OFFCURVE",
"508 -3 OFFCURVE",
"510 -3 CURVE SMOOTH",
"513 -3 OFFCURVE",
"517 -3 OFFCURVE",
"518 -2 CURVE",
"643 -2 LINE",
"644 -2 LINE",
"644 -1 OFFCURVE",
"644 -1 OFFCURVE",
"645 0 CURVE",
"649 0 LINE",
"649 -1 OFFCURVE",
"649 0 OFFCURVE",
"651 -2 CURVE SMOOTH",
"652 -3 OFFCURVE",
"654 -2 OFFCURVE",
"661 -2 CURVE SMOOTH",
"663 -2 LINE",
"682 -2 LINE",
"691 -1 OFFCURVE",
"706 0 OFFCURVE",
"722 0 CURVE",
"728 15 OFFCURVE",
"731 51 OFFCURVE",
"731 132 CURVE SMOOTH",
"731 136 LINE SMOOTH",
"731 142 OFFCURVE",
"733 149 OFFCURVE",
"734 154 CURVE",
"734 326 LINE",
"733 328 OFFCURVE",
"733 331 OFFCURVE",
"733 334 CURVE SMOOTH"
);
}
);
};
layerId = "CBDECE4A-293B-4E5C-B714-A3FD26C7130D";
paths = (
{
closed = 1;
nodes = (
"733 350 OFFCURVE",
"728 358 OFFCURVE",
"711 361 CURVE SMOOTH",
"706 362 OFFCURVE",
"694 362 OFFCURVE",
"676 362 CURVE SMOOTH",
"668 361 OFFCURVE",
"647 361 OFFCURVE",
"616 361 CURVE SMOOTH",
"512 361 LINE SMOOTH",
"503 361 OFFCURVE",
"497 361 OFFCURVE",
"494 362 CURVE",
"484 362 OFFCURVE",
"481 359 OFFCURVE",
"481 346 CURVE SMOOTH",
"481 322 LINE SMOOTH",
"481 294 OFFCURVE",
"481 252 OFFCURVE",
"482 238 CURVE SMOOTH",
"483 219 LINE SMOOTH",
"484 199 OFFCURVE",
"485 193 OFFCURVE",
"485 183 CURVE",
"464 165 OFFCURVE",
"465 159 OFFCURVE",
"449 159 CURVE SMOOTH",
"421 159 OFFCURVE",
"391 173 OFFCURVE",
"377 195 CURVE SMOOTH",
"362 215 OFFCURVE",
"352 251 OFFCURVE",
"352 342 CURVE SMOOTH",
"352 456 OFFCURVE",
"402 489 OFFCURVE",
"483 489 CURVE SMOOTH",
"484 489 OFFCURVE",
"484 490 OFFCURVE",
"485 490 CURVE",
"485 489 LINE",
"485 490 LINE",
"512 493 OFFCURVE",
"528 488 OFFCURVE",
"550 488 CURVE SMOOTH",
"564 488 LINE",
"674 468 LINE",
"690 480 OFFCURVE",
"696 498 OFFCURVE",
"696 530 CURVE SMOOTH",
"696 546 OFFCURVE",
"694 564 OFFCURVE",
"691 595 CURVE SMOOTH",
"689 605 OFFCURVE",
"689 616 OFFCURVE",
"689 626 CURVE SMOOTH",
"687 644 LINE",
"685 644 LINE SMOOTH",
"681 644 OFFCURVE",
"680 646 OFFCURVE",
"677 650 CURVE SMOOTH",
"676 651 OFFCURVE",
"674 653 OFFCURVE",
"673 655 CURVE",
"670 657 LINE",
"661 657 OFFCURVE",
"644 661 OFFCURVE",
"621 665 CURVE SMOOTH",
"591 670 LINE SMOOTH",
"580 672 OFFCURVE",
"572 673 OFFCURVE",
"567 673 CURVE",
"509 681 OFFCURVE",
"471 684 OFFCURVE",
"440 684 CURVE SMOOTH",
"318 684 OFFCURVE",
"201 652 OFFCURVE",
"134 596 CURVE SMOOTH",
"63 536 OFFCURVE",
"20 452 OFFCURVE",
"20 346 CURVE SMOOTH",
"20 159 OFFCURVE",
"90 50 OFFCURVE",
"181 10 CURVE",
"222 -12 OFFCURVE",
"268 -24 OFFCURVE",
"320 -24 CURVE SMOOTH",
"416 -24 OFFCURVE",
"478 13 OFFCURVE",
"491 75 CURVE",
"492 61 OFFCURVE",
"493 49 OFFCURVE",
"494 42 CURVE SMOOTH",
"496 28 OFFCURVE",
"499 15 OFFCURVE",
"503 3 CURVE SMOOTH",
"505 -2 OFFCURVE",
"508 -3 OFFCURVE",
"510 -3 CURVE SMOOTH",
"513 -3 OFFCURVE",
"517 -3 OFFCURVE",
"518 -2 CURVE",
"644 -2 LINE",
"644 -1 OFFCURVE",
"644 -1 OFFCURVE",
"645 0 CURVE",
"649 0 LINE",
"649 -1 OFFCURVE",
"649 0 OFFCURVE",
"651 -2 CURVE SMOOTH",
"652 -3 OFFCURVE",
"654 -2 OFFCURVE",
"661 -2 CURVE SMOOTH",
"682 -2 LINE SMOOTH",
"691 -1 OFFCURVE",
"706 0 OFFCURVE",
"722 0 CURVE",
"728 15 OFFCURVE",
"731 51 OFFCURVE",
"731 132 CURVE SMOOTH",
"731 136 LINE SMOOTH",
"731 142 OFFCURVE",
"733 149 OFFCURVE",
"734 154 CURVE",
"734 326 LINE",
"733 328 OFFCURVE",
"733 331 OFFCURVE",
"733 334 CURVE SMOOTH"
);
}
);
width = 759;
}
);
leftKerningGroup = O;
leftMetricsKey = "=O";
note = G;
rightKerningGroup = G;
unicode = 0047;
},
{
color = 6;
glyphname = H;
lastChange = "2023-02-22 08:59:45 +0000";
layers = (
{
anchors = (
{
name = bottom;
position = "{440, 0}";
},
{
name = center;
position = "{440, 338}";
},
{
name = top;
position = "{440, 655}";
},
{
name = topleft;
position = "{20, 676}";
}
);
background = {
anchors = (
{
name = bottom;
position = "{440, 0}";
},
{
name = center;
position = "{440, 338}";
},
{
name = top;
position = "{440, 676}";
},
{
name = topleft;
position = "{20, 676}";
}
);
paths = (
{
closed = 1;
nodes = (
"259 -4 OFFCURVE",
"294 -3 OFFCURVE",
"346 0 CURVE SMOOTH",
"362 1 LINE",
"383 8 OFFCURVE",
"383 57 OFFCURVE",
"383 68 CURVE",
"383 90 OFFCURVE",
"383 142 OFFCURVE",
"383 225 CURVE SMOOTH",
"383 237 OFFCURVE",
"386 242 OFFCURVE",
"391 242 CURVE SMOOTH",
"400 242 LINE SMOOTH",
"407 242 OFFCURVE",
"422 241 OFFCURVE",
"446 240 CURVE",
"458 239 OFFCURVE",
"471 239 OFFCURVE",
"490 239 CURVE SMOOTH",
"497 239 LINE",
"508 54 LINE",
"509 45 OFFCURVE",
"510 38 OFFCURVE",
"511 33 CURVE SMOOTH",
"513 21 OFFCURVE",
"514 14 OFFCURVE",
"518 6 CURVE",
"520 4 OFFCURVE",
"522 1 OFFCURVE",
"524 1 CURVE SMOOTH",
"799 1 LINE SMOOTH",
"808 1 OFFCURVE",
"822 17 OFFCURVE",
"822 23 CURVE",
"847 393 LINE",
"847 395 OFFCURVE",
"847 396 OFFCURVE",
"847 397 CURVE",
"846 400 OFFCURVE",
"844 405 OFFCURVE",
"844 413 CURVE SMOOTH",
"844 439 OFFCURVE",
"845 473 OFFCURVE",
"847 515 CURVE",
"848 560 OFFCURVE",
"849 594 OFFCURVE",
"849 620 CURVE SMOOTH",
"849 640 OFFCURVE",
"847 649 OFFCURVE",
"838 655 CURVE",
"834 658 OFFCURVE",
"823 660 OFFCURVE",
"807 660 CURVE SMOOTH",
"780 660 LINE",
"763 659 OFFCURVE",
"727 658 OFFCURVE",
"674 658 CURVE SMOOTH",
"617 658 LINE",
"604 657 OFFCURVE",
"588 656 OFFCURVE",
"569 656 CURVE",
"543 656 LINE",
"526 656 OFFCURVE",
"518 655 OFFCURVE",
"514 654 CURVE",
"509 654 OFFCURVE",
"504 650 OFFCURVE",
"499 645 CURVE",
"496 637 OFFCURVE",
"495 619 OFFCURVE",
"495 600 CURVE SMOOTH",
"495 591 LINE",
"494 550 LINE SMOOTH",
"494 539 OFFCURVE",
"494 531 OFFCURVE",
"493 524 CURVE",
"492 456 LINE",
"480 456 OFFCURVE",
"471 457 OFFCURVE",
"465 458 CURVE",
"453 458 OFFCURVE",
"426 459 OFFCURVE",
"410 463 CURVE",
"383 463 LINE",
"384 504 LINE",
"385 512 OFFCURVE",
"385 525 OFFCURVE",
"385 542 CURVE SMOOTH",
"385 548 OFFCURVE",
"385 550 OFFCURVE",
"384 553 CURVE SMOOTH",
"383 556 OFFCURVE",
"383 557 OFFCURVE",
"383 561 CURVE",
"383 574 LINE",
"385 589 LINE",
"385 592 OFFCURVE",
"385 593 OFFCURVE",
"386 597 CURVE SMOOTH",
"387 601 OFFCURVE",
"387 602 OFFCURVE",
"387 605 CURVE SMOOTH",
"387 615 LINE SMOOTH",
"387 650 OFFCURVE",
"374 658 OFFCURVE",
"340 658 CURVE SMOOTH",
"325 658 LINE",
"288 658 LINE",
"241 658 LINE",
"231 659 OFFCURVE",
"213 659 OFFCURVE",
"195 659 CURVE SMOOTH",
"178 659 OFFCURVE",
"165 659 OFFCURVE",
"158 660 CURVE",
"141 660 LINE",
"84 660 LINE SMOOTH",
"71 660 OFFCURVE",
"61 657 OFFCURVE",
"55 651 CURVE",
"53 649 OFFCURVE",
"49 646 OFFCURVE",
"46 644 CURVE",
"42 641 OFFCURVE",
"39 638 OFFCURVE",
"38 637 CURVE",
"38 637 OFFCURVE",
"38 636 OFFCURVE",
"38 634 CURVE",
"36 631 OFFCURVE",
"36 628 OFFCURVE",
"36 620 CURVE",
"35 602 OFFCURVE",
"34 583 OFFCURVE",
"34 563 CURVE",
"34 556 OFFCURVE",
"34 547 OFFCURVE",
"34 533 CURVE",
"32 481 LINE",
"32 460 OFFCURVE",
"32 445 OFFCURVE",
"31 432 CURVE SMOOTH",
"30 422 OFFCURVE",
"30 413 OFFCURVE",
"30 408 CURVE SMOOTH",
"30 387 LINE",
"49 35 LINE",
"49 28 OFFCURVE",
"55 9 OFFCURVE",
"60 9 CURVE",
"108 -4 OFFCURVE",
"154 -5 OFFCURVE",
"238 -5 CURVE"
);
}
);
};
layerId = "CBDECE4A-293B-4E5C-B714-A3FD26C7130D";
paths = (
{
closed = 1;
nodes = (
"259 -4 OFFCURVE",
"294 -3 OFFCURVE",
"346 0 CURVE SMOOTH",
"362 1 LINE",
"383 8 OFFCURVE",
"383 57 OFFCURVE",
"383 68 CURVE SMOOTH",
"383 225 LINE SMOOTH",
"383 237 OFFCURVE",
"386 242 OFFCURVE",
"391 242 CURVE SMOOTH",
"400 242 LINE SMOOTH",
"407 242 OFFCURVE",
"422 241 OFFCURVE",
"446 240 CURVE SMOOTH",
"458 239 OFFCURVE",
"471 239 OFFCURVE",
"490 239 CURVE SMOOTH",
"497 239 LINE",
"508 54 LINE",
"511 33 LINE SMOOTH",
"513 21 OFFCURVE",
"514 14 OFFCURVE",
"518 6 CURVE",
"520 4 OFFCURVE",
"522 1 OFFCURVE",
"524 1 CURVE SMOOTH",
"799 1 LINE SMOOTH",
"808 1 OFFCURVE",
"822 17 OFFCURVE",
"822 23 CURVE SMOOTH",
"847 393 LINE",
"847 397 LINE",
"846 400 OFFCURVE",
"844 405 OFFCURVE",
"844 413 CURVE SMOOTH",
"844 439 OFFCURVE",
"845 473 OFFCURVE",
"847 515 CURVE SMOOTH",
"848 560 OFFCURVE",
"849 594 OFFCURVE",
"849 620 CURVE SMOOTH",
"849 640 OFFCURVE",
"847 649 OFFCURVE",
"838 655 CURVE SMOOTH",
"834 658 OFFCURVE",
"823 660 OFFCURVE",
"807 660 CURVE SMOOTH",
"780 660 LINE SMOOTH",
"763 659 OFFCURVE",
"727 658 OFFCURVE",
"674 658 CURVE SMOOTH",
"617 658 LINE SMOOTH",
"604 657 OFFCURVE",
"588 656 OFFCURVE",
"569 656 CURVE SMOOTH",
"543 656 LINE SMOOTH",
"526 656 OFFCURVE",
"518 655 OFFCURVE",
"514 654 CURVE",
"509 654 OFFCURVE",
"504 650 OFFCURVE",
"499 645 CURVE",
"496 637 OFFCURVE",
"495 619 OFFCURVE",
"495 600 CURVE SMOOTH",
"495 591 LINE",
"494 550 LINE SMOOTH",
"494 539 OFFCURVE",
"494 531 OFFCURVE",
"493 524 CURVE",
"492 456 LINE",
"480 456 OFFCURVE",
"471 457 OFFCURVE",
"465 458 CURVE",
"453 458 OFFCURVE",
"426 459 OFFCURVE",
"410 463 CURVE",
"383 463 LINE",
"384 504 LINE SMOOTH",
"385 512 OFFCURVE",
"385 525 OFFCURVE",
"385 542 CURVE SMOOTH",
"385 548 OFFCURVE",
"385 550 OFFCURVE",
"384 553 CURVE SMOOTH",
"383 556 OFFCURVE",
"383 557 OFFCURVE",
"383 561 CURVE SMOOTH",
"383 574 LINE",
"385 589 LINE SMOOTH",
"385 592 OFFCURVE",
"385 593 OFFCURVE",
"386 597 CURVE SMOOTH",
"387 601 OFFCURVE",
"387 602 OFFCURVE",
"387 605 CURVE SMOOTH",
"387 615 LINE SMOOTH",
"387 650 OFFCURVE",
"374 658 OFFCURVE",
"340 658 CURVE SMOOTH",
"241 658 LINE",
"231 659 OFFCURVE",
"213 659 OFFCURVE",
"195 659 CURVE SMOOTH",
"178 659 OFFCURVE",
"165 659 OFFCURVE",
"158 660 CURVE",
"84 660 LINE SMOOTH",
"71 660 OFFCURVE",
"61 657 OFFCURVE",
"55 651 CURVE SMOOTH",
"53 649 OFFCURVE",
"49 646 OFFCURVE",
"46 644 CURVE SMOOTH",
"42 641 OFFCURVE",
"39 638 OFFCURVE",
"38 637 CURVE",
"38 634 LINE",
"36 631 OFFCURVE",
"36 628 OFFCURVE",
"36 620 CURVE SMOOTH",
"35 602 OFFCURVE",
"34 583 OFFCURVE",
"34 563 CURVE SMOOTH",
"34 533 LINE",
"32 481 LINE SMOOTH",
"32 460 OFFCURVE",
"32 445 OFFCURVE",
"31 432 CURVE SMOOTH",
"30 422 OFFCURVE",
"30 413 OFFCURVE",
"30 408 CURVE SMOOTH",
"30 387 LINE",
"49 35 LINE SMOOTH",
"49 28 OFFCURVE",
"55 9 OFFCURVE",
"60 9 CURVE",
"108 -4 OFFCURVE",
"154 -5 OFFCURVE",
"238 -5 CURVE SMOOTH"
);
}
);
width = 879;
}
);
leftKerningGroup = H;
leftMetricsKey = "=H";
note = H;
rightKerningGroup = H;
rightMetricsKey = "=H";
unicode = 0048;
},
{
color = 6;
glyphname = Hbar;
lastChange = "2023-02-22 08:59:45 +0000";
layers = (
{
background = {
paths = (
{
closed = 1;
nodes = (
"287 -5 OFFCURVE",
"323 -4 OFFCURVE",
"375 -1 CURVE SMOOTH",
"390 0 LINE",
"410 7 OFFCURVE",
"410 55 OFFCURVE",
"410 66 CURVE",
"411 89 OFFCURVE",
"411 71 OFFCURVE",
"411 154 CURVE SMOOTH",
"411 165 OFFCURVE",
"414 171 OFFCURVE",
"420 171 CURVE SMOOTH",
"428 171 LINE SMOOTH",
"434 171 OFFCURVE",
"450 170 OFFCURVE",
"475 169 CURVE",
"486 168 OFFCURVE",
"500 168 OFFCURVE",
"518 168 CURVE SMOOTH",
"525 168 LINE",
"536 53 LINE",
"537 44 OFFCURVE",
"538 37 OFFCURVE",
"539 32 CURVE SMOOTH",
"541 20 OFFCURVE",
"542 12 OFFCURVE",
"546 5 CURVE",
"548 2 OFFCURVE",
"550 0 OFFCURVE",
"552 0 CURVE SMOOTH",
"827 0 LINE SMOOTH",
"836 0 OFFCURVE",
"850 16 OFFCURVE",
"850 23 CURVE",
"875 333 LINE",
"875 334 OFFCURVE",
"875 335 OFFCURVE",
"874 337 CURVE",
"873 340 OFFCURVE",
"871 345 OFFCURVE",
"871 353 CURVE SMOOTH",
"872 408 LINE",
"873 415 OFFCURVE",
"873 477 OFFCURVE",
"873 493 CURVE",
"886 493 LINE SMOOTH",
"907 493 OFFCURVE",
"923 496 OFFCURVE",
"932 503 CURVE",
"937 506 OFFCURVE",
"940 512 OFFCURVE",
"940 521 CURVE SMOOTH",
"940 533 LINE SMOOTH",
"940 534 OFFCURVE",
"940 536 OFFCURVE",
"939 537 CURVE SMOOTH",
"938 538 OFFCURVE",
"938 540 OFFCURVE",
"938 541 CURVE SMOOTH",
"938 544 OFFCURVE",
"938 545 OFFCURVE",
"937 546 CURVE",
"936 553 LINE",
"936 556 OFFCURVE",
"936 559 OFFCURVE",
"935 560 CURVE",
"935 573 LINE SMOOTH",
"935 574 OFFCURVE",
"934 576 OFFCURVE",
"932 577 CURVE",
"929 578 OFFCURVE",
"926 578 OFFCURVE",
"922 579 CURVE",
"920 579 OFFCURVE",
"916 580 OFFCURVE",
"910 581 CURVE SMOOTH",
"904 582 OFFCURVE",
"898 583 OFFCURVE",
"892 583 CURVE SMOOTH",
"885 583 OFFCURVE",
"880 583 OFFCURVE",
"877 584 CURVE",
"877 631 LINE SMOOTH",
"877 650 OFFCURVE",
"875 659 OFFCURVE",
"867 664 CURVE",
"862 668 OFFCURVE",
"851 670 OFFCURVE",
"835 670 CURVE SMOOTH",
"808 670 LINE",
"791 669 OFFCURVE",
"755 668 OFFCURVE",
"702 668 CURVE SMOOTH",
"645 668 LINE",
"632 667 OFFCURVE",
"616 666 OFFCURVE",
"597 666 CURVE",
"570 665 LINE",
"555 665 OFFCURVE",
"546 664 OFFCURVE",
"542 663 CURVE",
"537 663 OFFCURVE",
"532 660 OFFCURVE",
"528 655 CURVE",
"524 648 OFFCURVE",
"523 610 OFFCURVE",
"523 589 CURVE SMOOTH",
"523 586 LINE",
"445 586 LINE",
"413 586 LINE",
"413 591 OFFCURVE",
"414 594 OFFCURVE",
"415 595 CURVE",
"415 605 LINE SMOOTH",
"415 640 OFFCURVE",
"403 668 OFFCURVE",
"368 668 CURVE SMOOTH",
"353 668 LINE",
"316 668 LINE",
"270 668 LINE",
"258 669 OFFCURVE",
"242 669 OFFCURVE",
"223 669 CURVE SMOOTH",
"205 669 OFFCURVE",
"193 669 OFFCURVE",
"186 670 CURVE",
"170 670 LINE",
"112 670 LINE SMOOTH",
"99 670 OFFCURVE",
"90 667 OFFCURVE",
"83 661 CURVE",
"80 659 OFFCURVE",
"77 657 OFFCURVE",
"74 654 CURVE",
"70 651 OFFCURVE",
"67 649 OFFCURVE",
"66 648 CURVE",
"65 645 OFFCURVE",
"65 640 OFFCURVE",
"65 633 CURVE",
"64 606 OFFCURVE",
"64 597 OFFCURVE",
"63 588 CURVE",
"55 588 LINE SMOOTH",
"52 588 OFFCURVE",
"49 588 OFFCURVE",
"46 587 CURVE SMOOTH",
"43 586 OFFCURVE",
"40 586 OFFCURVE",
"37 586 CURVE",
"21 583 OFFCURVE",
"11 581 OFFCURVE",
"7 579 CURVE",
"6 579 OFFCURVE",
"2 578 OFFCURVE",
"2 575 CURVE SMOOTH",
"2 567 OFFCURVE",
"2 561 OFFCURVE",
"3 558 CURVE",
"3 543 LINE SMOOTH",
"3 536 OFFCURVE",
"4 531 OFFCURVE",
"5 526 CURVE",
"5 508 LINE SMOOTH",
"5 504 OFFCURVE",
"10 501 OFFCURVE",
"20 499 CURVE",
"47 496 OFFCURVE",
"60 495 OFFCURVE",
"60 495 CURVE",
"61 495 LINE",
"60 490 OFFCURVE",
"60 482 OFFCURVE",
"60 471 CURVE SMOOTH",
"60 375 LINE",
"59 367 OFFCURVE",
"58 358 OFFCURVE",
"58 348 CURVE SMOOTH",
"58 328 LINE",
"77 34 LINE",
"77 27 OFFCURVE",
"83 8 OFFCURVE",
"88 8 CURVE",
"136 -5 OFFCURVE",
"182 -6 OFFCURVE",
"266 -6 CURVE"
);
},
{
closed = 1;
nodes = (
"508 396 OFFCURVE",
"499 397 OFFCURVE",
"493 398 CURVE",
"482 398 OFFCURVE",
"454 399 OFFCURVE",
"437 403 CURVE",
"411 403 LINE",
"412 494 LINE",
"412 495 LINE",
"421 495 LINE",
"466 495 LINE SMOOTH",
"489 495 OFFCURVE",
"507 495 OFFCURVE",
"520 494 CURVE",
"520 396 LINE"
);
}
);
};
layerId = "CBDECE4A-293B-4E5C-B714-A3FD26C7130D";
paths = (
{
closed = 1;
nodes = (
"287 -5 OFFCURVE",
"323 -4 OFFCURVE",
"375 -1 CURVE SMOOTH",
"390 0 LINE",
"402 4 OFFCURVE",
"410 31 OFFCURVE",
"410 66 CURVE",
"411 89 OFFCURVE",
"411 71 OFFCURVE",
"411 154 CURVE SMOOTH",
"411 165 OFFCURVE",
"414 171 OFFCURVE",
"420 171 CURVE SMOOTH",
"428 171 LINE SMOOTH",
"434 171 OFFCURVE",
"450 170 OFFCURVE",
"475 169 CURVE",
"484 168 OFFCURVE",
"493 168 OFFCURVE",
"518 168 CURVE SMOOTH",
"525 168 LINE",
"536 53 LINE",
"537 44 OFFCURVE",
"538 37 OFFCURVE",
"539 32 CURVE SMOOTH",
"541 20 OFFCURVE",
"542 12 OFFCURVE",
"546 5 CURVE",
"548 2 OFFCURVE",
"550 0 OFFCURVE",
"552 0 CURVE SMOOTH",
"827 0 LINE SMOOTH",
"835 0 OFFCURVE",
"850 15 OFFCURVE",
"850 23 CURVE",
"875 333 LINE",
"875 336 OFFCURVE",
"875 336 OFFCURVE",
"874 337 CURVE",
"873 340 OFFCURVE",
"871 345 OFFCURVE",
"871 353 CURVE SMOOTH",
"872 408 LINE",
"873 411 OFFCURVE",
"873 429 OFFCURVE",
"873 493 CURVE",
"886 493 LINE SMOOTH",
"909 493 OFFCURVE",
"923 496 OFFCURVE",
"932 503 CURVE",
"937 506 OFFCURVE",
"940 512 OFFCURVE",
"940 521 CURVE SMOOTH",
"940 533 LINE SMOOTH",
"940 536 OFFCURVE",
"940 536 OFFCURVE",
"939 537 CURVE SMOOTH",
"938 538 OFFCURVE",
"938 539 OFFCURVE",
"938 541 CURVE SMOOTH",
"938 545 OFFCURVE",
"938 545 OFFCURVE",
"937 546 CURVE",
"936 553 LINE",
"936 559 OFFCURVE",
"936 559 OFFCURVE",
"935 560 CURVE",
"935 573 LINE SMOOTH",
"935 574 OFFCURVE",
"934 576 OFFCURVE",
"932 577 CURVE",
"929 578 OFFCURVE",
"926 578 OFFCURVE",
"922 579 CURVE",
"920 579 OFFCURVE",
"916 580 OFFCURVE",
"910 581 CURVE SMOOTH",
"904 582 OFFCURVE",
"898 583 OFFCURVE",
"892 583 CURVE SMOOTH",
"881 583 OFFCURVE",
"879 583 OFFCURVE",
"877 584 CURVE",
"877 631 LINE SMOOTH",
"877 652 OFFCURVE",
"875 659 OFFCURVE",
"867 664 CURVE",
"862 668 OFFCURVE",
"851 670 OFFCURVE",
"835 670 CURVE SMOOTH",
"808 670 LINE",
"783 669 OFFCURVE",
"741 668 OFFCURVE",
"702 668 CURVE SMOOTH",
"645 668 LINE",
"627 667 OFFCURVE",
"612 666 OFFCURVE",
"597 666 CURVE",
"570 665 LINE",
"560 665 OFFCURVE",
"548 664 OFFCURVE",
"542 663 CURVE",
"537 663 OFFCURVE",
"532 660 OFFCURVE",
"528 655 CURVE",
"525 650 OFFCURVE",
"523 623 OFFCURVE",
"523 589 CURVE SMOOTH",
"523 586 LINE",
"445 586 LINE",
"413 586 LINE",
"413 590 OFFCURVE",
"414 594 OFFCURVE",
"415 595 CURVE",
"415 605 LINE SMOOTH",
"415 646 OFFCURVE",
"399 668 OFFCURVE",
"368 668 CURVE SMOOTH",
"353 668 LINE",
"316 668 LINE",
"270 668 LINE",
"262 669 OFFCURVE",
"256 669 OFFCURVE",
"223 669 CURVE SMOOTH",
"205 669 OFFCURVE",
"193 669 OFFCURVE",
"186 670 CURVE",
"170 670 LINE",
"112 670 LINE SMOOTH",
"99 670 OFFCURVE",
"90 667 OFFCURVE",
"83 661 CURVE",
"80 659 OFFCURVE",
"77 657 OFFCURVE",
"74 654 CURVE",
"70 651 OFFCURVE",
"67 649 OFFCURVE",
"66 648 CURVE",
"65 646 OFFCURVE",
"65 645 OFFCURVE",
"65 633 CURVE",
"64 606 OFFCURVE",
"64 597 OFFCURVE",
"63 588 CURVE",
"55 588 LINE SMOOTH",
"50 588 OFFCURVE",
"48 588 OFFCURVE",
"46 587 CURVE SMOOTH",
"43 586 OFFCURVE",
"40 586 OFFCURVE",
"37 586 CURVE",
"17 582 OFFCURVE",
"10 581 OFFCURVE",
"7 579 CURVE",
"5 579 OFFCURVE",
"2 577 OFFCURVE",
"2 575 CURVE SMOOTH",
"2 562 OFFCURVE",
"2 560 OFFCURVE",
"3 558 CURVE",
"3 543 LINE SMOOTH",
"3 538 OFFCURVE",
"4 534 OFFCURVE",
"5 526 CURVE",
"5 508 LINE SMOOTH",
"5 504 OFFCURVE",
"10 501 OFFCURVE",
"20 499 CURVE",
"40 497 OFFCURVE",
"54 495 OFFCURVE",
"60 495 CURVE",
"61 495 LINE",
"60 492 OFFCURVE",
"60 489 OFFCURVE",
"60 471 CURVE SMOOTH",
"60 375 LINE",
"59 364 OFFCURVE",
"58 356 OFFCURVE",
"58 348 CURVE SMOOTH",
"58 328 LINE",
"77 34 LINE",
"77 25 OFFCURVE",
"84 8 OFFCURVE",
"88 8 CURVE",
"129 -3 OFFCURVE",
"166 -6 OFFCURVE",
"266 -6 CURVE"
);
},
{
closed = 1;
nodes = (
"512 396 OFFCURVE",
"504 397 OFFCURVE",
"493 398 CURVE",
"473 398 OFFCURVE",
"448 400 OFFCURVE",
"437 403 CURVE",
"411 403 LINE",
"412 494 LINE",
"412 495 LINE",
"421 495 LINE",
"466 495 LINE SMOOTH",
"504 495 OFFCURVE",
"511 495 OFFCURVE",
"520 494 CURVE",
"520 396 LINE"
);
}
);
width = 938;
}
);
leftKerningGroup = H;
note = Hbar;
rightKerningGroup = H;
unicode = 0126;
},
{
color = 6;
glyphname = I;
lastChange = "2023-02-22 08:59:45 +0000";
layers = (
{
anchors = (
{
name = bottom;
position = "{204, 0}";
},
{
name = ogonek;
position = "{327, 0}";
},
{
name = top;
position = "{204, 655}";
},
{
name = topleft;
position = "{20, 676}";
}
);
background = {
anchors = (
{
name = bottom;
position = "{204, 0}";
},
{
name = ogonek;
position = "{357, 0}";
},
{
name = top;
position = "{204, 676}";
},
{
name = topleft;
position = "{20, 676}";
}
);
paths = (
{
closed = 1;
nodes = (
"131 -16 LINE",
"161 -11 LINE",
"178 -11 LINE",
"264 -11 LINE",
"265 -7 OFFCURVE",
"267 -6 OFFCURVE",
"270 -6 CURVE",
"286 -7 LINE",
"299 -10 OFFCURVE",
"309 -11 OFFCURVE",
"313 -11 CURVE",
"314 -10 OFFCURVE",
"317 -9 OFFCURVE",
"321 -7 CURVE",
"326 -7 LINE",
"326 -6 OFFCURVE",
"327 -6 OFFCURVE",
"328 -6 CURVE",
"333 -7 LINE",
"334 -9 LINE",
"344 -9 OFFCURVE",
"350 -6 OFFCURVE",
"354 0 CURVE SMOOTH",
"362 11 OFFCURVE",
"365 28 OFFCURVE",
"365 60 CURVE",
"364 72 OFFCURVE",
"365 88 OFFCURVE",
"367 108 CURVE",
"370 151 LINE",
"370 375 LINE SMOOTH",
"370 391 OFFCURVE",
"371 413 OFFCURVE",
"374 441 CURVE",
"375 448 OFFCURVE",
"376 454 OFFCURVE",
"377 458 CURVE",
"378 461 OFFCURVE",
"378 463 OFFCURVE",
"378 464 CURVE",
"375 645 LINE",
"375 651 OFFCURVE",
"369 664 OFFCURVE",
"351 663 CURVE",
"290 663 LINE SMOOTH",
"289 663 OFFCURVE",
"286 664 OFFCURVE",
"283 665 CURVE SMOOTH",
"279 666 OFFCURVE",
"277 666 OFFCURVE",
"275 666 CURVE SMOOTH",
"275 666 OFFCURVE",
"275 666 OFFCURVE",
"273 666 CURVE SMOOTH",
"272 666 OFFCURVE",
"272 666 OFFCURVE",
"271 665 CURVE",
"266 665 OFFCURVE",
"259 664 OFFCURVE",
"258 663 CURVE",
"254 663 LINE SMOOTH",
"250 663 OFFCURVE",
"248 664 OFFCURVE",
"245 666 CURVE",
"195 666 LINE",
"191 663 LINE",
"167 663 OFFCURVE",
"147 664 OFFCURVE",
"137 665 CURVE",
"131 665 OFFCURVE",
"124 666 OFFCURVE",
"113 667 CURVE SMOOTH",
"102 668 OFFCURVE",
"91 668 OFFCURVE",
"83 668 CURVE SMOOTH",
"55 668 OFFCURVE",
"30 664 OFFCURVE",
"30 651 CURVE SMOOTH",
"30 372 LINE SMOOTH",
"30 339 OFFCURVE",
"30 291 OFFCURVE",
"36 222 CURVE SMOOTH",
"40 178 LINE SMOOTH",
"44 130 OFFCURVE",
"45 95 OFFCURVE",
"46 72 CURVE",
"47 69 OFFCURVE",
"47 63 OFFCURVE",
"47 50 CURVE SMOOTH",
"47 32 OFFCURVE",
"49 -23 OFFCURVE",
"77 -23 CURVE",
"103 -19 LINE"
);
}
);
};
layerId = "CBDECE4A-293B-4E5C-B714-A3FD26C7130D";
paths = (
{
closed = 1;
nodes = (
"131 -16 LINE",
"161 -11 LINE",
"264 -11 LINE",
"265 -7 OFFCURVE",
"267 -6 OFFCURVE",
"270 -6 CURVE SMOOTH",
"286 -7 LINE",
"299 -10 OFFCURVE",
"309 -11 OFFCURVE",
"313 -11 CURVE",
"314 -10 OFFCURVE",
"317 -9 OFFCURVE",
"321 -7 CURVE",
"326 -7 LINE",
"326 -6 OFFCURVE",
"327 -6 OFFCURVE",
"328 -6 CURVE SMOOTH",
"333 -7 LINE",
"334 -9 LINE",
"344 -9 OFFCURVE",
"350 -6 OFFCURVE",
"354 0 CURVE SMOOTH",
"362 11 OFFCURVE",
"365 28 OFFCURVE",
"365 60 CURVE SMOOTH",
"364 72 OFFCURVE",
"366 88 OFFCURVE",
"367 108 CURVE SMOOTH",
"370 151 LINE",
"370 375 LINE SMOOTH",
"370 391 OFFCURVE",
"369 413 OFFCURVE",
"374 441 CURVE SMOOTH",
"377 458 LINE SMOOTH",
"378 461 OFFCURVE",
"378 463 OFFCURVE",
"378 464 CURVE SMOOTH",
"375 645 LINE SMOOTH",
"375 651 OFFCURVE",
"369 663 OFFCURVE",
"351 663 CURVE SMOOTH",
"290 663 LINE",
"283 665 LINE SMOOTH",
"279 666 OFFCURVE",
"277 666 OFFCURVE",
"275 666 CURVE SMOOTH",
"273 666 LINE SMOOTH",
"272 666 OFFCURVE",
"272 666 OFFCURVE",
"271 665 CURVE",
"266 665 OFFCURVE",
"259 664 OFFCURVE",
"258 663 CURVE",
"254 663 LINE SMOOTH",
"250 663 OFFCURVE",
"248 664 OFFCURVE",
"245 666 CURVE",
"195 666 LINE",
"191 663 LINE",
"167 663 OFFCURVE",
"147 664 OFFCURVE",
"137 665 CURVE SMOOTH",
"131 665 OFFCURVE",
"124 666 OFFCURVE",
"113 667 CURVE SMOOTH",
"102 668 OFFCURVE",
"91 668 OFFCURVE",
"83 668 CURVE SMOOTH",
"55 668 OFFCURVE",
"30 664 OFFCURVE",
"30 651 CURVE SMOOTH",
"30 372 LINE SMOOTH",
"30 339 OFFCURVE",
"30 291 OFFCURVE",
"36 222 CURVE SMOOTH",
"40 178 LINE SMOOTH",
"44 130 OFFCURVE",
"45 95 OFFCURVE",
"46 72 CURVE",
"47 69 OFFCURVE",
"47 63 OFFCURVE",
"47 50 CURVE SMOOTH",
"47 32 OFFCURVE",
"49 -23 OFFCURVE",
"77 -23 CURVE",
"103 -19 LINE"
);
}
);
width = 408;
}
);
leftKerningGroup = H;
leftMetricsKey = "=H";
note = I;
rightKerningGroup = H;
rightMetricsKey = "=H";
unicode = 0049;
},
{
color = 6;
glyphname = J;
lastChange = "2023-02-22 08:59:45 +0000";
layers = (
{
anchors = (
{
name = bottom;
position = "{281, 0}";
},
{
name = top;
position = "{351, 655}";
}
);
background = {
anchors = (
{
name = bottom;
position = "{281, 0}";
},
{
name = top;
position = "{351, 676}";
}
);
paths = (
{
closed = 1;
nodes = (
"405 -9 OFFCURVE",
"497 61 OFFCURVE",
"517 180 CURVE SMOOTH",
"523 215 OFFCURVE",
"525 246 OFFCURVE",
"525 298 CURVE",
"526 306 LINE",
"526 323 LINE SMOOTH",
"526 335 OFFCURVE",
"526 344 OFFCURVE",
"527 349 CURVE",
"528 352 OFFCURVE",
"528 355 OFFCURVE",
"528 359 CURVE",
"527 363 OFFCURVE",
"527 366 OFFCURVE",
"528 370 CURVE",
"528 372 OFFCURVE",
"528 375 OFFCURVE",
"528 378 CURVE SMOOTH",
"528 382 OFFCURVE",
"528 387 OFFCURVE",
"530 387 CURVE",
"530 397 LINE",
"530 595 LINE SMOOTH",
"530 602 OFFCURVE",
"527 614 OFFCURVE",
"527 632 CURVE SMOOTH",
"527 644 OFFCURVE",
"524 651 OFFCURVE",
"521 656 CURVE",
"513 664 OFFCURVE",
"503 666 OFFCURVE",
"483 666 CURVE SMOOTH",
"392 666 LINE",
"295 666 LINE",
"215 665 LINE SMOOTH",
"208 665 OFFCURVE",
"180 664 OFFCURVE",
"180 633 CURVE SMOOTH",
"181 524 LINE",
"181 481 LINE",
"179 394 OFFCURVE",
"178 340 OFFCURVE",
"178 309 CURVE SMOOTH",
"178 292 OFFCURVE",
"178 279 OFFCURVE",
"177 274 CURVE",
"177 274 OFFCURVE",
"176 266 OFFCURVE",
"173 254 CURVE SMOOTH",
"170 243 OFFCURVE",
"168 236 OFFCURVE",
"166 233 CURVE",
"160 213 OFFCURVE",
"147 203 OFFCURVE",
"135 203 CURVE SMOOTH",
"107 203 OFFCURVE",
"101 208 OFFCURVE",
"29 233 CURVE",
"20 240 OFFCURVE",
"17 234 OFFCURVE",
"17 233 CURVE",
"16 231 OFFCURVE",
"16 231 OFFCURVE",
"16 229 CURVE SMOOTH",
"16 226 OFFCURVE",
"15 221 OFFCURVE",
"15 213 CURVE",
"11 193 OFFCURVE",
"11 105 OFFCURVE",
"11 88 CURVE",
"9 82 OFFCURVE",
"8 75 OFFCURVE",
"7 68 CURVE SMOOTH",
"5 47 LINE",
"5 43 OFFCURVE",
"5 43 OFFCURVE",
"6 42 CURVE",
"50 21 LINE SMOOTH",
"105 -5 OFFCURVE",
"127 -13 OFFCURVE",
"194 -13 CURVE SMOOTH",
"219 -13 OFFCURVE",
"243 -15 OFFCURVE",
"271 -12 CURVE"
);
}
);
};
layerId = "CBDECE4A-293B-4E5C-B714-A3FD26C7130D";
paths = (
{
closed = 1;
nodes = (
"405 -9 OFFCURVE",
"497 61 OFFCURVE",
"517 180 CURVE SMOOTH",
"523 215 OFFCURVE",
"525 246 OFFCURVE",
"525 298 CURVE",
"526 306 LINE",
"526 323 LINE SMOOTH",
"526 335 OFFCURVE",
"526 344 OFFCURVE",
"527 349 CURVE SMOOTH",
"528 352 OFFCURVE",
"528 355 OFFCURVE",
"528 359 CURVE SMOOTH",
"527 363 OFFCURVE",
"527 366 OFFCURVE",
"528 370 CURVE",
"528 378 LINE SMOOTH",
"528 382 OFFCURVE",
"528 387 OFFCURVE",
"530 387 CURVE",
"530 595 LINE SMOOTH",
"530 602 OFFCURVE",
"527 614 OFFCURVE",
"527 632 CURVE SMOOTH",
"527 644 OFFCURVE",
"524 651 OFFCURVE",
"521 656 CURVE",
"513 664 OFFCURVE",
"503 666 OFFCURVE",
"483 666 CURVE SMOOTH",
"295 666 LINE",
"215 665 LINE SMOOTH",
"208 665 OFFCURVE",
"180 664 OFFCURVE",
"180 633 CURVE SMOOTH",
"181 524 LINE",
"181 481 LINE SMOOTH",
"179 394 OFFCURVE",
"178 340 OFFCURVE",
"178 309 CURVE SMOOTH",
"178 292 OFFCURVE",
"178 279 OFFCURVE",
"177 274 CURVE",
"177 274 OFFCURVE",
"176 266 OFFCURVE",
"173 254 CURVE SMOOTH",
"170 243 OFFCURVE",
"168 236 OFFCURVE",
"166 233 CURVE",
"160 213 OFFCURVE",
"147 203 OFFCURVE",
"135 203 CURVE SMOOTH",
"107 203 OFFCURVE",
"101 208 OFFCURVE",
"29 233 CURVE",
"20 240 OFFCURVE",
"17 234 OFFCURVE",
"17 233 CURVE",
"16 231 OFFCURVE",
"16 231 OFFCURVE",
"16 229 CURVE SMOOTH",
"16 226 OFFCURVE",
"15 221 OFFCURVE",
"15 213 CURVE",
"11 193 OFFCURVE",
"11 105 OFFCURVE",
"11 88 CURVE",
"9 82 OFFCURVE",
"8 75 OFFCURVE",
"7 68 CURVE SMOOTH",
"5 47 LINE SMOOTH",
"5 43 OFFCURVE",
"5 43 OFFCURVE",
"6 42 CURVE",
"50 21 LINE SMOOTH",
"105 -5 OFFCURVE",
"127 -13 OFFCURVE",
"194 -13 CURVE SMOOTH",
"219 -13 OFFCURVE",
"243 -15 OFFCURVE",
"271 -12 CURVE"
);
}
);
width = 562;
}
);
leftKerningGroup = J;
note = J;
rightKerningGroup = U;
unicode = 004A;
},
{
color = 6;
glyphname = K;
lastChange = "2023-02-22 08:59:45 +0000";
layers = (
{
anchors = (
{
name = bottom;
position = "{425, 0}";
},
{
name = top;
position = "{425, 655}";
}
);
background = {
anchors = (
{
name = bottom;
position = "{425, 0}";
},
{
name = top;
position = "{425, 676}";
}
);
paths = (
{
closed = 1;
nodes = (
"558 14 OFFCURVE",
"595 -31 OFFCURVE",
"598 -34 CURVE SMOOTH",
"613 -49 OFFCURVE",
"629 -50 OFFCURVE",
"643 -39 CURVE",
"669 -29 OFFCURVE",
"666 -22 OFFCURVE",
"680 -12 CURVE",
"708 15 LINE",
"720 23 OFFCURVE",
"717 28 OFFCURVE",
"729 35 CURVE SMOOTH",
"749 47 OFFCURVE",
"749 67 OFFCURVE",
"772 70 CURVE",
"784 75 OFFCURVE",
"787 87 OFFCURVE",
"799 99 CURVE",
"807 107 OFFCURVE",
"808 110 OFFCURVE",
"808 118 CURVE SMOOTH",
"808 124 OFFCURVE",
"803 129 OFFCURVE",
"796 139 CURVE",
"762 178 OFFCURVE",
"709 234 OFFCURVE",
"678 266 CURVE",
"648 295 OFFCURVE",
"642 308 OFFCURVE",
"619 325 CURVE",
"615 329 OFFCURVE",
"615 332 OFFCURVE",
"610 336 CURVE",
"638 358 LINE",
"651 371 LINE",
"654 375 OFFCURVE",
"657 378 OFFCURVE",
"658 378 CURVE",
"668 390 LINE",
"694 412 LINE",
"695 414 OFFCURVE",
"697 416 OFFCURVE",
"698 416 CURVE SMOOTH",
"699 416 OFFCURVE",
"700 418 OFFCURVE",
"701 418 CURVE",
"705 425 OFFCURVE",
"710 431 OFFCURVE",
"719 439 CURVE",
"754 473 LINE SMOOTH",
"776 494 OFFCURVE",
"801 518 OFFCURVE",
"797 526 CURVE SMOOTH",
"796 528 LINE",
"788 542 OFFCURVE",
"753 570 OFFCURVE",
"739 585 CURVE",
"721 604 OFFCURVE",
"704 611 OFFCURVE",
"686 625 CURVE",
"664 637 OFFCURVE",
"664 656 OFFCURVE",
"639 667 CURVE",
"648 655 OFFCURVE",
"620 675 OFFCURVE",
"625 675 CURVE",
"621 674 OFFCURVE",
"608 673 OFFCURVE",
"594 664 CURVE",
"556 628 OFFCURVE",
"506 579 OFFCURVE",
"472 545 CURVE SMOOTH",
"443 516 OFFCURVE",
"377 451 OFFCURVE",
"396 470 CURVE SMOOTH",
"398 472 OFFCURVE",
"391 467 OFFCURVE",
"391 466 CURVE",
"391 466 OFFCURVE",
"371 442 OFFCURVE",
"361 442 CURVE",
"364 539 LINE",
"364 572 OFFCURVE",
"366 598 OFFCURVE",
"366 616 CURVE SMOOTH",
"366 629 LINE SMOOTH",
"366 637 OFFCURVE",
"366 640 OFFCURVE",
"364 642 CURVE",
"363 654 OFFCURVE",
"359 660 OFFCURVE",
"349 660 CURVE SMOOTH",
"317 660 LINE",
"262 660 LINE",
"212 660 LINE",
"99 660 LINE",
"78 660 LINE SMOOTH",
"68 660 OFFCURVE",
"60 659 OFFCURVE",
"54 656 CURVE",
"36 654 OFFCURVE",
"28 644 OFFCURVE",
"30 629 CURVE",
"30 620 LINE SMOOTH",
"30 611 OFFCURVE",
"30 606 OFFCURVE",
"31 600 CURVE",
"31 579 OFFCURVE",
"31 561 OFFCURVE",
"32 550 CURVE",
"32 529 LINE",
"32 515 LINE SMOOTH",
"32 492 OFFCURVE",
"31 477 OFFCURVE",
"30 465 CURVE",
"30 457 OFFCURVE",
"30 454 OFFCURVE",
"30 452 CURVE SMOOTH",
"30 451 OFFCURVE",
"30 449 OFFCURVE",
"30 447 CURVE SMOOTH",
"30 443 OFFCURVE",
"31 439 OFFCURVE",
"31 435 CURVE",
"32 415 LINE",
"32 392 OFFCURVE",
"32 375 OFFCURVE",
"30 366 CURVE",
"30 356 LINE SMOOTH",
"30 345 OFFCURVE",
"30 330 OFFCURVE",
"31 307 CURVE SMOOTH",
"32 281 LINE",
"36 247 OFFCURVE",
"38 223 OFFCURVE",
"38 208 CURVE SMOOTH",
"39 129 LINE SMOOTH",
"39 109 OFFCURVE",
"40 95 OFFCURVE",
"41 83 CURVE",
"41 45 LINE",
"42 36 OFFCURVE",
"44 26 OFFCURVE",
"42 15 CURVE SMOOTH",
"41 8 OFFCURVE",
"42 4 OFFCURVE",
"43 4 CURVE",
"48 -4 LINE",
"93 -8 LINE",
"99 -8 LINE",
"104 -9 OFFCURVE",
"109 -9 OFFCURVE",
"119 -9 CURVE SMOOTH",
"140 -9 LINE",
"156 -9 LINE",
"251 -9 LINE SMOOTH",
"268 -9 OFFCURVE",
"293 -9 OFFCURVE",
"329 -8 CURVE",
"336 -9 OFFCURVE",
"341 -9 OFFCURVE",
"344 -6 CURVE",
"349 -5 OFFCURVE",
"351 -1 OFFCURVE",
"351 5 CURVE SMOOTH",
"351 10 LINE",
"351 24 LINE",
"351 36 LINE",
"354 116 LINE",
"354 119 OFFCURVE",
"383 153 OFFCURVE",
"401 172 CURVE",
"424 153 LINE",
"429 150 OFFCURVE",
"433 143 OFFCURVE",
"438 138 CURVE SMOOTH",
"445 131 OFFCURVE",
"446 129 OFFCURVE",
"447 127 CURVE",
"529 33 LINE",
"529 32 OFFCURVE",
"533 29 OFFCURVE",
"537 26 CURVE",
"550 15 LINE"
);
}
);
};
layerId = "CBDECE4A-293B-4E5C-B714-A3FD26C7130D";
paths = (
{
closed = 1;
nodes = (
"558 14 OFFCURVE",
"595 -31 OFFCURVE",
"598 -34 CURVE SMOOTH",
"613 -49 OFFCURVE",
"629 -50 OFFCURVE",
"643 -39 CURVE",
"669 -29 OFFCURVE",
"666 -22 OFFCURVE",
"680 -12 CURVE",
"708 15 LINE",
"720 23 OFFCURVE",
"717 28 OFFCURVE",
"729 35 CURVE SMOOTH",
"749 47 OFFCURVE",
"749 67 OFFCURVE",
"772 70 CURVE",
"784 75 OFFCURVE",
"787 87 OFFCURVE",
"799 99 CURVE SMOOTH",
"807 107 OFFCURVE",
"808 110 OFFCURVE",
"808 118 CURVE SMOOTH",
"808 124 OFFCURVE",
"803 129 OFFCURVE",
"796 139 CURVE",
"762 178 OFFCURVE",
"709 234 OFFCURVE",
"678 266 CURVE SMOOTH",
"648 295 OFFCURVE",
"642 308 OFFCURVE",
"619 325 CURVE",
"615 329 OFFCURVE",
"615 332 OFFCURVE",
"610 336 CURVE",
"638 358 LINE",
"651 371 LINE SMOOTH",
"654 375 OFFCURVE",
"657 378 OFFCURVE",
"658 378 CURVE",
"668 390 LINE",
"694 412 LINE",
"695 414 OFFCURVE",
"697 416 OFFCURVE",
"698 416 CURVE SMOOTH",
"699 416 OFFCURVE",
"700 418 OFFCURVE",
"701 418 CURVE",
"705 425 OFFCURVE",
"710 431 OFFCURVE",
"719 439 CURVE SMOOTH",
"754 473 LINE SMOOTH",
"776 494 OFFCURVE",
"801 518 OFFCURVE",
"797 526 CURVE SMOOTH",
"796 528 LINE SMOOTH",
"788 542 OFFCURVE",
"753 570 OFFCURVE",
"739 585 CURVE SMOOTH",
"721 604 OFFCURVE",
"704 611 OFFCURVE",
"686 625 CURVE",
"664 637 OFFCURVE",
"664 656 OFFCURVE",
"639 667 CURVE",
"648 655 OFFCURVE",
"620 675 OFFCURVE",
"625 675 CURVE",
"621 674 OFFCURVE",
"608 673 OFFCURVE",
"594 664 CURVE",
"556 628 OFFCURVE",
"506 579 OFFCURVE",
"472 545 CURVE SMOOTH",
"396 470 LINE SMOOTH",
"398 472 OFFCURVE",
"371 442 OFFCURVE",
"361 442 CURVE",
"364 539 LINE SMOOTH",
"364 572 OFFCURVE",
"366 598 OFFCURVE",
"366 616 CURVE SMOOTH",
"366 629 LINE SMOOTH",
"366 637 OFFCURVE",
"366 640 OFFCURVE",
"364 642 CURVE",
"363 654 OFFCURVE",
"359 660 OFFCURVE",
"349 660 CURVE SMOOTH",
"78 660 LINE SMOOTH",
"68 660 OFFCURVE",
"60 659 OFFCURVE",
"54 656 CURVE",
"36 654 OFFCURVE",
"28 644 OFFCURVE",
"30 629 CURVE SMOOTH",
"30 620 LINE SMOOTH",
"30 611 OFFCURVE",
"30 606 OFFCURVE",
"31 600 CURVE",
"31 579 OFFCURVE",
"31 561 OFFCURVE",
"32 550 CURVE SMOOTH",
"32 515 LINE SMOOTH",
"32 492 OFFCURVE",
"31 477 OFFCURVE",
"30 465 CURVE SMOOTH",
"30 452 LINE",
"30 447 LINE SMOOTH",
"30 443 OFFCURVE",
"31 439 OFFCURVE",
"31 435 CURVE SMOOTH",
"32 415 LINE SMOOTH",
"32 392 OFFCURVE",
"32 375 OFFCURVE",
"30 366 CURVE",
"30 356 LINE SMOOTH",
"30 345 OFFCURVE",
"30 330 OFFCURVE",
"31 307 CURVE SMOOTH",
"32 281 LINE SMOOTH",
"36 247 OFFCURVE",
"38 223 OFFCURVE",
"38 208 CURVE SMOOTH",
"39 129 LINE SMOOTH",
"39 109 OFFCURVE",
"40 95 OFFCURVE",
"41 83 CURVE SMOOTH",
"41 45 LINE",
"42 36 OFFCURVE",
"44 26 OFFCURVE",
"42 15 CURVE SMOOTH",
"41 8 OFFCURVE",
"42 4 OFFCURVE",
"43 4 CURVE",
"48 -4 LINE",
"93 -8 LINE",
"99 -8 LINE SMOOTH",
"104 -9 OFFCURVE",
"109 -9 OFFCURVE",
"119 -9 CURVE SMOOTH",
"251 -9 LINE SMOOTH",
"268 -9 OFFCURVE",
"293 -9 OFFCURVE",
"329 -8 CURVE",
"336 -9 OFFCURVE",
"341 -9 OFFCURVE",
"344 -6 CURVE",
"349 -5 OFFCURVE",
"351 -1 OFFCURVE",
"351 5 CURVE SMOOTH",
"351 36 LINE",
"354 116 LINE SMOOTH",
"354 119 OFFCURVE",
"383 153 OFFCURVE",
"401 172 CURVE",
"424 153 LINE",
"429 150 OFFCURVE",
"433 143 OFFCURVE",
"438 138 CURVE SMOOTH",
"445 131 OFFCURVE",
"446 129 OFFCURVE",
"447 127 CURVE",
"529 33 LINE",
"529 32 OFFCURVE",
"533 29 OFFCURVE",
"537 26 CURVE SMOOTH",
"550 15 LINE"
);
}
);
width = 808;
}
);
leftKerningGroup = H;
leftMetricsKey = "=H";
note = K;
rightKerningGroup = K;
unicode = 004B;
},
{
color = 6;
glyphname = L;
lastChange = "2023-02-22 08:59:45 +0000";
layers = (
{
anchors = (
{
name = bottom;
position = "{300, 0}";
},
{
name = center;
position = "{300, 338}";
},
{
name = top;
position = "{210, 655}";
},
{
name = topright;
position = "{469, 655}";
}
);
background = {
anchors = (
{
name = bottom;
position = "{300, 0}";
},
{
name = center;
position = "{300, 338}";
},
{
name = top;
position = "{210, 666}";
},
{
name = topright;
position = "{521, 663}";
}
);
paths = (
{
closed = 1;
nodes = (
"536 -10 OFFCURVE",
"551 -9 OFFCURVE",
"560 -7 CURVE",
"575 -6 OFFCURVE",
"590 1 OFFCURVE",
"590 11 CURVE SMOOTH",
"590 13 LINE",
"590 212 LINE SMOOTH",
"590 221 OFFCURVE",
"579 232 OFFCURVE",
"564 232 CURVE SMOOTH",
"525 232 OFFCURVE",
"498 232 OFFCURVE",
"478 231 CURVE",
"402 231 LINE SMOOTH",
"389 231 OFFCURVE",
"380 231 OFFCURVE",
"380 243 CURVE SMOOTH",
"380 255 LINE",
"380 319 LINE",
"380 393 LINE",
"380 505 LINE",
"379 511 LINE",
"379 514 OFFCURVE",
"378 519 OFFCURVE",
"378 527 CURVE",
"375 538 OFFCURVE",
"374 548 OFFCURVE",
"374 556 CURVE SMOOTH",
"374 562 OFFCURVE",
"375 568 OFFCURVE",
"378 578 CURVE",
"378 587 OFFCURVE",
"379 592 OFFCURVE",
"379 595 CURVE",
"380 603 LINE",
"380 653 OFFCURVE",
"356 656 OFFCURVE",
"331 656 CURVE SMOOTH",
"316 656 OFFCURVE",
"308 656 OFFCURVE",
"305 656 CURVE SMOOTH",
"249 656 LINE",
"238 657 OFFCURVE",
"221 657 OFFCURVE",
"199 657 CURVE SMOOTH",
"189 657 OFFCURVE",
"179 657 OFFCURVE",
"174 658 CURVE",
"134 659 OFFCURVE",
"98 660 OFFCURVE",
"64 660 CURVE SMOOTH",
"57 660 OFFCURVE",
"49 657 OFFCURVE",
"46 651 CURVE",
"39 640 OFFCURVE",
"36 623 OFFCURVE",
"36 604 CURVE SMOOTH",
"36 580 LINE",
"31 506 OFFCURVE",
"29 461 OFFCURVE",
"30 403 CURVE SMOOTH",
"31 347 LINE",
"31 248 LINE",
"31 20 LINE SMOOTH",
"31 6 OFFCURVE",
"45 -7 OFFCURVE",
"58 -7 CURVE SMOOTH",
"143 -8 LINE",
"157 -9 OFFCURVE",
"180 -9 OFFCURVE",
"211 -9 CURVE SMOOTH",
"243 -9 OFFCURVE",
"295 -10 OFFCURVE",
"366 -10 CURVE SMOOTH",
"517 -10 LINE SMOOTH"
);
}
);
};
layerId = "CBDECE4A-293B-4E5C-B714-A3FD26C7130D";
paths = (
{
closed = 1;
nodes = (
"536 -10 OFFCURVE",
"551 -9 OFFCURVE",
"560 -7 CURVE",
"575 -6 OFFCURVE",
"590 1 OFFCURVE",
"590 11 CURVE SMOOTH",
"590 212 LINE SMOOTH",
"590 221 OFFCURVE",
"579 232 OFFCURVE",
"564 232 CURVE SMOOTH",
"525 232 OFFCURVE",
"498 231 OFFCURVE",
"478 231 CURVE SMOOTH",
"402 231 LINE SMOOTH",
"389 231 OFFCURVE",
"380 231 OFFCURVE",
"380 243 CURVE SMOOTH",
"380 505 LINE",
"379 511 LINE SMOOTH",
"379 514 OFFCURVE",
"378 519 OFFCURVE",
"378 527 CURVE",
"375 538 OFFCURVE",
"374 548 OFFCURVE",
"374 556 CURVE SMOOTH",
"374 562 OFFCURVE",
"375 568 OFFCURVE",
"378 578 CURVE",
"378 587 OFFCURVE",
"379 592 OFFCURVE",
"379 595 CURVE SMOOTH",
"380 603 LINE",
"380 653 OFFCURVE",
"356 656 OFFCURVE",
"331 656 CURVE SMOOTH",
"305 656 LINE",
"249 656 LINE",
"238 657 OFFCURVE",
"221 657 OFFCURVE",
"199 657 CURVE SMOOTH",
"189 657 OFFCURVE",
"179 657 OFFCURVE",
"174 658 CURVE",
"134 659 OFFCURVE",
"98 660 OFFCURVE",
"64 660 CURVE SMOOTH",
"57 660 OFFCURVE",
"49 657 OFFCURVE",
"46 651 CURVE SMOOTH",
"39 640 OFFCURVE",
"36 623 OFFCURVE",
"36 604 CURVE SMOOTH",
"36 580 LINE SMOOTH",
"36 506 OFFCURVE",
"29 461 OFFCURVE",
"30 403 CURVE SMOOTH",
"31 347 LINE",
"31 20 LINE SMOOTH",
"31 6 OFFCURVE",
"45 -7 OFFCURVE",
"58 -7 CURVE SMOOTH",
"143 -8 LINE SMOOTH",
"157 -8 OFFCURVE",
"180 -9 OFFCURVE",
"211 -9 CURVE SMOOTH",
"243 -9 OFFCURVE",
"295 -10 OFFCURVE",
"366 -10 CURVE SMOOTH",
"517 -10 LINE SMOOTH"
);
}
);
width = 615;
}
);
leftKerningGroup = H;
leftMetricsKey = "=H";
note = L;
rightKerningGroup = L;
unicode = 004C;
},
{
color = 10;
glyphname = LJ;
lastChange = "2023-02-22 08:59:45 +0000";
layers = (
{
background = {
components = (
{
name = L;
}
);
paths = (
{
closed = 1;
nodes = (
"1029 -9 OFFCURVE",
"1121 61 OFFCURVE",
"1141 180 CURVE SMOOTH",
"1147 215 OFFCURVE",
"1149 246 OFFCURVE",
"1149 298 CURVE",
"1150 306 LINE",
"1150 323 LINE SMOOTH",
"1150 335 OFFCURVE",
"1150 344 OFFCURVE",
"1151 349 CURVE",
"1152 352 OFFCURVE",
"1152 355 OFFCURVE",
"1152 359 CURVE",
"1151 363 OFFCURVE",
"1151 366 OFFCURVE",
"1152 370 CURVE",
"1152 372 OFFCURVE",
"1152 375 OFFCURVE",
"1152 378 CURVE SMOOTH",
"1152 382 OFFCURVE",
"1152 387 OFFCURVE",
"1154 387 CURVE",
"1154 397 LINE",
"1154 595 LINE SMOOTH",
"1154 602 OFFCURVE",
"1151 614 OFFCURVE",
"1151 632 CURVE SMOOTH",
"1151 644 OFFCURVE",
"1148 651 OFFCURVE",
"1145 656 CURVE",
"1137 664 OFFCURVE",
"1127 666 OFFCURVE",
"1107 666 CURVE SMOOTH",
"1016 666 LINE",
"919 666 LINE",
"839 665 LINE SMOOTH",
"832 665 OFFCURVE",
"804 664 OFFCURVE",
"804 633 CURVE SMOOTH",
"805 524 LINE",
"805 481 LINE",
"803 394 OFFCURVE",
"802 340 OFFCURVE",
"802 309 CURVE SMOOTH",
"802 292 OFFCURVE",
"802 279 OFFCURVE",
"801 274 CURVE",
"801 274 OFFCURVE",
"800 266 OFFCURVE",
"797 254 CURVE SMOOTH",
"794 243 OFFCURVE",
"792 236 OFFCURVE",
"790 233 CURVE",
"784 213 OFFCURVE",
"771 203 OFFCURVE",
"759 203 CURVE SMOOTH",
"731 203 OFFCURVE",
"725 208 OFFCURVE",
"653 233 CURVE",
"644 240 OFFCURVE",
"641 234 OFFCURVE",
"641 233 CURVE",
"640 231 OFFCURVE",
"640 231 OFFCURVE",
"640 229 CURVE SMOOTH",
"640 226 OFFCURVE",
"639 221 OFFCURVE",
"639 213 CURVE",
"635 193 OFFCURVE",
"635 105 OFFCURVE",
"635 88 CURVE",
"633 82 OFFCURVE",
"632 75 OFFCURVE",
"631 68 CURVE SMOOTH",
"629 47 LINE",
"629 43 OFFCURVE",
"629 43 OFFCURVE",
"630 42 CURVE",
"674 21 LINE SMOOTH",
"729 -5 OFFCURVE",
"751 -13 OFFCURVE",
"818 -13 CURVE SMOOTH",
"843 -13 OFFCURVE",
"867 -15 OFFCURVE",
"895 -12 CURVE"
);
}
);
};
components = (
{
name = L;
},
{
name = J;
transform = "{1, 0, 0, 1, 615, 0}";
}
);
layerId = "CBDECE4A-293B-4E5C-B714-A3FD26C7130D";
width = 1177;
}
);
leftKerningGroup = H;
note = uni01C7;
rightKerningGroup = L;
unicode = 01C7;
},
{
color = 10;
glyphname = Ldot;
lastChange = "2023-02-22 08:59:45 +0000";
layers = (
{
background = {
components = (
{
name = L;
}
);
paths = (
{
closed = 1;
nodes = (
"529 351 LINE",
"533 353 LINE",
"533 354 OFFCURVE",
"533 354 OFFCURVE",
"534 354 CURVE",
"539 353 LINE",
"540 352 OFFCURVE",
"542 351 OFFCURVE",
"545 351 CURVE",
"549 353 LINE",
"554 354 LINE",
"569 355 LINE",
"574 357 LINE",
"577 357 LINE",
"577 356 OFFCURVE",
"577 356 OFFCURVE",
"578 356 CURVE",
"587 357 LINE",
"591 359 OFFCURVE",
"593 362 OFFCURVE",
"594 367 CURVE",
"597 375 LINE",
"597 441 LINE SMOOTH",
"597 448 OFFCURVE",
"597 454 OFFCURVE",
"597 457 CURVE",
"596 460 OFFCURVE",
"596 463 OFFCURVE",
"596 464 CURVE SMOOTH",
"596 473 LINE",
"596 479 LINE SMOOTH",
"596 484 OFFCURVE",
"596 487 OFFCURVE",
"597 490 CURVE",
"597 491 LINE SMOOTH",
"597 496 OFFCURVE",
"592 499 OFFCURVE",
"581 499 CURVE SMOOTH",
"572 499 LINE",
"563 499 LINE",
"558 499 LINE",
"551 499 LINE",
"543 499 LINE",
"536 499 LINE",
"516 499 LINE",
"513 498 OFFCURVE",
"507 497 OFFCURVE",
"500 497 CURVE SMOOTH",
"495 497 OFFCURVE",
"491 497 OFFCURVE",
"488 498 CURVE",
"484 499 OFFCURVE",
"480 499 OFFCURVE",
"476 499 CURVE SMOOTH",
"452 499 LINE SMOOTH",
"442 499 OFFCURVE",
"436 496 OFFCURVE",
"434 490 CURVE",
"434 471 LINE",
"433 460 OFFCURVE",
"432 452 OFFCURVE",
"432 446 CURVE",
"431 434 OFFCURVE",
"430 416 OFFCURVE",
"430 393 CURVE SMOOTH",
"430 376 OFFCURVE",
"430 366 OFFCURVE",
"431 362 CURVE",
"436 357 LINE",
"490 353 LINE",
"494 353 OFFCURVE",
"498 352 OFFCURVE",
"502 351 CURVE",
"513 351 LINE"
);
}
);
};
components = (
{
name = L;
},
{
alignment = 1;
name = periodcentered.loclCAT.cap;
transform = "{1, 0, 0, 1, 615, 0}";
}
);
layerId = "CBDECE4A-293B-4E5C-B714-A3FD26C7130D";
width = 753;
}
);
leftKerningGroup = H;
leftMetricsKey = L;
note = Ldot;
rightKerningGroup = L;
rightMetricsKey = L;
unicode = 013F;
},
{
color = 6;
glyphname = Lslash;
lastChange = "2023-02-22 08:59:45 +0000";
layers = (
{
background = {
paths = (
{
closed = 1;
nodes = (
"76 464 LINE",
"36 454 LINE",
"25 450 OFFCURVE",
"10 433 OFFCURVE",
"10 422 CURVE SMOOTH",
"10 398 OFFCURVE",
"11 329 OFFCURVE",
"11 305 CURVE SMOOTH",
"11 291 OFFCURVE",
"20 284 OFFCURVE",
"37 284 CURVE SMOOTH",
"43 284 OFFCURVE",
"78 292 OFFCURVE",
"91 295 CURVE",
"435 388 LINE",
"485 401 LINE",
"489 403 LINE",
"491 403 OFFCURVE",
"493 404 OFFCURVE",
"494 405 CURVE",
"498 407 OFFCURVE",
"500 408 OFFCURVE",
"501 408 CURVE",
"545 419 OFFCURVE",
"553 440 OFFCURVE",
"553 476 CURVE",
"554 552 OFFCURVE",
"555 543 OFFCURVE",
"555 564 CURVE SMOOTH",
"555 575 OFFCURVE",
"548 581 OFFCURVE",
"534 583 CURVE",
"526 583 OFFCURVE",
"513 580 OFFCURVE",
"494 575 CURVE",
"488 574 OFFCURVE",
"482 573 OFFCURVE",
"476 572 CURVE",
"470 570 OFFCURVE",
"464 569 OFFCURVE",
"458 568 CURVE",
"455 567 OFFCURVE",
"443 564 OFFCURVE",
"423 561 CURVE"
);
},
{
closed = 1;
nodes = (
"586 -10 OFFCURVE",
"601 -9 OFFCURVE",
"610 -7 CURVE",
"625 -6 OFFCURVE",
"640 1 OFFCURVE",
"640 11 CURVE SMOOTH",
"640 212 LINE SMOOTH",
"640 221 OFFCURVE",
"629 232 OFFCURVE",
"614 232 CURVE SMOOTH",
"575 232 OFFCURVE",
"548 231 OFFCURVE",
"528 231 CURVE SMOOTH",
"452 231 LINE SMOOTH",
"439 231 OFFCURVE",
"430 231 OFFCURVE",
"430 243 CURVE SMOOTH",
"430 505 LINE",
"429 511 LINE SMOOTH",
"429 514 OFFCURVE",
"428 519 OFFCURVE",
"428 527 CURVE",
"425 538 OFFCURVE",
"424 548 OFFCURVE",
"424 556 CURVE SMOOTH",
"424 562 OFFCURVE",
"425 568 OFFCURVE",
"428 578 CURVE",
"428 587 OFFCURVE",
"429 592 OFFCURVE",
"429 595 CURVE SMOOTH",
"430 603 LINE",
"430 653 OFFCURVE",
"406 656 OFFCURVE",
"381 656 CURVE SMOOTH",
"355 656 LINE",
"299 656 LINE",
"288 657 OFFCURVE",
"271 657 OFFCURVE",
"249 657 CURVE SMOOTH",
"239 657 OFFCURVE",
"229 657 OFFCURVE",
"224 658 CURVE",
"184 659 OFFCURVE",
"148 660 OFFCURVE",
"114 660 CURVE SMOOTH",
"107 660 OFFCURVE",
"99 657 OFFCURVE",
"96 651 CURVE SMOOTH",
"89 640 OFFCURVE",
"86 623 OFFCURVE",
"86 604 CURVE SMOOTH",
"86 580 LINE SMOOTH",
"86 506 OFFCURVE",
"79 461 OFFCURVE",
"80 403 CURVE SMOOTH",
"81 347 LINE",
"81 20 LINE SMOOTH",
"81 6 OFFCURVE",
"95 -7 OFFCURVE",
"108 -7 CURVE SMOOTH",
"193 -8 LINE SMOOTH",
"207 -8 OFFCURVE",
"230 -9 OFFCURVE",
"261 -9 CURVE SMOOTH",
"293 -9 OFFCURVE",
"345 -10 OFFCURVE",
"416 -10 CURVE SMOOTH",
"567 -10 LINE SMOOTH"
);
}
);
};
layerId = "CBDECE4A-293B-4E5C-B714-A3FD26C7130D";
paths = (
{
closed = 1;
nodes = (
"586 -10 OFFCURVE",
"601 -9 OFFCURVE",
"610 -7 CURVE",
"625 -6 OFFCURVE",
"640 1 OFFCURVE",
"640 11 CURVE SMOOTH",
"640 212 LINE SMOOTH",
"640 221 OFFCURVE",
"629 232 OFFCURVE",
"614 232 CURVE SMOOTH",
"575 232 OFFCURVE",
"548 231 OFFCURVE",
"528 231 CURVE SMOOTH",
"452 231 LINE SMOOTH",
"439 231 OFFCURVE",
"430 231 OFFCURVE",
"430 243 CURVE SMOOTH",
"430 387 LINE",
"435 388 LINE",
"485 401 LINE",
"489 403 LINE",
"491 403 OFFCURVE",
"493 404 OFFCURVE",
"494 405 CURVE",
"498 407 OFFCURVE",
"500 408 OFFCURVE",
"501 408 CURVE SMOOTH",
"545 419 OFFCURVE",
"553 440 OFFCURVE",
"553 476 CURVE SMOOTH",
"554 552 OFFCURVE",
"555 543 OFFCURVE",
"555 564 CURVE SMOOTH",
"555 575 OFFCURVE",
"548 581 OFFCURVE",
"534 583 CURVE",
"526 583 OFFCURVE",
"513 580 OFFCURVE",
"494 575 CURVE SMOOTH",
"476 572 LINE",
"470 570 OFFCURVE",
"464 569 OFFCURVE",
"458 568 CURVE SMOOTH",
"455 567 OFFCURVE",
"444 564 OFFCURVE",
"424 561 CURVE",
"425 566 OFFCURVE",
"426 571 OFFCURVE",
"428 578 CURVE",
"428 587 OFFCURVE",
"429 592 OFFCURVE",
"429 595 CURVE SMOOTH",
"430 603 LINE",
"430 653 OFFCURVE",
"406 656 OFFCURVE",
"381 656 CURVE SMOOTH",
"299 656 LINE",
"288 657 OFFCURVE",
"271 657 OFFCURVE",
"249 657 CURVE SMOOTH",
"239 657 OFFCURVE",
"229 657 OFFCURVE",
"224 658 CURVE",
"184 659 OFFCURVE",
"148 660 OFFCURVE",
"114 660 CURVE SMOOTH",
"107 660 OFFCURVE",
"99 657 OFFCURVE",
"96 651 CURVE SMOOTH",
"89 640 OFFCURVE",
"86 623 OFFCURVE",
"86 604 CURVE SMOOTH",
"86 580 LINE SMOOTH",
"86 534 OFFCURVE",
"83 499 OFFCURVE",
"81 466 CURVE",
"76 464 LINE",
"36 454 LINE",
"25 450 OFFCURVE",
"10 433 OFFCURVE",
"10 422 CURVE SMOOTH",
"11 305 LINE SMOOTH",
"11 291 OFFCURVE",
"20 284 OFFCURVE",
"37 284 CURVE SMOOTH",
"42 284 OFFCURVE",
"65 289 OFFCURVE",
"81 293 CURVE",
"81 20 LINE SMOOTH",
"81 6 OFFCURVE",
"95 -7 OFFCURVE",
"108 -7 CURVE SMOOTH",
"193 -8 LINE SMOOTH",
"207 -8 OFFCURVE",
"230 -9 OFFCURVE",
"261 -9 CURVE SMOOTH",
"293 -9 OFFCURVE",
"345 -10 OFFCURVE",
"416 -10 CURVE SMOOTH",
"567 -10 LINE SMOOTH"
);
}
);
width = 665;
}
);
leftKerningGroup = H;
note = Lslash;
rightKerningGroup = L;
rightMetricsKey = "=L";
unicode = 0141;
},
{
color = 6;
glyphname = M;
lastChange = "2023-02-22 08:59:45 +0000";
layers = (
{
anchors = (
{
name = bottom;
position = "{476, 0}";
},
{
name = top;
position = "{476, 655}";
}
);
background = {
anchors = (
{
name = bottom;
position = "{476, 0}";
},
{
name = top;
position = "{476, 676}";
}
);
paths = (
{
closed = 1;
nodes = (
"180 -10 OFFCURVE",
"196 -6 OFFCURVE",
"212 -5 CURVE SMOOTH",
"225 -4 OFFCURVE",
"243 -2 OFFCURVE",
"266 -1 CURVE",
"271 -2 LINE",
"278 -2 LINE SMOOTH",
"280 -2 OFFCURVE",
"282 2 OFFCURVE",
"283 10 CURVE",
"290 37 OFFCURVE",
"292 92 OFFCURVE",
"292 184 CURVE SMOOTH",
"292 230 LINE SMOOTH",
"292 235 OFFCURVE",
"294 238 OFFCURVE",
"299 238 CURVE SMOOTH",
"300 238 OFFCURVE",
"301 233 OFFCURVE",
"307 225 CURVE SMOOTH",
"332 189 LINE",
"355 138 OFFCURVE",
"399 93 OFFCURVE",
"426 50 CURVE",
"446 50 LINE",
"468 50 LINE",
"473 49 OFFCURVE",
"480 48 OFFCURVE",
"487 48 CURVE SMOOTH",
"502 48 LINE SMOOTH",
"508 48 OFFCURVE",
"515 50 OFFCURVE",
"523 55 CURVE",
"552 76 OFFCURVE",
"571 115 OFFCURVE",
"582 142 CURVE SMOOTH",
"587 154 LINE",
"591 161 OFFCURVE",
"593 169 OFFCURVE",
"596 177 CURVE SMOOTH",
"605 202 LINE",
"616 228 LINE SMOOTH",
"619 235 OFFCURVE",
"621 238 OFFCURVE",
"624 238 CURVE SMOOTH",
"629 238 OFFCURVE",
"631 235 OFFCURVE",
"631 230 CURVE SMOOTH",
"631 208 OFFCURVE",
"631 191 OFFCURVE",
"632 179 CURVE",
"633 125 LINE",
"634 113 OFFCURVE",
"634 97 OFFCURVE",
"634 76 CURVE SMOOTH",
"634 44 OFFCURVE",
"636 21 OFFCURVE",
"640 9 CURVE",
"641 2 OFFCURVE",
"643 -2 OFFCURVE",
"646 -2 CURVE SMOOTH",
"654 -2 LINE",
"655 -1 OFFCURVE",
"656 -1 OFFCURVE",
"657 -1 CURVE",
"695 -4 LINE",
"712 -4 OFFCURVE",
"724 -6 OFFCURVE",
"733 -7 CURVE",
"758 -8 LINE SMOOTH",
"779 -9 OFFCURVE",
"795 -10 OFFCURVE",
"807 -10 CURVE SMOOTH",
"814 -10 OFFCURVE",
"819 -9 OFFCURVE",
"824 -8 CURVE",
"844 -8 LINE",
"862 -8 LINE",
"869 -8 LINE",
"913 3 LINE",
"916 10 LINE",
"916 21 LINE",
"916 50 LINE",
"913 65 OFFCURVE",
"913 95 OFFCURVE",
"913 134 CURVE SMOOTH",
"913 153 OFFCURVE",
"913 167 OFFCURVE",
"912 176 CURVE",
"912 210 LINE",
"914 230 LINE",
"915 246 OFFCURVE",
"921 314 OFFCURVE",
"921 359 CURVE SMOOTH",
"921 416 LINE SMOOTH",
"921 476 OFFCURVE",
"920 519 OFFCURVE",
"919 547 CURVE SMOOTH",
"916 644 LINE",
"914 654 OFFCURVE",
"912 659 OFFCURVE",
"911 659 CURVE SMOOTH",
"889 659 LINE",
"877 659 LINE",
"867 659 LINE",
"852 659 LINE",
"684 659 LINE",
"607 659 LINE SMOOTH",
"606 659 OFFCURVE",
"605 658 OFFCURVE",
"604 657 CURVE SMOOTH",
"603 656 OFFCURVE",
"602 655 OFFCURVE",
"600 654 CURVE",
"597 651 OFFCURVE",
"594 647 OFFCURVE",
"591 642 CURVE",
"581 627 OFFCURVE",
"576 617 OFFCURVE",
"573 611 CURVE",
"572 610 OFFCURVE",
"571 608 OFFCURVE",
"570 605 CURVE",
"569 601 OFFCURVE",
"567 596 OFFCURVE",
"565 591 CURVE",
"548 555 LINE",
"508 471 LINE",
"493 438 LINE",
"490 433 OFFCURVE",
"489 429 OFFCURVE",
"488 427 CURVE",
"487 424 OFFCURVE",
"487 423 OFFCURVE",
"486 422 CURVE",
"482 411 OFFCURVE",
"478 387 OFFCURVE",
"471 387 CURVE SMOOTH",
"466 387 OFFCURVE",
"443 411 OFFCURVE",
"438 422 CURVE",
"438 423 OFFCURVE",
"437 424 OFFCURVE",
"436 427 CURVE",
"434 429 OFFCURVE",
"432 432 OFFCURVE",
"431 437 CURVE",
"429 442 OFFCURVE",
"427 448 OFFCURVE",
"425 453 CURVE",
"422 458 OFFCURVE",
"420 464 OFFCURVE",
"418 469 CURVE SMOOTH",
"410 488 OFFCURVE",
"405 502 OFFCURVE",
"400 511 CURVE",
"377 542 LINE SMOOTH",
"363 561 OFFCURVE",
"363 580 OFFCURVE",
"358 591 CURVE",
"340 611 OFFCURVE",
"336 619 OFFCURVE",
"332 627 CURVE",
"324 640 OFFCURVE",
"317 649 OFFCURVE",
"312 654 CURVE SMOOTH",
"311 655 OFFCURVE",
"309 656 OFFCURVE",
"308 657 CURVE SMOOTH",
"307 658 OFFCURVE",
"306 659 OFFCURVE",
"305 659 CURVE SMOOTH",
"228 659 LINE",
"100 659 LINE SMOOTH",
"83 659 OFFCURVE",
"71 657 OFFCURVE",
"60 654 CURVE SMOOTH",
"44 650 OFFCURVE",
"32 640 OFFCURVE",
"32 627 CURVE SMOOTH",
"32 626 OFFCURVE",
"33 624 OFFCURVE",
"34 623 CURVE SMOOTH",
"35 622 OFFCURVE",
"35 621 OFFCURVE",
"35 620 CURVE SMOOTH",
"35 610 OFFCURVE",
"35 602 OFFCURVE",
"36 595 CURVE",
"37 567 LINE",
"37 548 OFFCURVE",
"36 528 OFFCURVE",
"35 506 CURVE",
"33 488 OFFCURVE",
"32 471 OFFCURVE",
"32 454 CURVE",
"33 447 LINE",
"33 442 OFFCURVE",
"34 438 OFFCURVE",
"35 436 CURVE",
"35 423 LINE",
"35 416 LINE SMOOTH",
"35 368 OFFCURVE",
"34 333 OFFCURVE",
"33 312 CURVE SMOOTH",
"32 279 LINE SMOOTH",
"31 250 OFFCURVE",
"30 227 OFFCURVE",
"30 210 CURVE SMOOTH",
"32 134 LINE SMOOTH",
"33 114 OFFCURVE",
"32 100 OFFCURVE",
"33 90 CURVE",
"34 44 LINE",
"35 38 OFFCURVE",
"35 30 OFFCURVE",
"35 21 CURVE SMOOTH",
"35 14 OFFCURVE",
"35 10 OFFCURVE",
"36 10 CURVE",
"40 3 LINE",
"84 -8 LINE",
"91 -8 LINE",
"109 -8 LINE",
"129 -8 LINE",
"133 -9 OFFCURVE",
"138 -10 OFFCURVE",
"145 -10 CURVE SMOOTH"
);
}
);
};
layerId = "CBDECE4A-293B-4E5C-B714-A3FD26C7130D";
paths = (
{
closed = 1;
nodes = (
"180 -10 OFFCURVE",
"196 -6 OFFCURVE",
"212 -5 CURVE SMOOTH",
"225 -4 OFFCURVE",
"243 -2 OFFCURVE",
"266 -1 CURVE",
"271 -2 LINE",
"278 -2 LINE SMOOTH",
"280 -2 OFFCURVE",
"282 2 OFFCURVE",
"283 10 CURVE",
"290 37 OFFCURVE",
"292 92 OFFCURVE",
"292 184 CURVE SMOOTH",
"292 230 LINE SMOOTH",
"292 235 OFFCURVE",
"294 238 OFFCURVE",
"299 238 CURVE SMOOTH",
"300 238 OFFCURVE",
"301 233 OFFCURVE",
"307 225 CURVE SMOOTH",
"332 189 LINE",
"355 138 OFFCURVE",
"399 93 OFFCURVE",
"426 50 CURVE",
"468 50 LINE",
"473 49 OFFCURVE",
"480 48 OFFCURVE",
"487 48 CURVE SMOOTH",
"502 48 LINE SMOOTH",
"508 48 OFFCURVE",
"515 50 OFFCURVE",
"523 55 CURVE SMOOTH",
"552 76 OFFCURVE",
"571 115 OFFCURVE",
"582 142 CURVE SMOOTH",
"587 154 LINE SMOOTH",
"591 161 OFFCURVE",
"593 169 OFFCURVE",
"596 177 CURVE SMOOTH",
"605 202 LINE",
"616 228 LINE SMOOTH",
"619 235 OFFCURVE",
"621 238 OFFCURVE",
"624 238 CURVE SMOOTH",
"629 238 OFFCURVE",
"631 235 OFFCURVE",
"631 230 CURVE SMOOTH",
"631 208 OFFCURVE",
"631 191 OFFCURVE",
"632 179 CURVE SMOOTH",
"633 125 LINE SMOOTH",
"634 113 OFFCURVE",
"634 97 OFFCURVE",
"634 76 CURVE SMOOTH",
"634 44 OFFCURVE",
"636 21 OFFCURVE",
"640 9 CURVE",
"641 2 OFFCURVE",
"643 -2 OFFCURVE",
"646 -2 CURVE SMOOTH",
"654 -2 LINE",
"655 -1 OFFCURVE",
"656 -1 OFFCURVE",
"657 -1 CURVE SMOOTH",
"695 -4 LINE SMOOTH",
"712 -4 OFFCURVE",
"724 -6 OFFCURVE",
"733 -7 CURVE SMOOTH",
"758 -8 LINE SMOOTH",
"779 -9 OFFCURVE",
"795 -10 OFFCURVE",
"807 -10 CURVE SMOOTH",
"814 -10 OFFCURVE",
"819 -9 OFFCURVE",
"824 -8 CURVE",
"869 -8 LINE",
"913 3 LINE",
"916 10 LINE",
"916 50 LINE",
"913 65 OFFCURVE",
"913 95 OFFCURVE",
"913 134 CURVE SMOOTH",
"913 153 OFFCURVE",
"913 167 OFFCURVE",
"912 176 CURVE",
"912 210 LINE",
"914 230 LINE SMOOTH",
"915 246 OFFCURVE",
"921 314 OFFCURVE",
"921 359 CURVE SMOOTH",
"921 416 LINE SMOOTH",
"921 476 OFFCURVE",
"920 519 OFFCURVE",
"919 547 CURVE SMOOTH",
"916 644 LINE",
"914 654 OFFCURVE",
"912 659 OFFCURVE",
"911 659 CURVE SMOOTH",
"607 659 LINE SMOOTH",
"606 659 OFFCURVE",
"605 658 OFFCURVE",
"604 657 CURVE SMOOTH",
"603 656 OFFCURVE",
"602 655 OFFCURVE",
"600 654 CURVE",
"597 651 OFFCURVE",
"594 647 OFFCURVE",
"591 642 CURVE SMOOTH",
"581 627 OFFCURVE",
"576 617 OFFCURVE",
"573 611 CURVE",
"572 610 OFFCURVE",
"571 608 OFFCURVE",
"570 605 CURVE SMOOTH",
"569 601 OFFCURVE",
"567 596 OFFCURVE",
"565 591 CURVE SMOOTH",
"548 555 LINE",
"508 471 LINE",
"493 438 LINE SMOOTH",
"490 433 OFFCURVE",
"489 429 OFFCURVE",
"488 427 CURVE SMOOTH",
"487 424 OFFCURVE",
"487 423 OFFCURVE",
"486 422 CURVE",
"482 411 OFFCURVE",
"478 387 OFFCURVE",
"471 387 CURVE SMOOTH",
"466 387 OFFCURVE",
"443 411 OFFCURVE",
"438 422 CURVE",
"438 423 OFFCURVE",
"437 424 OFFCURVE",
"436 427 CURVE",
"434 429 OFFCURVE",
"432 432 OFFCURVE",
"431 437 CURVE",
"425 453 LINE",
"422 458 OFFCURVE",
"420 464 OFFCURVE",
"418 469 CURVE SMOOTH",
"410 488 OFFCURVE",
"405 502 OFFCURVE",
"400 511 CURVE",
"377 542 LINE SMOOTH",
"363 561 OFFCURVE",
"363 580 OFFCURVE",
"358 591 CURVE",
"340 611 OFFCURVE",
"336 619 OFFCURVE",
"332 627 CURVE SMOOTH",
"324 640 OFFCURVE",
"317 649 OFFCURVE",
"312 654 CURVE SMOOTH",
"308 657 LINE SMOOTH",
"307 658 OFFCURVE",
"306 659 OFFCURVE",
"305 659 CURVE SMOOTH",
"100 659 LINE SMOOTH",
"83 659 OFFCURVE",
"71 657 OFFCURVE",
"60 654 CURVE SMOOTH",
"44 650 OFFCURVE",
"32 640 OFFCURVE",
"32 627 CURVE SMOOTH",
"32 626 OFFCURVE",
"33 624 OFFCURVE",
"34 623 CURVE SMOOTH",
"35 622 OFFCURVE",
"35 621 OFFCURVE",
"35 620 CURVE SMOOTH",
"35 610 OFFCURVE",
"35 602 OFFCURVE",
"36 595 CURVE SMOOTH",
"37 567 LINE SMOOTH",
"37 548 OFFCURVE",
"36 528 OFFCURVE",
"35 506 CURVE SMOOTH",
"33 488 OFFCURVE",
"32 471 OFFCURVE",
"32 454 CURVE",
"33 447 LINE SMOOTH",
"33 442 OFFCURVE",
"34 438 OFFCURVE",
"35 436 CURVE",
"35 416 LINE SMOOTH",
"35 368 OFFCURVE",
"34 333 OFFCURVE",
"33 312 CURVE SMOOTH",
"32 279 LINE SMOOTH",
"31 250 OFFCURVE",
"30 227 OFFCURVE",
"30 210 CURVE SMOOTH",
"32 134 LINE SMOOTH",
"33 114 OFFCURVE",
"32 100 OFFCURVE",
"33 90 CURVE SMOOTH",
"34 44 LINE",
"35 38 OFFCURVE",
"35 30 OFFCURVE",
"35 21 CURVE SMOOTH",
"35 14 OFFCURVE",
"35 10 OFFCURVE",
"36 10 CURVE",
"40 3 LINE",
"84 -8 LINE",
"129 -8 LINE",
"133 -9 OFFCURVE",
"138 -10 OFFCURVE",
"145 -10 CURVE SMOOTH"
);
}
);
width = 951;
}
);
leftKerningGroup = H;
leftMetricsKey = "=H";
note = M;
rightKerningGroup = H;
rightMetricsKey = "=H";
unicode = 004D;
},
{
color = 6;
glyphname = N;
lastChange = "2023-02-22 08:59:45 +0000";
layers = (
{
anchors = (
{
name = bottom;
position = "{404, 0}";
},
{
name = top;
position = "{404, 655}";
}
);
background = {
anchors = (
{
name = bottom;
position = "{404, 0}";
},
{
name = top;
position = "{404, 676}";
}
);
paths = (
{
closed = 1;
nodes = (
"158 -5 OFFCURVE",
"202 -3 OFFCURVE",
"220 -1 CURVE SMOOTH",
"231 0 OFFCURVE",
"249 4 OFFCURVE",
"274 5 CURVE",
"280 4 OFFCURVE",
"285 4 OFFCURVE",
"288 6 CURVE",
"292 6 OFFCURVE",
"296 11 OFFCURVE",
"296 14 CURVE",
"294 20 LINE",
"294 33 LINE",
"294 55 LINE SMOOTH",
"294 66 OFFCURVE",
"296 75 OFFCURVE",
"297 83 CURVE",
"297 121 LINE",
"297 160 LINE SMOOTH",
"297 175 OFFCURVE",
"297 186 OFFCURVE",
"298 193 CURVE",
"298 215 LINE SMOOTH",
"298 220 OFFCURVE",
"300 222 OFFCURVE",
"308 222 CURVE SMOOTH",
"309 222 OFFCURVE",
"309 221 OFFCURVE",
"311 221 CURVE",
"312 219 OFFCURVE",
"315 216 OFFCURVE",
"316 214 CURVE",
"325 203 OFFCURVE",
"352 177 OFFCURVE",
"352 176 CURVE",
"522 14 LINE",
"537 5 OFFCURVE",
"554 -5 OFFCURVE",
"580 -3 CURVE",
"595 -3 LINE",
"655 -3 LINE",
"676 -3 LINE",
"719 -3 LINE",
"736 -4 LINE",
"752 -3 LINE",
"760 1 OFFCURVE",
"767 11 OFFCURVE",
"769 23 CURVE",
"773 63 LINE",
"773 219 LINE",
"773 252 LINE",
"773 310 LINE SMOOTH",
"773 339 OFFCURVE",
"773 365 OFFCURVE",
"775 382 CURVE",
"775 455 LINE SMOOTH",
"775 481 OFFCURVE",
"775 502 OFFCURVE",
"776 513 CURVE",
"776 543 LINE",
"773 554 LINE",
"773 562 LINE",
"773 574 LINE SMOOTH",
"773 581 OFFCURVE",
"773 586 OFFCURVE",
"775 589 CURVE",
"776 606 LINE",
"777 616 LINE",
"777 651 OFFCURVE",
"766 657 OFFCURVE",
"731 657 CURVE SMOOTH",
"718 657 LINE",
"689 657 LINE",
"657 657 LINE",
"647 659 OFFCURVE",
"678 659 OFFCURVE",
"663 659 CURVE SMOOTH",
"649 659 OFFCURVE",
"639 659 OFFCURVE",
"634 660 CURVE",
"623 660 LINE",
"566 660 LINE SMOOTH",
"563 660 OFFCURVE",
"556 659 OFFCURVE",
"550 657 CURVE",
"542 655 OFFCURVE",
"534 650 OFFCURVE",
"526 642 CURVE",
"525 642 OFFCURVE",
"524 642 OFFCURVE",
"523 641 CURVE SMOOTH",
"522 640 OFFCURVE",
"520 638 OFFCURVE",
"520 636 CURVE SMOOTH",
"520 634 OFFCURVE",
"519 631 OFFCURVE",
"518 625 CURVE",
"515 555 LINE",
"515 464 LINE",
"514 454 OFFCURVE",
"514 438 OFFCURVE",
"514 421 CURVE",
"481 451 LINE",
"346 580 LINE SMOOTH",
"338 588 OFFCURVE",
"330 604 OFFCURVE",
"318 622 CURVE SMOOTH",
"310 634 OFFCURVE",
"312 627 OFFCURVE",
"303 638 CURVE",
"300 642 OFFCURVE",
"285 662 OFFCURVE",
"280 666 CURVE SMOOTH",
"272 672 OFFCURVE",
"259 671 OFFCURVE",
"239 671 CURVE SMOOTH",
"229 671 OFFCURVE",
"204 668 OFFCURVE",
"167 666 CURVE SMOOTH",
"144 665 LINE",
"104 664 OFFCURVE",
"104 663 OFFCURVE",
"79 663 CURVE SMOOTH",
"47 663 OFFCURVE",
"28 655 OFFCURVE",
"32 624 CURVE",
"33 614 OFFCURVE",
"33 597 OFFCURVE",
"33 573 CURVE SMOOTH",
"33 551 OFFCURVE",
"33 532 OFFCURVE",
"32 521 CURVE",
"30 420 LINE SMOOTH",
"29 353 OFFCURVE",
"30 275 OFFCURVE",
"37 215 CURVE",
"37 181 LINE",
"38 172 OFFCURVE",
"38 157 OFFCURVE",
"38 137 CURVE",
"39 128 OFFCURVE",
"40 113 OFFCURVE",
"40 94 CURVE SMOOTH",
"40 68 OFFCURVE",
"41 46 OFFCURVE",
"42 24 CURVE",
"42 19 OFFCURVE",
"42 14 OFFCURVE",
"44 14 CURVE",
"46 7 LINE",
"90 -4 LINE",
"99 -4 LINE",
"116 -4 LINE",
"135 -4 LINE",
"140 -4 OFFCURVE",
"145 -5 OFFCURVE",
"152 -5 CURVE SMOOTH"
);
}
);
};
layerId = "CBDECE4A-293B-4E5C-B714-A3FD26C7130D";
paths = (
{
closed = 1;
nodes = (
"158 -5 OFFCURVE",
"202 -3 OFFCURVE",
"220 -1 CURVE SMOOTH",
"231 0 OFFCURVE",
"249 4 OFFCURVE",
"274 5 CURVE",
"280 4 OFFCURVE",
"285 4 OFFCURVE",
"288 6 CURVE",
"292 6 OFFCURVE",
"296 11 OFFCURVE",
"296 14 CURVE",
"294 20 LINE",
"294 55 LINE SMOOTH",
"294 66 OFFCURVE",
"296 75 OFFCURVE",
"297 83 CURVE",
"297 160 LINE SMOOTH",
"297 175 OFFCURVE",
"297 186 OFFCURVE",
"298 193 CURVE",
"298 215 LINE SMOOTH",
"298 220 OFFCURVE",
"300 222 OFFCURVE",
"308 222 CURVE SMOOTH",
"309 222 OFFCURVE",
"309 221 OFFCURVE",
"311 221 CURVE",
"312 219 OFFCURVE",
"315 216 OFFCURVE",
"316 214 CURVE",
"325 203 OFFCURVE",
"352 177 OFFCURVE",
"352 176 CURVE",
"522 14 LINE",
"537 5 OFFCURVE",
"554 -5 OFFCURVE",
"580 -3 CURVE",
"719 -3 LINE",
"736 -4 LINE",
"752 -3 LINE",
"760 1 OFFCURVE",
"767 11 OFFCURVE",
"769 23 CURVE SMOOTH",
"773 63 LINE",
"773 310 LINE SMOOTH",
"773 339 OFFCURVE",
"773 365 OFFCURVE",
"775 382 CURVE",
"775 455 LINE SMOOTH",
"775 481 OFFCURVE",
"775 502 OFFCURVE",
"776 513 CURVE SMOOTH",
"776 543 LINE",
"773 554 LINE",
"773 574 LINE SMOOTH",
"773 581 OFFCURVE",
"773 586 OFFCURVE",
"775 589 CURVE",
"776 606 LINE",
"777 616 LINE SMOOTH",
"777 651 OFFCURVE",
"766 657 OFFCURVE",
"731 657 CURVE SMOOTH",
"657 657 LINE",
"647 659 OFFCURVE",
"678 659 OFFCURVE",
"663 659 CURVE SMOOTH",
"649 659 OFFCURVE",
"639 659 OFFCURVE",
"634 660 CURVE",
"566 660 LINE SMOOTH",
"563 660 OFFCURVE",
"556 659 OFFCURVE",
"550 657 CURVE SMOOTH",
"542 655 OFFCURVE",
"534 650 OFFCURVE",
"526 642 CURVE",
"525 642 OFFCURVE",
"524 642 OFFCURVE",
"523 641 CURVE SMOOTH",
"522 640 OFFCURVE",
"520 638 OFFCURVE",
"520 636 CURVE SMOOTH",
"520 634 OFFCURVE",
"519 631 OFFCURVE",
"518 625 CURVE",
"515 555 LINE",
"515 464 LINE",
"514 454 OFFCURVE",
"514 438 OFFCURVE",
"514 421 CURVE",
"481 451 LINE",
"346 580 LINE SMOOTH",
"338 588 OFFCURVE",
"330 604 OFFCURVE",
"318 622 CURVE SMOOTH",
"310 634 OFFCURVE",
"312 627 OFFCURVE",
"303 638 CURVE SMOOTH",
"300 642 OFFCURVE",
"285 662 OFFCURVE",
"280 666 CURVE SMOOTH",
"272 672 OFFCURVE",
"259 671 OFFCURVE",
"239 671 CURVE SMOOTH",
"229 671 OFFCURVE",
"204 668 OFFCURVE",
"167 666 CURVE SMOOTH",
"144 665 LINE SMOOTH",
"104 664 OFFCURVE",
"104 663 OFFCURVE",
"79 663 CURVE SMOOTH",
"47 663 OFFCURVE",
"28 655 OFFCURVE",
"32 624 CURVE SMOOTH",
"33 614 OFFCURVE",
"33 597 OFFCURVE",
"33 573 CURVE SMOOTH",
"33 551 OFFCURVE",
"33 532 OFFCURVE",
"32 521 CURVE SMOOTH",
"30 420 LINE SMOOTH",
"29 353 OFFCURVE",
"30 275 OFFCURVE",
"37 215 CURVE",
"37 181 LINE",
"38 172 OFFCURVE",
"38 157 OFFCURVE",
"38 137 CURVE SMOOTH",
"39 128 OFFCURVE",
"40 113 OFFCURVE",
"40 94 CURVE SMOOTH",
"40 68 OFFCURVE",
"41 46 OFFCURVE",
"42 24 CURVE SMOOTH",
"42 19 OFFCURVE",
"42 14 OFFCURVE",
"44 14 CURVE",
"46 7 LINE",
"90 -4 LINE",
"135 -4 LINE SMOOTH",
"140 -4 OFFCURVE",
"145 -5 OFFCURVE",
"152 -5 CURVE SMOOTH"
);
}
);
width = 807;
}
);
leftKerningGroup = H;
leftMetricsKey = "=H";
note = N;
rightKerningGroup = H;
rightMetricsKey = "=H";
unicode = 004E;
},
{
color = 6;
glyphname = Eng;
lastChange = "2023-02-22 08:59:45 +0000";
layers = (
{
background = {
paths = (
{
closed = 1;
nodes = (
"785 590 OFFCURVE",
"785 595 OFFCURVE",
"786 599 CURVE",
"787 615 LINE",
"788 625 LINE",
"788 661 OFFCURVE",
"777 668 OFFCURVE",
"742 668 CURVE SMOOTH",
"668 668 LINE",
"659 669 OFFCURVE",
"648 669 OFFCURVE",
"633 669 CURVE SMOOTH",
"620 669 OFFCURVE",
"610 669 OFFCURVE",
"605 670 CURVE",
"536 670 LINE SMOOTH",
"532 670 OFFCURVE",
"527 669 OFFCURVE",
"520 668 CURVE",
"512 665 OFFCURVE",
"504 660 OFFCURVE",
"496 653 CURVE",
"493 651 LINE",
"492 650 OFFCURVE",
"491 648 OFFCURVE",
"490 646 CURVE SMOOTH",
"489 644 OFFCURVE",
"489 640 OFFCURVE",
"488 635 CURVE",
"485 564 LINE",
"485 471 LINE",
"484 461 OFFCURVE",
"483 447 OFFCURVE",
"483 430 CURVE",
"451 478 LINE",
"385 579 LINE SMOOTH",
"378 589 OFFCURVE",
"368 603 OFFCURVE",
"356 621 CURVE SMOOTH",
"348 633 OFFCURVE",
"340 644 OFFCURVE",
"332 655 CURVE",
"329 660 OFFCURVE",
"323 672 OFFCURVE",
"316 676 CURVE SMOOTH",
"309 680 OFFCURVE",
"296 681 OFFCURVE",
"277 681 CURVE SMOOTH",
"267 681 OFFCURVE",
"242 680 OFFCURVE",
"202 677 CURVE SMOOTH",
"180 675 LINE",
"141 674 OFFCURVE",
"110 673 OFFCURVE",
"85 673 CURVE SMOOTH",
"52 673 OFFCURVE",
"33 665 OFFCURVE",
"37 634 CURVE",
"38 623 OFFCURVE",
"38 605 OFFCURVE",
"38 582 CURVE SMOOTH",
"38 559 OFFCURVE",
"38 541 OFFCURVE",
"37 530 CURVE",
"35 428 LINE SMOOTH",
"35 359 OFFCURVE",
"35 281 OFFCURVE",
"42 220 CURVE",
"42 185 LINE",
"43 176 OFFCURVE",
"43 162 OFFCURVE",
"43 143 CURVE",
"44 132 OFFCURVE",
"45 117 OFFCURVE",
"45 98 CURVE SMOOTH",
"45 72 OFFCURVE",
"46 49 OFFCURVE",
"47 29 CURVE",
"47 22 OFFCURVE",
"47 18 OFFCURVE",
"48 18 CURVE",
"51 10 LINE",
"96 -1 LINE",
"141 -1 LINE",
"146 -2 OFFCURVE",
"151 -3 OFFCURVE",
"158 -3 CURVE SMOOTH",
"193 -3 OFFCURVE",
"240 1 OFFCURVE",
"256 2 CURVE SMOOTH",
"269 3 OFFCURVE",
"287 5 OFFCURVE",
"310 6 CURVE",
"317 5 OFFCURVE",
"323 5 OFFCURVE",
"326 8 CURVE",
"331 9 OFFCURVE",
"334 13 OFFCURVE",
"334 18 CURVE",
"333 23 LINE",
"333 58 LINE SMOOTH",
"333 70 OFFCURVE",
"334 80 OFFCURVE",
"335 88 CURVE",
"335 165 LINE SMOOTH",
"335 180 OFFCURVE",
"335 191 OFFCURVE",
"336 198 CURVE",
"336 220 LINE SMOOTH",
"336 225 OFFCURVE",
"339 228 OFFCURVE",
"345 228 CURVE SMOOTH",
"346 228 OFFCURVE",
"347 227 OFFCURVE",
"349 226 CURVE",
"350 224 OFFCURVE",
"352 222 OFFCURVE",
"353 219 CURVE",
"362 207 OFFCURVE",
"390 162 OFFCURVE",
"390 161 CURVE",
"480 34 LINE",
"479 -1 OFFCURVE",
"479 -25 OFFCURVE",
"479 -42 CURVE SMOOTH",
"479 -57 OFFCURVE",
"479 -58 OFFCURVE",
"478 -63 CURVE",
"478 -63 OFFCURVE",
"476 -70 OFFCURVE",
"474 -81 CURVE SMOOTH",
"472 -91 OFFCURVE",
"470 -97 OFFCURVE",
"468 -100 CURVE",
"463 -117 OFFCURVE",
"452 -126 OFFCURVE",
"441 -126 CURVE SMOOTH",
"417 -126 OFFCURVE",
"411 -122 OFFCURVE",
"350 -100 CURVE",
"342 -94 OFFCURVE",
"339 -99 OFFCURVE",
"339 -100 CURVE",
"338 -101 OFFCURVE",
"338 -101 OFFCURVE",
"338 -103 CURVE SMOOTH",
"338 -105 OFFCURVE",
"337 -110 OFFCURVE",
"337 -117 CURVE",
"333 -135 OFFCURVE",
"333 -213 OFFCURVE",
"333 -229 CURVE",
"330 -246 LINE",
"328 -265 LINE",
"328 -268 OFFCURVE",
"328 -268 OFFCURVE",
"329 -269 CURVE",
"367 -287 LINE SMOOTH",
"415 -310 OFFCURVE",
"435 -318 OFFCURVE",
"493 -318 CURVE SMOOTH",
"514 -318 OFFCURVE",
"535 -320 OFFCURVE",
"559 -317 CURVE",
"676 -315 OFFCURVE",
"754 -252 OFFCURVE",
"774 -146 CURVE SMOOTH",
"780 -115 OFFCURVE",
"781 -88 OFFCURVE",
"781 -52 CURVE",
"782 -45 LINE",
"782 -29 LINE SMOOTH",
"782 -19 OFFCURVE",
"782 -11 OFFCURVE",
"783 -7 CURVE",
"784 -4 OFFCURVE",
"784 -1 OFFCURVE",
"784 2 CURVE",
"783 6 OFFCURVE",
"783 9 OFFCURVE",
"784 12 CURVE",
"784 20 LINE SMOOTH",
"784 23 OFFCURVE",
"784 27 OFFCURVE",
"785 27 CURVE",
"785 316 LINE SMOOTH",
"785 347 OFFCURVE",
"785 372 OFFCURVE",
"786 389 CURVE",
"786 463 LINE SMOOTH",
"786 490 OFFCURVE",
"786 510 OFFCURVE",
"787 521 CURVE",
"787 553 LINE",
"785 563 LINE",
"785 583 LINE SMOOTH"
);
}
);
};
layerId = "CBDECE4A-293B-4E5C-B714-A3FD26C7130D";
paths = (
{
closed = 1;
nodes = (
"785 590 OFFCURVE",
"785 595 OFFCURVE",
"786 599 CURVE",
"787 615 LINE",
"788 625 LINE SMOOTH",
"788 661 OFFCURVE",
"777 668 OFFCURVE",
"742 668 CURVE SMOOTH",
"668 668 LINE",
"659 669 OFFCURVE",
"648 669 OFFCURVE",
"633 669 CURVE SMOOTH",
"620 669 OFFCURVE",
"610 669 OFFCURVE",
"605 670 CURVE",
"536 670 LINE SMOOTH",
"532 670 OFFCURVE",
"527 669 OFFCURVE",
"520 668 CURVE",
"512 665 OFFCURVE",
"504 660 OFFCURVE",
"496 653 CURVE SMOOTH",
"493 651 LINE SMOOTH",
"492 650 OFFCURVE",
"491 648 OFFCURVE",
"490 646 CURVE SMOOTH",
"489 644 OFFCURVE",
"489 640 OFFCURVE",
"488 635 CURVE",
"485 564 LINE",
"485 471 LINE",
"484 461 OFFCURVE",
"483 447 OFFCURVE",
"483 430 CURVE",
"451 478 LINE",
"385 579 LINE SMOOTH",
"378 589 OFFCURVE",
"368 603 OFFCURVE",
"356 621 CURVE SMOOTH",
"348 633 OFFCURVE",
"340 644 OFFCURVE",
"332 655 CURVE SMOOTH",
"329 660 OFFCURVE",
"323 672 OFFCURVE",
"316 676 CURVE SMOOTH",
"309 680 OFFCURVE",
"296 681 OFFCURVE",
"277 681 CURVE SMOOTH",
"267 681 OFFCURVE",
"242 680 OFFCURVE",
"202 677 CURVE SMOOTH",
"180 675 LINE SMOOTH",
"141 674 OFFCURVE",
"110 673 OFFCURVE",
"85 673 CURVE SMOOTH",
"52 673 OFFCURVE",
"33 665 OFFCURVE",
"37 634 CURVE SMOOTH",
"38 623 OFFCURVE",
"38 605 OFFCURVE",
"38 582 CURVE SMOOTH",
"38 559 OFFCURVE",
"38 541 OFFCURVE",
"37 530 CURVE SMOOTH",
"35 428 LINE SMOOTH",
"35 359 OFFCURVE",
"35 281 OFFCURVE",
"42 220 CURVE",
"42 185 LINE",
"43 176 OFFCURVE",
"43 162 OFFCURVE",
"43 143 CURVE SMOOTH",
"44 132 OFFCURVE",
"45 117 OFFCURVE",
"45 98 CURVE SMOOTH",
"45 72 OFFCURVE",
"46 49 OFFCURVE",
"47 29 CURVE SMOOTH",
"47 22 OFFCURVE",
"47 18 OFFCURVE",
"48 18 CURVE",
"51 10 LINE",
"96 -1 LINE",
"141 -1 LINE",
"146 -2 OFFCURVE",
"151 -3 OFFCURVE",
"158 -3 CURVE SMOOTH",
"193 -3 OFFCURVE",
"240 1 OFFCURVE",
"256 2 CURVE SMOOTH",
"269 3 OFFCURVE",
"287 5 OFFCURVE",
"310 6 CURVE",
"317 5 OFFCURVE",
"323 5 OFFCURVE",
"326 8 CURVE",
"331 9 OFFCURVE",
"334 13 OFFCURVE",
"334 18 CURVE SMOOTH",
"333 23 LINE",
"333 58 LINE SMOOTH",
"333 70 OFFCURVE",
"334 80 OFFCURVE",
"335 88 CURVE",
"335 165 LINE SMOOTH",
"335 180 OFFCURVE",
"335 191 OFFCURVE",
"336 198 CURVE",
"336 220 LINE SMOOTH",
"336 225 OFFCURVE",
"339 228 OFFCURVE",
"345 228 CURVE SMOOTH",
"346 228 OFFCURVE",
"347 227 OFFCURVE",
"349 226 CURVE",
"350 224 OFFCURVE",
"352 222 OFFCURVE",
"353 219 CURVE",
"362 207 OFFCURVE",
"390 162 OFFCURVE",
"390 161 CURVE",
"480 34 LINE",
"479 8 OFFCURVE",
"479 -3 OFFCURVE",
"479 -14 CURVE SMOOTH",
"479 -23 OFFCURVE",
"479 -24 OFFCURVE",
"478 -27 CURVE",
"474 -38 LINE",
"472 -44 OFFCURVE",
"470 -48 OFFCURVE",
"468 -49 CURVE",
"463 -60 OFFCURVE",
"452 -66 OFFCURVE",
"441 -66 CURVE SMOOTH",
"417 -66 OFFCURVE",
"411 -63 OFFCURVE",
"350 -49 CURVE",
"342 -45 OFFCURVE",
"339 -48 OFFCURVE",
"339 -49 CURVE",
"338 -50 OFFCURVE",
"338 -50 OFFCURVE",
"338 -51 CURVE SMOOTH",
"338 -52 OFFCURVE",
"337 -55 OFFCURVE",
"337 -60 CURVE",
"333 -71 OFFCURVE",
"333 -170 OFFCURVE",
"333 -183 CURVE",
"330 -197 LINE",
"328 -213 LINE SMOOTH",
"328 -215 OFFCURVE",
"328 -215 OFFCURVE",
"329 -216 CURVE",
"367 -231 LINE SMOOTH",
"415 -250 OFFCURVE",
"435 -256 OFFCURVE",
"493 -256 CURVE SMOOTH",
"514 -256 OFFCURVE",
"535 -258 OFFCURVE",
"559 -255 CURVE",
"676 -254 OFFCURVE",
"754 -202 OFFCURVE",
"774 -115 CURVE SMOOTH",
"780 -90 OFFCURVE",
"781 -67 OFFCURVE",
"781 -38 CURVE",
"782 -32 LINE",
"782 -19 LINE SMOOTH",
"782 -11 OFFCURVE",
"782 -4 OFFCURVE",
"783 -1 CURVE SMOOTH",
"784 2 OFFCURVE",
"784 4 OFFCURVE",
"784 6 CURVE SMOOTH",
"783 10 OFFCURVE",
"783 12 OFFCURVE",
"784 15 CURVE",
"784 21 LINE SMOOTH",
"784 24 OFFCURVE",
"784 27 OFFCURVE",
"785 27 CURVE",
"785 316 LINE SMOOTH",
"785 347 OFFCURVE",
"785 372 OFFCURVE",
"786 389 CURVE SMOOTH",
"786 463 LINE SMOOTH",
"786 490 OFFCURVE",
"786 510 OFFCURVE",
"787 521 CURVE SMOOTH",
"787 553 LINE",
"785 563 LINE",
"785 583 LINE SMOOTH"
);
}
);
width = 823;
}
);
leftKerningGroup = H;
note = Eng;
rightKerningGroup = H;
unicode = 014A;
},
{
color = 6;
glyphname = O;
lastChange = "2023-02-22 08:59:45 +0000";
layers = (
{
anchors = (
{
name = bottom;
position = "{405, 0}";
},
{
name = center;
position = "{405, 338}";
},
{
name = ogonek;
position = "{529, 0}";
},
{
name = top;
position = "{425, 655}";
},
{
name = topleft;
position = "{20, 676}";
},
{
name = topright;
position = "{540, 676}";
}
);
background = {
anchors = (
{
name = bottom;
position = "{405, 0}";
},
{
name = center;
position = "{405, 338}";
},
{
name = ogonek;
position = "{728, 10}";
},
{
name = top;
position = "{425, 676}";
},
{
name = topleft;
position = "{20, 676}";
},
{
name = topright;
position = "{540, 676}";
}
);
paths = (
{
closed = 1;
nodes = (
"573 -26 OFFCURVE",
"687 13 OFFCURVE",
"745 119 CURVE SMOOTH",
"776 176 OFFCURVE",
"789 258 OFFCURVE",
"789 361 CURVE SMOOTH",
"789 435 OFFCURVE",
"770 509 OFFCURVE",
"729 563 CURVE SMOOTH",
"662 651 OFFCURVE",
"530 692 OFFCURVE",
"422 692 CURVE SMOOTH",
"285 692 OFFCURVE",
"172 663 OFFCURVE",
"110 599 CURVE SMOOTH",
"49 536 OFFCURVE",
"20 444 OFFCURVE",
"20 318 CURVE SMOOTH",
"20 221 OFFCURVE",
"39 147 OFFCURVE",
"76 91 CURVE SMOOTH",
"136 1 OFFCURVE",
"260 -26 OFFCURVE",
"412 -26 CURVE SMOOTH"
);
},
{
closed = 1;
nodes = (
"392 104 OFFCURVE",
"377 119 OFFCURVE",
"368 147 CURVE SMOOTH",
"357 182 OFFCURVE",
"349 221 OFFCURVE",
"349 245 CURVE",
"346 267 OFFCURVE",
"346 293 OFFCURVE",
"346 326 CURVE SMOOTH",
"346 374 OFFCURVE",
"346 397 OFFCURVE",
"349 421 CURVE",
"349 447 OFFCURVE",
"352 484 OFFCURVE",
"368 517 CURVE",
"377 539 OFFCURVE",
"392 553 OFFCURVE",
"416 553 CURVE SMOOTH",
"483 553 OFFCURVE",
"488 422 OFFCURVE",
"488 365 CURVE SMOOTH",
"488 341 LINE",
"488 309 LINE SMOOTH",
"488 244 OFFCURVE",
"481 164 OFFCURVE",
"455 139 CURVE SMOOTH",
"436 121 OFFCURVE",
"429 104 OFFCURVE",
"416 104 CURVE SMOOTH"
);
}
);
};
layerId = "CBDECE4A-293B-4E5C-B714-A3FD26C7130D";
paths = (
{
closed = 1;
nodes = (
"573 -26 OFFCURVE",
"687 13 OFFCURVE",
"745 119 CURVE SMOOTH",
"776 176 OFFCURVE",
"789 258 OFFCURVE",
"789 361 CURVE SMOOTH",
"789 435 OFFCURVE",
"770 509 OFFCURVE",
"729 563 CURVE SMOOTH",
"662 651 OFFCURVE",
"530 692 OFFCURVE",
"422 692 CURVE SMOOTH",
"285 692 OFFCURVE",
"172 663 OFFCURVE",
"110 599 CURVE SMOOTH",
"49 536 OFFCURVE",
"20 444 OFFCURVE",
"20 318 CURVE SMOOTH",
"20 221 OFFCURVE",
"39 147 OFFCURVE",
"76 91 CURVE SMOOTH",
"136 1 OFFCURVE",
"260 -26 OFFCURVE",
"412 -26 CURVE SMOOTH"
);
},
{
closed = 1;
nodes = (
"392 104 OFFCURVE",
"377 119 OFFCURVE",
"368 147 CURVE SMOOTH",
"357 182 OFFCURVE",
"349 221 OFFCURVE",
"349 245 CURVE",
"346 267 OFFCURVE",
"346 293 OFFCURVE",
"346 326 CURVE SMOOTH",
"346 374 OFFCURVE",
"346 397 OFFCURVE",
"349 421 CURVE",
"349 447 OFFCURVE",
"352 484 OFFCURVE",
"368 517 CURVE SMOOTH",
"377 539 OFFCURVE",
"392 553 OFFCURVE",
"416 553 CURVE SMOOTH",
"483 553 OFFCURVE",
"488 422 OFFCURVE",
"488 365 CURVE SMOOTH",
"488 309 LINE SMOOTH",
"488 244 OFFCURVE",
"481 164 OFFCURVE",
"455 139 CURVE SMOOTH",
"436 121 OFFCURVE",
"429 104 OFFCURVE",
"416 104 CURVE SMOOTH"
);
}
);
width = 809;
}
);
leftKerningGroup = O;
leftMetricsKey = "=O";
note = O;
rightKerningGroup = O;
rightMetricsKey = "=O";
unicode = 004F;
},
{
color = 10;
glyphname = Odotaccentmacron;
lastChange = "2023-02-22 08:59:45 +0000";
layers = (
{
background = {
paths = (
{
closed = 1;
nodes = (
"606 991 OFFCURVE",
"613 998 OFFCURVE",
"615 1011 CURVE",
"618 1020 OFFCURVE",
"619 1031 OFFCURVE",
"619 1046 CURVE SMOOTH",
"619 1069 LINE",
"618 1077 OFFCURVE",
"618 1086 OFFCURVE",
"618 1096 CURVE SMOOTH",
"618 1106 LINE SMOOTH",
"618 1110 OFFCURVE",
"618 1115 OFFCURVE",
"617 1122 CURVE SMOOTH",
"616 1128 OFFCURVE",
"616 1136 OFFCURVE",
"616 1146 CURVE SMOOTH",
"616 1166 OFFCURVE",
"588 1171 OFFCURVE",
"561 1171 CURVE SMOOTH",
"538 1171 LINE SMOOTH",
"525 1171 OFFCURVE",
"495 1172 OFFCURVE",
"448 1173 CURVE SMOOTH",
"408 1174 LINE SMOOTH",
"381 1175 OFFCURVE",
"364 1176 OFFCURVE",
"355 1176 CURVE SMOOTH",
"333 1176 LINE",
"223 1176 LINE SMOOTH",
"215 1176 OFFCURVE",
"207 1168 OFFCURVE",
"206 1167 CURVE",
"201 1163 OFFCURVE",
"198 1158 OFFCURVE",
"198 1151 CURVE SMOOTH",
"198 1134 OFFCURVE",
"198 1123 OFFCURVE",
"199 1116 CURVE",
"199 1087 LINE",
"199 1057 LINE",
"199 1021 LINE SMOOTH",
"199 1014 OFFCURVE",
"201 1009 OFFCURVE",
"206 1006 CURVE",
"214 998 OFFCURVE",
"227 996 OFFCURVE",
"248 996 CURVE SMOOTH",
"276 996 LINE",
"376 996 LINE",
"386 996 LINE",
"408 996 LINE SMOOTH",
"418 996 OFFCURVE",
"426 995 OFFCURVE",
"433 994 CURVE",
"436 993 OFFCURVE",
"441 993 OFFCURVE",
"446 994 CURVE",
"451 994 OFFCURVE",
"455 994 OFFCURVE",
"458 994 CURVE SMOOTH",
"478 994 LINE",
"488 993 LINE",
"513 993 LINE",
"535 992 LINE",
"546 992 OFFCURVE",
"554 992 OFFCURVE",
"561 991 CURVE",
"595 991 LINE SMOOTH"
);
},
{
closed = 1;
nodes = (
"505 776 LINE",
"516 777 OFFCURVE",
"522 786 OFFCURVE",
"522 804 CURVE SMOOTH",
"522 814 OFFCURVE",
"521 821 OFFCURVE",
"520 826 CURVE",
"519 829 OFFCURVE",
"519 832 OFFCURVE",
"520 837 CURVE",
"520 842 OFFCURVE",
"520 845 OFFCURVE",
"520 847 CURVE SMOOTH",
"520 857 LINE",
"520 870 LINE",
"520 880 LINE",
"519 881 OFFCURVE",
"519 883 OFFCURVE",
"519 884 CURVE SMOOTH",
"519 885 OFFCURVE",
"519 885 OFFCURVE",
"519 886 CURVE SMOOTH",
"519 895 OFFCURVE",
"519 901 OFFCURVE",
"520 906 CURVE",
"521 909 OFFCURVE",
"521 913 OFFCURVE",
"521 917 CURVE",
"520 921 OFFCURVE",
"520 924 OFFCURVE",
"520 926 CURVE SMOOTH",
"520 935 OFFCURVE",
"519 941 OFFCURVE",
"518 945 CURVE SMOOTH",
"517 949 OFFCURVE",
"514 951 OFFCURVE",
"509 951 CURVE SMOOTH",
"505 951 LINE",
"499 950 LINE",
"492 950 LINE SMOOTH",
"489 950 OFFCURVE",
"486 950 OFFCURVE",
"484 951 CURVE",
"482 951 OFFCURVE",
"480 951 OFFCURVE",
"479 951 CURVE",
"465 952 LINE",
"430 950 LINE",
"327 950 LINE SMOOTH",
"310 950 OFFCURVE",
"307 946 OFFCURVE",
"298 921 CURVE",
"298 920 OFFCURVE",
"298 920 OFFCURVE",
"299 919 CURVE",
"299 918 OFFCURVE",
"299 917 OFFCURVE",
"299 916 CURVE SMOOTH",
"299 914 LINE",
"295 882 LINE",
"293 878 OFFCURVE",
"292 874 OFFCURVE",
"292 871 CURVE",
"293 864 LINE",
"294 844 LINE",
"294 815 LINE",
"300 782 LINE",
"307 776 LINE"
);
},
{
closed = 1;
nodes = (
"572 -46 OFFCURVE",
"688 -6 OFFCURVE",
"747 105 CURVE SMOOTH",
"779 164 OFFCURVE",
"792 250 OFFCURVE",
"792 358 CURVE SMOOTH",
"792 449 OFFCURVE",
"771 524 OFFCURVE",
"731 580 CURVE SMOOTH",
"663 674 OFFCURVE",
"529 718 OFFCURVE",
"421 718 CURVE SMOOTH",
"281 718 OFFCURVE",
"167 685 OFFCURVE",
"105 621 CURVE SMOOTH",
"44 557 OFFCURVE",
"15 457 OFFCURVE",
"15 314 CURVE SMOOTH",
"15 212 OFFCURVE",
"33 134 OFFCURVE",
"71 76 CURVE SMOOTH",
"133 -20 OFFCURVE",
"258 -46 OFFCURVE",
"411 -46 CURVE SMOOTH"
);
},
{
closed = 1;
nodes = (
"399 90 OFFCURVE",
"383 106 OFFCURVE",
"374 135 CURVE SMOOTH",
"362 170 OFFCURVE",
"358 211 OFFCURVE",
"358 238 CURVE",
"355 259 OFFCURVE",
"354 287 OFFCURVE",
"354 319 CURVE SMOOTH",
"354 368 OFFCURVE",
"355 404 OFFCURVE",
"358 428 CURVE",
"358 453 OFFCURVE",
"362 492 OFFCURVE",
"374 526 CURVE",
"383 550 OFFCURVE",
"399 563 OFFCURVE",
"421 563 CURVE SMOOTH",
"431 563 OFFCURVE",
"431 556 OFFCURVE",
"443 548 CURVE SMOOTH",
"503 506 OFFCURVE",
"490 409 OFFCURVE",
"490 358 CURVE SMOOTH",
"490 336 LINE",
"490 302 LINE SMOOTH",
"490 237 OFFCURVE",
"482 152 OFFCURVE",
"459 128 CURVE SMOOTH",
"441 109 OFFCURVE",
"433 90 OFFCURVE",
"421 90 CURVE SMOOTH"
);
}
);
};
components = (
{
name = O;
},
{
name = dotaccentcomb;
transform = "{1, 0, 0, 1, 125, 77}";
},
{
name = macroncomb;
transform = "{1, 0, 0, 1, 125, 348}";
}
);
layerId = "CBDECE4A-293B-4E5C-B714-A3FD26C7130D";
width = 809;
}
);
leftKerningGroup = O;
note = uni0230;
rightKerningGroup = O;
unicode = 0230;
},
{
color = 6;
glyphname = Oogonek;
lastChange = "2023-02-22 08:59:45 +0000";
layers = (
{
background = {
paths = (
{
closed = 1;
nodes = (
"662 659 OFFCURVE",
"540 695 OFFCURVE",
"427 695 CURVE SMOOTH",
"282 695 OFFCURVE",
"183 667 OFFCURVE",
"119 606 CURVE SMOOTH",
"55 545 OFFCURVE",
"25 450 OFFCURVE",
"25 313 CURVE SMOOTH",
"25 217 OFFCURVE",
"44 142 OFFCURVE",
"83 88 CURVE SMOOTH",
"150 -3 OFFCURVE",
"238 -24 OFFCURVE",
"337 -24 CURVE",
"325 -33 LINE",
"269 -70 OFFCURVE",
"242 -103 OFFCURVE",
"242 -163 CURVE SMOOTH",
"242 -175 OFFCURVE",
"244 -186 OFFCURVE",
"247 -195 CURVE",
"258 -220 OFFCURVE",
"281 -240 OFFCURVE",
"318 -253 CURVE SMOOTH",
"357 -267 OFFCURVE",
"412 -276 OFFCURVE",
"485 -276 CURVE",
"495 -274 LINE",
"497 -273 OFFCURVE",
"500 -273 OFFCURVE",
"503 -273 CURVE SMOOTH",
"506 -273 OFFCURVE",
"510 -272 OFFCURVE",
"515 -271 CURVE",
"526 -270 OFFCURVE",
"542 -265 OFFCURVE",
"562 -258 CURVE",
"575 -251 OFFCURVE",
"587 -245 OFFCURVE",
"588 -240 CURVE SMOOTH",
"605 -158 LINE",
"605 -153 LINE SMOOTH",
"605 -148 OFFCURVE",
"603 -145 OFFCURVE",
"598 -143 CURVE",
"567 -154 OFFCURVE",
"538 -160 OFFCURVE",
"511 -160 CURVE SMOOTH",
"502 -160 OFFCURVE",
"496 -160 OFFCURVE",
"491 -161 CURVE",
"483 -164 OFFCURVE",
"473 -159 OFFCURVE",
"470 -158 CURVE",
"455 -154 OFFCURVE",
"447 -146 OFFCURVE",
"447 -126 CURVE SMOOTH",
"447 -118 OFFCURVE",
"451 -106 OFFCURVE",
"460 -90 CURVE SMOOTH",
"473 -67 OFFCURVE",
"487 -49 OFFCURVE",
"506 -33 CURVE",
"596 -8 LINE",
"677 14 OFFCURVE",
"718 66 OFFCURVE",
"747 115 CURVE",
"778 172 OFFCURVE",
"793 252 OFFCURVE",
"793 355 CURVE SMOOTH",
"793 443 OFFCURVE",
"772 514 OFFCURVE",
"730 568 CURVE SMOOTH"
);
},
{
closed = 1;
nodes = (
"370 194 OFFCURVE",
"368 228 OFFCURVE",
"368 256 CURVE",
"365 279 OFFCURVE",
"364 307 OFFCURVE",
"364 341 CURVE SMOOTH",
"364 393 OFFCURVE",
"365 430 OFFCURVE",
"368 455 CURVE",
"368 483 OFFCURVE",
"372 514 OFFCURVE",
"380 550 CURVE",
"390 575 OFFCURVE",
"402 588 OFFCURVE",
"421 588 CURVE SMOOTH",
"431 588 OFFCURVE",
"439 583 OFFCURVE",
"445 573 CURVE SMOOTH",
"471 530 OFFCURVE",
"480 436 OFFCURVE",
"480 382 CURVE SMOOTH",
"480 359 LINE",
"480 323 LINE SMOOTH",
"480 255 OFFCURVE",
"469 164 OFFCURVE",
"445 124 CURVE SMOOTH",
"439 114 OFFCURVE",
"432 110 OFFCURVE",
"421 110 CURVE SMOOTH",
"402 110 OFFCURVE",
"389 125 OFFCURVE",
"380 157 CURVE SMOOTH"
);
}
);
};
layerId = "CBDECE4A-293B-4E5C-B714-A3FD26C7130D";
paths = (
{
closed = 1;
nodes = (
"670 648 OFFCURVE",
"558 695 OFFCURVE",
"427 695 CURVE SMOOTH",
"280 695 OFFCURVE",
"183 667 OFFCURVE",
"119 606 CURVE SMOOTH",
"55 545 OFFCURVE",
"25 451 OFFCURVE",
"25 313 CURVE SMOOTH",
"25 216 OFFCURVE",
"44 142 OFFCURVE",
"83 88 CURVE SMOOTH",
"140 10 OFFCURVE",
"218 -24 OFFCURVE",
"337 -24 CURVE",
"325 -33 LINE",
"264 -73 OFFCURVE",
"242 -108 OFFCURVE",
"242 -163 CURVE SMOOTH",
"242 -173 OFFCURVE",
"244 -184 OFFCURVE",
"247 -195 CURVE",
"258 -221 OFFCURVE",
"281 -240 OFFCURVE",
"318 -253 CURVE SMOOTH",
"360 -268 OFFCURVE",
"418 -276 OFFCURVE",
"485 -276 CURVE",
"495 -274 LINE",
"497 -273 OFFCURVE",
"498 -273 OFFCURVE",
"503 -273 CURVE SMOOTH",
"506 -273 OFFCURVE",
"510 -272 OFFCURVE",
"515 -271 CURVE",
"524 -270 OFFCURVE",
"537 -266 OFFCURVE",
"562 -258 CURVE",
"575 -251 OFFCURVE",
"587 -245 OFFCURVE",
"588 -240 CURVE SMOOTH",
"605 -158 LINE",
"605 -153 LINE SMOOTH",
"605 -148 OFFCURVE",
"603 -145 OFFCURVE",
"598 -143 CURVE",
"565 -154 OFFCURVE",
"536 -160 OFFCURVE",
"511 -160 CURVE SMOOTH",
"497 -160 OFFCURVE",
"495 -160 OFFCURVE",
"491 -161 CURVE",
"483 -164 OFFCURVE",
"473 -159 OFFCURVE",
"470 -158 CURVE",
"454 -154 OFFCURVE",
"447 -144 OFFCURVE",
"447 -126 CURVE SMOOTH",
"447 -117 OFFCURVE",
"452 -104 OFFCURVE",
"460 -90 CURVE SMOOTH",
"475 -65 OFFCURVE",
"489 -47 OFFCURVE",
"506 -33 CURVE",
"596 -8 LINE",
"659 9 OFFCURVE",
"707 47 OFFCURVE",
"747 115 CURVE",
"778 172 OFFCURVE",
"793 251 OFFCURVE",
"793 355 CURVE SMOOTH",
"793 443 OFFCURVE",
"772 514 OFFCURVE",
"730 568 CURVE SMOOTH"
);
},
{
closed = 1;
nodes = (
"372 187 OFFCURVE",
"368 220 OFFCURVE",
"368 256 CURVE",
"365 276 OFFCURVE",
"364 301 OFFCURVE",
"364 341 CURVE SMOOTH",
"364 400 OFFCURVE",
"365 433 OFFCURVE",
"368 455 CURVE",
"368 483 OFFCURVE",
"372 514 OFFCURVE",
"380 550 CURVE",
"391 577 OFFCURVE",
"403 588 OFFCURVE",
"421 588 CURVE SMOOTH",
"431 588 OFFCURVE",
"439 583 OFFCURVE",
"445 573 CURVE SMOOTH",
"465 540 OFFCURVE",
"480 458 OFFCURVE",
"480 382 CURVE SMOOTH",
"480 359 LINE",
"480 323 LINE SMOOTH",
"480 242 OFFCURVE",
"465 158 OFFCURVE",
"445 124 CURVE SMOOTH",
"439 114 OFFCURVE",
"432 110 OFFCURVE",
"421 110 CURVE SMOOTH",
"402 110 OFFCURVE",
"389 125 OFFCURVE",
"380 157 CURVE SMOOTH"
);
}
);
width = 818;
}
);
leftKerningGroup = O;
note = uni01EA;
rightKerningGroup = O;
unicode = 01EA;
},
{
color = 6;
glyphname = Oslash;
lastChange = "2023-02-22 08:59:45 +0000";
layers = (
{
anchors = (
{
name = bottom;
position = "{420, 0}";
},
{
name = center;
position = "{405, 338}";
},
{
name = ogonek;
position = "{529, 0}";
},
{
name = top;
position = "{420, 655}";
},
{
name = topleft;
position = "{20, 676}";
},
{
name = topright;
position = "{540, 676}";
}
);
background = {
paths = (
{
closed = 1;
nodes = (
"755 570 LINE",
"761 576 OFFCURVE",
"766 579 OFFCURVE",
"769 583 CURVE",
"770 585 OFFCURVE",
"772 589 OFFCURVE",
"778 593 CURVE SMOOTH",
"786 598 OFFCURVE",
"793 606 OFFCURVE",
"805 625 CURVE",
"811 633 OFFCURVE",
"814 639 OFFCURVE",
"814 641 CURVE SMOOTH",
"814 649 OFFCURVE",
"811 651 OFFCURVE",
"801 656 CURVE",
"796 659 OFFCURVE",
"793 661 OFFCURVE",
"789 665 CURVE",
"784 666 OFFCURVE",
"778 668 OFFCURVE",
"773 672 CURVE",
"758 680 LINE",
"755 682 OFFCURVE",
"751 683 OFFCURVE",
"747 683 CURVE SMOOTH",
"743 683 OFFCURVE",
"740 682 OFFCURVE",
"738 681 CURVE",
"671 620 LINE",
"64 37 LINE SMOOTH",
"59 32 OFFCURVE",
"57 29 OFFCURVE",
"53 23 CURVE SMOOTH",
"50 19 OFFCURVE",
"43 15 OFFCURVE",
"39 13 CURVE",
"38 11 OFFCURVE",
"35 7 OFFCURVE",
"32 3 CURVE",
"28 -4 OFFCURVE",
"27 -8 OFFCURVE",
"26 -10 CURVE SMOOTH",
"22 -19 OFFCURVE",
"27 -26 OFFCURVE",
"42 -33 CURVE",
"48 -40 LINE",
"53 -40 OFFCURVE",
"57 -44 OFFCURVE",
"63 -49 CURVE",
"65 -50 OFFCURVE",
"70 -54 OFFCURVE",
"74 -54 CURVE",
"79 -57 OFFCURVE",
"83 -59 OFFCURVE",
"88 -59 CURVE",
"96 -56 OFFCURVE",
"106 -48 OFFCURVE",
"120 -37 CURVE SMOOTH",
"135 -25 OFFCURVE",
"716 531 OFFCURVE",
"738 553 CURVE SMOOTH"
);
},
{
closed = 1;
nodes = (
"573 -26 OFFCURVE",
"687 13 OFFCURVE",
"745 119 CURVE SMOOTH",
"776 176 OFFCURVE",
"789 258 OFFCURVE",
"789 361 CURVE SMOOTH",
"789 435 OFFCURVE",
"770 509 OFFCURVE",
"729 563 CURVE SMOOTH",
"662 651 OFFCURVE",
"530 692 OFFCURVE",
"422 692 CURVE SMOOTH",
"285 692 OFFCURVE",
"172 663 OFFCURVE",
"110 599 CURVE SMOOTH",
"49 536 OFFCURVE",
"20 444 OFFCURVE",
"20 318 CURVE SMOOTH",
"20 221 OFFCURVE",
"39 147 OFFCURVE",
"76 91 CURVE SMOOTH",
"136 1 OFFCURVE",
"260 -26 OFFCURVE",
"412 -26 CURVE SMOOTH"
);
},
{
closed = 1;
nodes = (
"392 104 OFFCURVE",
"377 119 OFFCURVE",
"368 147 CURVE SMOOTH",
"357 182 OFFCURVE",
"349 221 OFFCURVE",
"349 245 CURVE",
"346 267 OFFCURVE",
"346 293 OFFCURVE",
"346 326 CURVE SMOOTH",
"346 374 OFFCURVE",
"346 397 OFFCURVE",
"349 421 CURVE",
"349 447 OFFCURVE",
"352 484 OFFCURVE",
"368 517 CURVE SMOOTH",
"377 539 OFFCURVE",
"392 553 OFFCURVE",
"416 553 CURVE SMOOTH",
"483 553 OFFCURVE",
"488 422 OFFCURVE",
"488 365 CURVE SMOOTH",
"488 309 LINE SMOOTH",
"488 244 OFFCURVE",
"481 164 OFFCURVE",
"455 139 CURVE SMOOTH",
"436 121 OFFCURVE",
"429 104 OFFCURVE",
"416 104 CURVE SMOOTH"
);
}
);
};
layerId = "CBDECE4A-293B-4E5C-B714-A3FD26C7130D";
paths = (
{
closed = 1;
nodes = (
"755 570 LINE SMOOTH",
"761 576 OFFCURVE",
"766 579 OFFCURVE",
"769 583 CURVE SMOOTH",
"770 585 OFFCURVE",
"772 589 OFFCURVE",
"778 593 CURVE SMOOTH",
"786 598 OFFCURVE",
"793 606 OFFCURVE",
"805 625 CURVE SMOOTH",
"811 633 OFFCURVE",
"814 639 OFFCURVE",
"814 641 CURVE SMOOTH",
"814 649 OFFCURVE",
"811 651 OFFCURVE",
"801 656 CURVE SMOOTH",
"796 659 OFFCURVE",
"793 661 OFFCURVE",
"789 665 CURVE",
"784 666 OFFCURVE",
"778 668 OFFCURVE",
"773 672 CURVE",
"758 680 LINE SMOOTH",
"755 682 OFFCURVE",
"751 683 OFFCURVE",
"747 683 CURVE SMOOTH",
"743 683 OFFCURVE",
"740 682 OFFCURVE",
"738 681 CURVE",
"671 620 LINE",
"670 619 LINE",
"599 669 OFFCURVE",
"504 692 OFFCURVE",
"422 692 CURVE SMOOTH",
"285 692 OFFCURVE",
"172 663 OFFCURVE",
"110 599 CURVE SMOOTH",
"49 536 OFFCURVE",
"20 444 OFFCURVE",
"20 318 CURVE SMOOTH",
"20 221 OFFCURVE",
"39 147 OFFCURVE",
"76 91 CURVE SMOOTH",
"82 82 OFFCURVE",
"88 74 OFFCURVE",
"95 67 CURVE",
"64 37 LINE SMOOTH",
"59 32 OFFCURVE",
"57 29 OFFCURVE",
"53 23 CURVE SMOOTH",
"50 19 OFFCURVE",
"43 15 OFFCURVE",
"39 13 CURVE",
"38 11 OFFCURVE",
"35 7 OFFCURVE",
"32 3 CURVE SMOOTH",
"28 -4 OFFCURVE",
"27 -8 OFFCURVE",
"26 -10 CURVE SMOOTH",
"22 -19 OFFCURVE",
"27 -26 OFFCURVE",
"42 -33 CURVE",
"48 -40 LINE",
"53 -40 OFFCURVE",
"57 -44 OFFCURVE",
"63 -49 CURVE",
"65 -50 OFFCURVE",
"70 -54 OFFCURVE",
"74 -54 CURVE",
"79 -57 OFFCURVE",
"83 -59 OFFCURVE",
"88 -59 CURVE",
"96 -56 OFFCURVE",
"106 -48 OFFCURVE",
"120 -37 CURVE SMOOTH",
"123 -35 OFFCURVE",
"142 -17 OFFCURVE",
"173 13 CURVE",
"237 -16 OFFCURVE",
"319 -26 OFFCURVE",
"412 -26 CURVE SMOOTH",
"573 -26 OFFCURVE",
"687 13 OFFCURVE",
"745 119 CURVE SMOOTH",
"776 176 OFFCURVE",
"789 258 OFFCURVE",
"789 361 CURVE SMOOTH",
"789 430 OFFCURVE",
"772 499 OFFCURVE",
"737 552 CURVE",
"738 553 LINE"
);
},
{
closed = 1;
nodes = (
"346 326 LINE SMOOTH",
"346 374 OFFCURVE",
"346 397 OFFCURVE",
"349 421 CURVE",
"349 447 OFFCURVE",
"352 484 OFFCURVE",
"368 517 CURVE SMOOTH",
"377 539 OFFCURVE",
"392 553 OFFCURVE",
"416 553 CURVE SMOOTH",
"460 553 OFFCURVE",
"477 496 OFFCURVE",
"484 440 CURVE",
"346 308 LINE"
);
},
{
closed = 1;
nodes = (
"488 313 LINE",
"488 309 LINE SMOOTH",
"488 244 OFFCURVE",
"481 164 OFFCURVE",
"455 139 CURVE SMOOTH",
"436 121 OFFCURVE",
"429 104 OFFCURVE",
"416 104 CURVE SMOOTH",
"392 104 OFFCURVE",
"377 119 OFFCURVE",
"368 147 CURVE SMOOTH",
"364 160 OFFCURVE",
"360 174 OFFCURVE",
"357 188 CURVE"
);
}
);
width = 809;
}
);
leftKerningGroup = O;
note = Oslash;
rightKerningGroup = O;
unicode = 00D8;
},
{
color = 6;
glyphname = OE;
lastChange = "2023-02-22 08:59:45 +0000";
layers = (
{
anchors = (
{
name = bottom;
position = "{511, 0}";
},
{
name = top;
position = "{511, 655}";
}
);
background = {
paths = (
{
closed = 1;
nodes = (
"545 -17 OFFCURVE",
"654 21 OFFCURVE",
"709 125 CURVE SMOOTH",
"738 180 OFFCURVE",
"751 261 OFFCURVE",
"751 362 CURVE SMOOTH",
"751 434 OFFCURVE",
"733 507 OFFCURVE",
"694 560 CURVE SMOOTH",
"630 646 OFFCURVE",
"505 686 OFFCURVE",
"402 686 CURVE SMOOTH",
"272 686 OFFCURVE",
"164 658 OFFCURVE",
"106 595 CURVE SMOOTH",
"48 533 OFFCURVE",
"20 443 OFFCURVE",
"20 320 CURVE SMOOTH",
"20 225 OFFCURVE",
"38 152 OFFCURVE",
"73 97 CURVE SMOOTH",
"130 9 OFFCURVE",
"248 -17 OFFCURVE",
"392 -17 CURVE SMOOTH"
);
},
{
closed = 1;
nodes = (
"373 110 OFFCURVE",
"359 125 OFFCURVE",
"351 152 CURVE SMOOTH",
"340 186 OFFCURVE",
"333 225 OFFCURVE",
"333 248 CURVE",
"330 270 OFFCURVE",
"330 295 OFFCURVE",
"330 327 CURVE SMOOTH",
"330 375 OFFCURVE",
"330 397 OFFCURVE",
"333 421 CURVE",
"333 446 OFFCURVE",
"335 482 OFFCURVE",
"351 515 CURVE SMOOTH",
"359 536 OFFCURVE",
"373 550 OFFCURVE",
"396 550 CURVE SMOOTH",
"460 550 OFFCURVE",
"465 422 OFFCURVE",
"465 366 CURVE SMOOTH",
"465 311 LINE SMOOTH",
"465 247 OFFCURVE",
"458 169 OFFCURVE",
"433 144 CURVE SMOOTH",
"415 127 OFFCURVE",
"409 110 OFFCURVE",
"396 110 CURVE SMOOTH"
);
},
{
closed = 1;
nodes = (
"698 -4 OFFCURVE",
"796 -3 OFFCURVE",
"863 -3 CURVE SMOOTH",
"893 -3 OFFCURVE",
"916 -3 OFFCURVE",
"931 -2 CURVE SMOOTH",
"957 0 OFFCURVE",
"981 1 OFFCURVE",
"998 1 CURVE SMOOTH",
"1008 1 OFFCURVE",
"1016 8 OFFCURVE",
"1016 22 CURVE SMOOTH",
"1016 27 OFFCURVE",
"1015 32 OFFCURVE",
"1014 37 CURVE SMOOTH",
"1007 77 OFFCURVE",
"994 139 OFFCURVE",
"988 152 CURVE SMOOTH",
"984 158 OFFCURVE",
"983 159 OFFCURVE",
"980 159 CURVE SMOOTH",
"942 159 OFFCURVE",
"911 158 OFFCURVE",
"890 157 CURVE SMOOTH",
"869 155 OFFCURVE",
"838 154 OFFCURVE",
"750 154 CURVE",
"750 171 OFFCURVE",
"750 185 OFFCURVE",
"752 193 CURVE",
"754 248 OFFCURVE",
"749 244 OFFCURVE",
"769 249 CURVE SMOOTH",
"773 250 OFFCURVE",
"784 250 OFFCURVE",
"802 250 CURVE SMOOTH",
"812 249 OFFCURVE",
"833 249 OFFCURVE",
"864 249 CURVE SMOOTH",
"902 249 OFFCURVE",
"928 250 OFFCURVE",
"942 254 CURVE",
"964 255 OFFCURVE",
"974 263 OFFCURVE",
"974 274 CURVE SMOOTH",
"974 277 LINE",
"972 376 LINE",
"970 385 OFFCURVE",
"968 398 OFFCURVE",
"950 398 CURVE SMOOTH",
"941 398 LINE",
"909 402 OFFCURVE",
"880 404 OFFCURVE",
"856 404 CURVE SMOOTH",
"772 404 LINE SMOOTH",
"759 404 OFFCURVE",
"754 407 OFFCURVE",
"755 425 CURVE SMOOTH",
"757 459 LINE SMOOTH",
"758 471 OFFCURVE",
"762 471 OFFCURVE",
"766 480 CURVE SMOOTH",
"769 487 OFFCURVE",
"772 491 OFFCURVE",
"774 491 CURVE SMOOTH",
"786 492 OFFCURVE",
"802 494 OFFCURVE",
"823 496 CURVE SMOOTH",
"873 500 LINE SMOOTH",
"912 503 OFFCURVE",
"945 507 OFFCURVE",
"972 507 CURVE SMOOTH",
"975 507 OFFCURVE",
"980 507 OFFCURVE",
"983 506 CURVE",
"989 506 OFFCURVE",
"992 509 OFFCURVE",
"993 515 CURVE SMOOTH",
"993 516 OFFCURVE",
"993 519 OFFCURVE",
"994 523 CURVE SMOOTH",
"994 526 OFFCURVE",
"994 530 OFFCURVE",
"993 534 CURVE SMOOTH",
"990 549 OFFCURVE",
"988 561 OFFCURVE",
"986 591 CURVE SMOOTH",
"983 610 OFFCURVE",
"981 622 OFFCURVE",
"979 628 CURVE SMOOTH",
"974 652 OFFCURVE",
"968 665 OFFCURVE",
"957 665 CURVE SMOOTH",
"930 667 OFFCURVE",
"891 671 OFFCURVE",
"837 671 CURVE SMOOTH",
"796 671 LINE SMOOTH",
"757 671 OFFCURVE",
"702 670 OFFCURVE",
"627 669 CURVE",
"603 666 OFFCURVE",
"565 666 OFFCURVE",
"513 666 CURVE SMOOTH",
"493 666 OFFCURVE",
"475 665 OFFCURVE",
"467 664 CURVE",
"450 658 OFFCURVE",
"443 653 OFFCURVE",
"443 646 CURVE SMOOTH",
"437 567 OFFCURVE",
"500 473 OFFCURVE",
"500 390 CURVE SMOOTH",
"500 344 OFFCURVE",
"500 315 OFFCURVE",
"500 301 CURVE SMOOTH",
"501 287 OFFCURVE",
"499 267 OFFCURVE",
"501 242 CURVE SMOOTH",
"503 212 LINE SMOOTH",
"504 193 OFFCURVE",
"482 177 OFFCURVE",
"475 167 CURVE SMOOTH",
"443 125 LINE SMOOTH",
"436 116 OFFCURVE",
"447 99 OFFCURVE",
"447 78 CURVE SMOOTH",
"449 50 OFFCURVE",
"450 27 OFFCURVE",
"450 10 CURVE",
"449 9 OFFCURVE",
"450 9 OFFCURVE",
"450 8 CURVE",
"451 7 OFFCURVE",
"455 5 OFFCURVE",
"457 5 CURVE",
"477 0 LINE SMOOTH",
"486 -2 OFFCURVE",
"494 -2 OFFCURVE",
"500 -3 CURVE SMOOTH",
"507 -4 OFFCURVE",
"512 -4 OFFCURVE",
"514 -4 CURVE SMOOTH",
"665 -4 LINE SMOOTH"
);
}
);
};
layerId = "CBDECE4A-293B-4E5C-B714-A3FD26C7130D";
paths = (
{
closed = 1;
nodes = (
"442 -17 OFFCURVE",
"487 -13 OFFCURVE",
"527 -4 CURVE",
"665 -4 LINE SMOOTH",
"698 -4 OFFCURVE",
"796 -3 OFFCURVE",
"863 -3 CURVE SMOOTH",
"893 -3 OFFCURVE",
"916 -3 OFFCURVE",
"931 -2 CURVE SMOOTH",
"957 0 OFFCURVE",
"981 1 OFFCURVE",
"998 1 CURVE SMOOTH",
"1008 1 OFFCURVE",
"1016 8 OFFCURVE",
"1016 22 CURVE SMOOTH",
"1016 27 OFFCURVE",
"1015 32 OFFCURVE",
"1014 37 CURVE SMOOTH",
"1007 77 OFFCURVE",
"994 139 OFFCURVE",
"988 152 CURVE",
"984 158 OFFCURVE",
"983 159 OFFCURVE",
"980 159 CURVE SMOOTH",
"942 159 OFFCURVE",
"911 158 OFFCURVE",
"890 157 CURVE SMOOTH",
"869 155 OFFCURVE",
"838 154 OFFCURVE",
"750 154 CURVE",
"750 171 OFFCURVE",
"750 185 OFFCURVE",
"752 193 CURVE",
"754 248 OFFCURVE",
"749 244 OFFCURVE",
"769 249 CURVE SMOOTH",
"773 250 OFFCURVE",
"784 250 OFFCURVE",
"802 250 CURVE SMOOTH",
"812 249 OFFCURVE",
"833 249 OFFCURVE",
"864 249 CURVE SMOOTH",
"902 249 OFFCURVE",
"928 250 OFFCURVE",
"942 254 CURVE",
"964 255 OFFCURVE",
"974 263 OFFCURVE",
"974 274 CURVE SMOOTH",
"974 277 LINE",
"972 376 LINE",
"970 385 OFFCURVE",
"968 398 OFFCURVE",
"950 398 CURVE SMOOTH",
"941 398 LINE",
"909 402 OFFCURVE",
"880 404 OFFCURVE",
"856 404 CURVE SMOOTH",
"772 404 LINE SMOOTH",
"759 404 OFFCURVE",
"754 407 OFFCURVE",
"755 425 CURVE SMOOTH",
"757 459 LINE SMOOTH",
"758 471 OFFCURVE",
"762 471 OFFCURVE",
"766 480 CURVE SMOOTH",
"769 487 OFFCURVE",
"772 491 OFFCURVE",
"774 491 CURVE SMOOTH",
"823 496 LINE",
"873 500 LINE SMOOTH",
"912 503 OFFCURVE",
"945 507 OFFCURVE",
"972 507 CURVE SMOOTH",
"975 507 OFFCURVE",
"980 507 OFFCURVE",
"983 506 CURVE",
"989 506 OFFCURVE",
"992 509 OFFCURVE",
"993 515 CURVE SMOOTH",
"993 516 OFFCURVE",
"993 519 OFFCURVE",
"994 523 CURVE SMOOTH",
"994 526 OFFCURVE",
"994 530 OFFCURVE",
"993 534 CURVE SMOOTH",
"990 549 OFFCURVE",
"988 561 OFFCURVE",
"986 591 CURVE SMOOTH",
"983 610 OFFCURVE",
"981 622 OFFCURVE",
"979 628 CURVE SMOOTH",
"974 652 OFFCURVE",
"968 665 OFFCURVE",
"957 665 CURVE SMOOTH",
"930 667 OFFCURVE",
"891 671 OFFCURVE",
"837 671 CURVE SMOOTH",
"796 671 LINE SMOOTH",
"757 671 OFFCURVE",
"702 670 OFFCURVE",
"627 669 CURVE",
"606 666 OFFCURVE",
"574 666 OFFCURVE",
"532 666 CURVE",
"489 679 OFFCURVE",
"444 686 OFFCURVE",
"402 686 CURVE SMOOTH",
"272 686 OFFCURVE",
"164 658 OFFCURVE",
"106 595 CURVE SMOOTH",
"48 533 OFFCURVE",
"20 443 OFFCURVE",
"20 320 CURVE SMOOTH",
"20 225 OFFCURVE",
"38 152 OFFCURVE",
"73 97 CURVE SMOOTH",
"130 9 OFFCURVE",
"248 -17 OFFCURVE",
"392 -17 CURVE SMOOTH"
);
},
{
closed = 1;
nodes = (
"330 375 OFFCURVE",
"330 397 OFFCURVE",
"333 421 CURVE",
"333 446 OFFCURVE",
"335 482 OFFCURVE",
"351 515 CURVE",
"359 536 OFFCURVE",
"373 550 OFFCURVE",
"396 550 CURVE SMOOTH",
"460 550 OFFCURVE",
"465 422 OFFCURVE",
"465 366 CURVE SMOOTH",
"465 311 LINE SMOOTH",
"465 247 OFFCURVE",
"458 169 OFFCURVE",
"433 144 CURVE SMOOTH",
"415 127 OFFCURVE",
"409 110 OFFCURVE",
"396 110 CURVE SMOOTH",
"373 110 OFFCURVE",
"359 125 OFFCURVE",
"351 152 CURVE SMOOTH",
"340 186 OFFCURVE",
"333 225 OFFCURVE",
"333 248 CURVE",
"330 270 OFFCURVE",
"330 295 OFFCURVE",
"330 327 CURVE SMOOTH"
);
}
);
width = 1021;
}
);
leftKerningGroup = O;
leftMetricsKey = "=O";
note = OE;
rightKerningGroup = E;
rightMetricsKey = "=E";
unicode = 0152;
},
{
color = 6;
glyphname = P;
lastChange = "2023-02-22 08:59:45 +0000";
layers = (
{
anchors = (
{
name = bottom;
position = "{392, 0}";
},
{
name = top;
position = "{392, 655}";
}
);
background = {
anchors = (
{
name = bottom;
position = "{392, 0}";
},
{
name = top;
position = "{392, 676}";
}
);
paths = (
{
closed = 1;
nodes = (
"167 -5 OFFCURVE",
"204 -4 OFFCURVE",
"250 -4 CURVE",
"261 -3 OFFCURVE",
"282 -3 OFFCURVE",
"311 -3 CURVE SMOOTH",
"351 -3 OFFCURVE",
"366 4 OFFCURVE",
"366 48 CURVE SMOOTH",
"366 62 OFFCURVE",
"366 73 OFFCURVE",
"367 82 CURVE",
"367 90 OFFCURVE",
"367 97 OFFCURVE",
"367 103 CURVE SMOOTH",
"367 120 OFFCURVE",
"367 137 OFFCURVE",
"366 152 CURVE",
"503 152 LINE SMOOTH",
"593 152 OFFCURVE",
"661 173 OFFCURVE",
"706 216 CURVE",
"757 261 OFFCURVE",
"783 335 OFFCURVE",
"783 436 CURVE SMOOTH",
"783 496 OFFCURVE",
"767 544 OFFCURVE",
"736 579 CURVE SMOOTH",
"679 643 OFFCURVE",
"591 666 OFFCURVE",
"507 666 CURVE SMOOTH",
"481 666 OFFCURVE",
"448 665 OFFCURVE",
"408 664 CURVE SMOOTH",
"371 663 LINE SMOOTH",
"344 662 OFFCURVE",
"305 662 OFFCURVE",
"255 662 CURVE SMOOTH",
"220 662 OFFCURVE",
"192 662 OFFCURVE",
"171 663 CURVE",
"56 664 LINE SMOOTH",
"44 664 OFFCURVE",
"30 650 OFFCURVE",
"30 638 CURVE SMOOTH",
"30 418 LINE SMOOTH",
"30 345 OFFCURVE",
"32 276 OFFCURVE",
"33 211 CURVE SMOOTH",
"34 166 OFFCURVE",
"35 114 OFFCURVE",
"35 56 CURVE SMOOTH",
"35 37 OFFCURVE",
"37 23 OFFCURVE",
"40 16 CURVE",
"43 1 OFFCURVE",
"51 -6 OFFCURVE",
"62 -6 CURVE SMOOTH",
"140 -6 LINE"
);
},
{
closed = 1;
nodes = (
"379 263 LINE",
"377 264 OFFCURVE",
"376 264 OFFCURVE",
"375 265 CURVE SMOOTH",
"374 266 OFFCURVE",
"374 266 OFFCURVE",
"374 266 CURVE",
"374 327 OFFCURVE",
"377 376 OFFCURVE",
"379 413 CURVE SMOOTH",
"383 483 OFFCURVE",
"375 530 OFFCURVE",
"391 554 CURVE",
"395 562 OFFCURVE",
"419 556 OFFCURVE",
"427 556 CURVE",
"440 556 OFFCURVE",
"447 547 OFFCURVE",
"454 533 CURVE SMOOTH",
"461 519 OFFCURVE",
"469 479 OFFCURVE",
"469 458 CURVE SMOOTH",
"469 447 LINE SMOOTH",
"469 423 OFFCURVE",
"468 401 OFFCURVE",
"467 382 CURVE SMOOTH",
"463 311 OFFCURVE",
"451 262 OFFCURVE",
"421 262 CURVE SMOOTH",
"392 262 LINE"
);
}
);
};
layerId = "CBDECE4A-293B-4E5C-B714-A3FD26C7130D";
paths = (
{
closed = 1;
nodes = (
"167 -6 OFFCURVE",
"204 -4 OFFCURVE",
"250 -4 CURVE SMOOTH",
"261 -3 OFFCURVE",
"282 -3 OFFCURVE",
"311 -3 CURVE SMOOTH",
"351 -3 OFFCURVE",
"366 4 OFFCURVE",
"366 48 CURVE SMOOTH",
"366 62 OFFCURVE",
"367 73 OFFCURVE",
"367 82 CURVE SMOOTH",
"367 103 LINE SMOOTH",
"367 120 OFFCURVE",
"367 137 OFFCURVE",
"366 152 CURVE",
"503 152 LINE SMOOTH",
"593 152 OFFCURVE",
"661 173 OFFCURVE",
"706 216 CURVE SMOOTH",
"757 261 OFFCURVE",
"783 335 OFFCURVE",
"783 436 CURVE SMOOTH",
"783 496 OFFCURVE",
"767 544 OFFCURVE",
"736 579 CURVE SMOOTH",
"679 643 OFFCURVE",
"591 666 OFFCURVE",
"507 666 CURVE SMOOTH",
"481 666 OFFCURVE",
"448 665 OFFCURVE",
"408 664 CURVE SMOOTH",
"371 663 LINE SMOOTH",
"344 662 OFFCURVE",
"305 662 OFFCURVE",
"255 662 CURVE SMOOTH",
"220 662 OFFCURVE",
"192 663 OFFCURVE",
"171 663 CURVE SMOOTH",
"56 664 LINE SMOOTH",
"44 664 OFFCURVE",
"30 650 OFFCURVE",
"30 638 CURVE SMOOTH",
"30 418 LINE SMOOTH",
"30 345 OFFCURVE",
"32 276 OFFCURVE",
"33 211 CURVE SMOOTH",
"34 166 OFFCURVE",
"35 114 OFFCURVE",
"35 56 CURVE SMOOTH",
"35 37 OFFCURVE",
"37 23 OFFCURVE",
"40 16 CURVE",
"43 1 OFFCURVE",
"51 -6 OFFCURVE",
"62 -6 CURVE SMOOTH",
"140 -6 LINE SMOOTH"
);
},
{
closed = 1;
nodes = (
"379 263 LINE",
"377 264 OFFCURVE",
"375 264 OFFCURVE",
"375 265 CURVE SMOOTH",
"374 305 OFFCURVE",
"374 325 OFFCURVE",
"379 413 CURVE SMOOTH",
"383 483 OFFCURVE",
"375 530 OFFCURVE",
"391 554 CURVE",
"395 562 OFFCURVE",
"419 556 OFFCURVE",
"427 556 CURVE SMOOTH",
"440 556 OFFCURVE",
"447 547 OFFCURVE",
"454 533 CURVE SMOOTH",
"461 519 OFFCURVE",
"469 479 OFFCURVE",
"469 458 CURVE SMOOTH",
"469 447 LINE SMOOTH",
"469 423 OFFCURVE",
"468 401 OFFCURVE",
"467 382 CURVE SMOOTH",
"463 311 OFFCURVE",
"451 262 OFFCURVE",
"421 262 CURVE SMOOTH",
"392 262 LINE"
);
}
);
width = 788;
}
);
leftKerningGroup = H;
leftMetricsKey = "=H";
note = P;
rightKerningGroup = P;
unicode = 0050;
},
{
color = 6;
glyphname = Thorn;
lastChange = "2023-02-22 08:59:45 +0000";
layers = (
{
background = {
paths = (
{
closed = 1;
nodes = (
"165 -19 OFFCURVE",
"231 -19 OFFCURVE",
"278 -16 CURVE",
"338 -16 LINE SMOOTH",
"379 -16 OFFCURVE",
"394 -9 OFFCURVE",
"394 36 CURVE SMOOTH",
"394 65 OFFCURVE",
"394 72 OFFCURVE",
"394 139 CURVE",
"530 139 LINE SMOOTH",
"711 139 OFFCURVE",
"811 217 OFFCURVE",
"811 398 CURVE SMOOTH",
"811 450 OFFCURVE",
"795 491 OFFCURVE",
"763 521 CURVE SMOOTH",
"709 571 OFFCURVE",
"625 593 OFFCURVE",
"534 593 CURVE SMOOTH",
"395 593 LINE",
"395 604 LINE",
"394 607 OFFCURVE",
"394 611 OFFCURVE",
"394 616 CURVE SMOOTH",
"394 668 LINE SMOOTH",
"394 715 OFFCURVE",
"378 720 OFFCURVE",
"338 720 CURVE SMOOTH",
"278 720 LINE",
"266 721 OFFCURVE",
"248 721 OFFCURVE",
"225 721 CURVE",
"201 722 OFFCURVE",
"156 723 OFFCURVE",
"89 723 CURVE SMOOTH",
"78 723 OFFCURVE",
"71 715 OFFCURVE",
"68 703 CURVE",
"65 694 OFFCURVE",
"63 681 OFFCURVE",
"63 663 CURVE SMOOTH",
"63 618 LINE SMOOTH",
"63 605 OFFCURVE",
"63 596 OFFCURVE",
"62 589 CURVE",
"61 554 LINE",
"60 512 LINE SMOOTH",
"59 465 OFFCURVE",
"58 429 OFFCURVE",
"58 404 CURVE SMOOTH",
"58 353 LINE",
"59 261 LINE SMOOTH",
"60 185 OFFCURVE",
"62 131 OFFCURVE",
"63 98 CURVE SMOOTH",
"63 43 LINE SMOOTH",
"63 24 OFFCURVE",
"65 10 OFFCURVE",
"68 3 CURVE",
"71 -10 OFFCURVE",
"78 -19 OFFCURVE",
"89 -19 CURVE SMOOTH"
);
},
{
closed = 1;
nodes = (
"433 234 OFFCURVE",
"424 234 OFFCURVE",
"420 235 CURVE",
"413 235 OFFCURVE",
"409 235 OFFCURVE",
"408 236 CURVE",
"406 236 OFFCURVE",
"404 236 OFFCURVE",
"403 237 CURVE SMOOTH",
"402 238 OFFCURVE",
"401 238 OFFCURVE",
"401 238 CURVE",
"402 279 OFFCURVE",
"403 308 OFFCURVE",
"403 325 CURVE SMOOTH",
"404 368 LINE SMOOTH",
"404 389 OFFCURVE",
"407 459 OFFCURVE",
"415 488 CURVE",
"416 489 OFFCURVE",
"417 491 OFFCURVE",
"418 494 CURVE SMOOTH",
"419 497 OFFCURVE",
"421 499 OFFCURVE",
"423 499 CURVE SMOOTH",
"435 499 OFFCURVE",
"445 497 OFFCURVE",
"453 493 CURVE",
"482 477 OFFCURVE",
"493 443 OFFCURVE",
"493 428 CURVE SMOOTH",
"493 419 LINE SMOOTH",
"493 371 OFFCURVE",
"490 311 OFFCURVE",
"479 274 CURVE SMOOTH",
"472 250 OFFCURVE",
"461 234 OFFCURVE",
"446 234 CURVE SMOOTH"
);
}
);
};
layerId = "CBDECE4A-293B-4E5C-B714-A3FD26C7130D";
paths = (
{
closed = 1;
nodes = (
"165 -19 OFFCURVE",
"231 -16 OFFCURVE",
"278 -16 CURVE SMOOTH",
"338 -16 LINE SMOOTH",
"379 -16 OFFCURVE",
"394 -9 OFFCURVE",
"394 36 CURVE SMOOTH",
"394 139 LINE",
"530 139 LINE SMOOTH",
"711 139 OFFCURVE",
"811 217 OFFCURVE",
"811 398 CURVE SMOOTH",
"811 450 OFFCURVE",
"795 491 OFFCURVE",
"763 521 CURVE SMOOTH",
"709 571 OFFCURVE",
"625 593 OFFCURVE",
"534 593 CURVE SMOOTH",
"395 593 LINE",
"395 604 LINE",
"394 607 OFFCURVE",
"394 611 OFFCURVE",
"394 616 CURVE SMOOTH",
"394 648 LINE SMOOTH",
"394 695 OFFCURVE",
"378 700 OFFCURVE",
"338 700 CURVE SMOOTH",
"278 700 LINE SMOOTH",
"266 700 OFFCURVE",
"248 701 OFFCURVE",
"225 701 CURVE SMOOTH",
"201 702 OFFCURVE",
"156 703 OFFCURVE",
"89 703 CURVE SMOOTH",
"78 703 OFFCURVE",
"71 695 OFFCURVE",
"68 683 CURVE SMOOTH",
"65 674 OFFCURVE",
"63 661 OFFCURVE",
"63 643 CURVE SMOOTH",
"63 618 LINE SMOOTH",
"63 605 OFFCURVE",
"63 596 OFFCURVE",
"62 589 CURVE",
"61 554 LINE",
"60 512 LINE SMOOTH",
"59 465 OFFCURVE",
"58 429 OFFCURVE",
"58 404 CURVE SMOOTH",
"58 353 LINE",
"59 261 LINE SMOOTH",
"60 185 OFFCURVE",
"63 131 OFFCURVE",
"63 98 CURVE SMOOTH",
"63 43 LINE SMOOTH",
"63 24 OFFCURVE",
"65 10 OFFCURVE",
"68 3 CURVE",
"71 -10 OFFCURVE",
"78 -19 OFFCURVE",
"89 -19 CURVE SMOOTH"
);
},
{
closed = 1;
nodes = (
"433 234 OFFCURVE",
"424 234 OFFCURVE",
"420 235 CURVE",
"413 235 OFFCURVE",
"409 235 OFFCURVE",
"408 236 CURVE",
"406 236 OFFCURVE",
"404 236 OFFCURVE",
"403 237 CURVE SMOOTH",
"399 240 OFFCURVE",
"403 308 OFFCURVE",
"403 325 CURVE SMOOTH",
"404 368 LINE SMOOTH",
"404 389 OFFCURVE",
"407 459 OFFCURVE",
"415 488 CURVE",
"416 489 OFFCURVE",
"417 491 OFFCURVE",
"418 494 CURVE SMOOTH",
"419 497 OFFCURVE",
"421 499 OFFCURVE",
"423 499 CURVE SMOOTH",
"435 499 OFFCURVE",
"445 497 OFFCURVE",
"453 493 CURVE SMOOTH",
"482 477 OFFCURVE",
"493 443 OFFCURVE",
"493 428 CURVE SMOOTH",
"493 419 LINE SMOOTH",
"493 371 OFFCURVE",
"490 311 OFFCURVE",
"479 274 CURVE SMOOTH",
"472 250 OFFCURVE",
"461 234 OFFCURVE",
"446 234 CURVE SMOOTH"
);
}
);
width = 828;
}
);
leftKerningGroup = H;
note = Thorn;
rightKerningGroup = P;
unicode = 00DE;
},
{
color = 6;
glyphname = Q;
lastChange = "2023-02-22 08:59:45 +0000";
layers = (
{
anchors = (
{
name = bottom;
position = "{401, 0}";
},
{
name = top;
position = "{401, 655}";
}
);
background = {
anchors = (
{
name = bottom;
position = "{401, 0}";
},
{
name = top;
position = "{401, 676}";
}
);
paths = (
{
closed = 1;
nodes = (
"463 -214 LINE SMOOTH",
"466 -214 OFFCURVE",
"467 -212 OFFCURVE",
"467 -210 CURVE",
"471 -210 OFFCURVE",
"475 -209 OFFCURVE",
"481 -208 CURVE SMOOTH",
"497 -205 OFFCURVE",
"513 -200 OFFCURVE",
"529 -194 CURVE",
"532 -192 OFFCURVE",
"535 -191 OFFCURVE",
"538 -191 CURVE",
"540 -191 OFFCURVE",
"541 -191 OFFCURVE",
"542 -191 CURVE",
"548 -189 OFFCURVE",
"555 -187 OFFCURVE",
"561 -184 CURVE",
"580 -179 LINE",
"583 -177 OFFCURVE",
"586 -175 OFFCURVE",
"590 -172 CURVE",
"594 -171 OFFCURVE",
"598 -167 OFFCURVE",
"602 -164 CURVE",
"631 -150 LINE",
"653 -134 OFFCURVE",
"663 -126 OFFCURVE",
"663 -114 CURVE SMOOTH",
"663 -96 OFFCURVE",
"642 -65 OFFCURVE",
"598 -9 CURVE",
"717 31 OFFCURVE",
"781 132 OFFCURVE",
"781 363 CURVE SMOOTH",
"781 508 OFFCURVE",
"700 622 OFFCURVE",
"577 665 CURVE SMOOTH",
"528 682 OFFCURVE",
"474 689 OFFCURVE",
"418 689 CURVE SMOOTH",
"275 689 OFFCURVE",
"176 663 OFFCURVE",
"113 604 CURVE SMOOTH",
"49 544 OFFCURVE",
"20 423 OFFCURVE",
"20 322 CURVE SMOOTH",
"20 211 OFFCURVE",
"34 146 OFFCURVE",
"62 99 CURVE",
"110 13 OFFCURVE",
"203 -23 OFFCURVE",
"321 -29 CURVE",
"328 -39 OFFCURVE",
"333 -49 OFFCURVE",
"336 -55 CURVE",
"414 -181 LINE",
"418 -184 LINE",
"419 -185 OFFCURVE",
"420 -186 OFFCURVE",
"423 -186 CURVE",
"426 -191 LINE",
"439 -204 OFFCURVE",
"447 -210 OFFCURVE",
"450 -211 CURVE",
"454 -213 OFFCURVE",
"456 -214 OFFCURVE",
"457 -214 CURVE SMOOTH",
"459 -214 LINE"
);
},
{
closed = 1;
nodes = (
"393 91 OFFCURVE",
"376 105 OFFCURVE",
"363 136 CURVE SMOOTH",
"350 168 OFFCURVE",
"350 199 OFFCURVE",
"347 230 CURVE",
"345 253 OFFCURVE",
"344 280 OFFCURVE",
"344 313 CURVE SMOOTH",
"344 363 OFFCURVE",
"345 398 OFFCURVE",
"347 422 CURVE",
"350 455 OFFCURVE",
"353 486 OFFCURVE",
"363 514 CURVE",
"376 538 OFFCURVE",
"394 551 OFFCURVE",
"413 551 CURVE SMOOTH",
"424 551 OFFCURVE",
"434 546 OFFCURVE",
"444 535 CURVE",
"479 489 OFFCURVE",
"478 447 OFFCURVE",
"485 353 CURVE",
"485 330 LINE",
"485 296 LINE SMOOTH",
"485 201 OFFCURVE",
"476 146 OFFCURVE",
"444 103 CURVE",
"434 95 OFFCURVE",
"424 91 OFFCURVE",
"413 91 CURVE SMOOTH"
);
}
);
};
layerId = "CBDECE4A-293B-4E5C-B714-A3FD26C7130D";
paths = (
{
closed = 1;
nodes = (
"463 -214 LINE SMOOTH",
"466 -214 OFFCURVE",
"467 -212 OFFCURVE",
"467 -210 CURVE",
"471 -210 OFFCURVE",
"475 -209 OFFCURVE",
"481 -208 CURVE SMOOTH",
"497 -205 OFFCURVE",
"513 -200 OFFCURVE",
"529 -194 CURVE",
"532 -192 OFFCURVE",
"535 -191 OFFCURVE",
"538 -191 CURVE SMOOTH",
"542 -191 LINE",
"548 -189 OFFCURVE",
"555 -187 OFFCURVE",
"561 -184 CURVE",
"580 -179 LINE",
"590 -172 LINE",
"594 -171 OFFCURVE",
"598 -167 OFFCURVE",
"602 -164 CURVE",
"631 -150 LINE",
"653 -134 OFFCURVE",
"663 -126 OFFCURVE",
"663 -114 CURVE SMOOTH",
"663 -96 OFFCURVE",
"642 -65 OFFCURVE",
"598 -9 CURVE",
"717 31 OFFCURVE",
"781 132 OFFCURVE",
"781 363 CURVE SMOOTH",
"781 508 OFFCURVE",
"700 622 OFFCURVE",
"577 665 CURVE SMOOTH",
"528 682 OFFCURVE",
"474 689 OFFCURVE",
"418 689 CURVE SMOOTH",
"275 689 OFFCURVE",
"176 663 OFFCURVE",
"113 604 CURVE SMOOTH",
"49 544 OFFCURVE",
"20 423 OFFCURVE",
"20 322 CURVE SMOOTH",
"20 211 OFFCURVE",
"34 146 OFFCURVE",
"62 99 CURVE SMOOTH",
"110 13 OFFCURVE",
"203 -23 OFFCURVE",
"321 -29 CURVE",
"328 -39 OFFCURVE",
"333 -49 OFFCURVE",
"336 -55 CURVE SMOOTH",
"414 -181 LINE",
"418 -184 LINE SMOOTH",
"419 -185 OFFCURVE",
"420 -186 OFFCURVE",
"423 -186 CURVE",
"426 -191 LINE",
"439 -204 OFFCURVE",
"447 -210 OFFCURVE",
"450 -211 CURVE SMOOTH",
"454 -213 OFFCURVE",
"456 -214 OFFCURVE",
"457 -214 CURVE SMOOTH"
);
},
{
closed = 1;
nodes = (
"393 91 OFFCURVE",
"376 105 OFFCURVE",
"363 136 CURVE SMOOTH",
"350 168 OFFCURVE",
"350 199 OFFCURVE",
"347 230 CURVE SMOOTH",
"345 253 OFFCURVE",
"344 280 OFFCURVE",
"344 313 CURVE SMOOTH",
"344 363 OFFCURVE",
"345 398 OFFCURVE",
"347 422 CURVE SMOOTH",
"350 455 OFFCURVE",
"353 486 OFFCURVE",
"363 514 CURVE",
"376 538 OFFCURVE",
"394 551 OFFCURVE",
"413 551 CURVE SMOOTH",
"424 551 OFFCURVE",
"434 546 OFFCURVE",
"444 535 CURVE",
"479 489 OFFCURVE",
"478 447 OFFCURVE",
"485 353 CURVE",
"485 296 LINE SMOOTH",
"485 201 OFFCURVE",
"476 146 OFFCURVE",
"444 103 CURVE",
"434 95 OFFCURVE",
"424 91 OFFCURVE",
"413 91 CURVE SMOOTH"
);
}
);
width = 801;
}
);
leftKerningGroup = O;
leftMetricsKey = "=O";
note = Q;
rightKerningGroup = O;
rightMetricsKey = "=O";
unicode = 0051;
},
{
color = 6;
glyphname = R;
lastChange = "2023-02-22 08:59:45 +0000";
layers = (
{
anchors = (
{
name = bottom;
position = "{404, 0}";
},
{
name = top;
position = "{364, 655}";
}
);
background = {
anchors = (
{
name = bottom;
position = "{404, 0}";
},
{
name = top;
position = "{364, 676}";
}
);
paths = (
{
closed = 1;
nodes = (
"573 -44 LINE SMOOTH",
"575 -44 OFFCURVE",
"575 -42 OFFCURVE",
"576 -40 CURVE",
"580 -40 LINE SMOOTH",
"584 -40 OFFCURVE",
"589 -38 OFFCURVE",
"593 -35 CURVE",
"601 -34 OFFCURVE",
"606 -33 OFFCURVE",
"610 -30 CURVE",
"628 -25 OFFCURVE",
"638 -22 OFFCURVE",
"641 -19 CURVE SMOOTH",
"643 -17 OFFCURVE",
"646 -18 OFFCURVE",
"646 -17 CURVE SMOOTH",
"646 -16 OFFCURVE",
"647 -16 OFFCURVE",
"648 -16 CURVE",
"663 -12 OFFCURVE",
"676 -8 OFFCURVE",
"689 1 CURVE SMOOTH",
"723 25 LINE",
"728 30 OFFCURVE",
"735 34 OFFCURVE",
"746 39 CURVE",
"756 44 OFFCURVE",
"764 49 OFFCURVE",
"773 55 CURVE SMOOTH",
"794 69 OFFCURVE",
"803 79 OFFCURVE",
"803 92 CURVE SMOOTH",
"803 96 OFFCURVE",
"801 102 OFFCURVE",
"796 111 CURVE",
"791 124 OFFCURVE",
"775 141 OFFCURVE",
"757 168 CURVE SMOOTH",
"726 214 LINE",
"723 218 OFFCURVE",
"722 221 OFFCURVE",
"718 225 CURVE SMOOTH",
"715 228 OFFCURVE",
"713 230 OFFCURVE",
"711 232 CURVE",
"698 248 LINE SMOOTH",
"692 255 OFFCURVE",
"687 254 OFFCURVE",
"685 260 CURVE SMOOTH",
"682 270 OFFCURVE",
"674 282 OFFCURVE",
"669 284 CURVE",
"689 293 OFFCURVE",
"707 305 OFFCURVE",
"724 321 CURVE SMOOTH",
"759 354 OFFCURVE",
"779 400 OFFCURVE",
"779 458 CURVE SMOOTH",
"779 509 OFFCURVE",
"760 556 OFFCURVE",
"722 588 CURVE",
"680 625 OFFCURVE",
"616 647 OFFCURVE",
"534 650 CURVE",
"514 650 OFFCURVE",
"450 651 OFFCURVE",
"398 652 CURVE SMOOTH",
"361 653 LINE SMOOTH",
"328 654 OFFCURVE",
"303 655 OFFCURVE",
"286 655 CURVE SMOOTH",
"212 655 OFFCURVE",
"138 658 OFFCURVE",
"66 658 CURVE SMOOTH",
"51 658 OFFCURVE",
"42 647 OFFCURVE",
"37 623 CURVE",
"32 607 OFFCURVE",
"30 579 OFFCURVE",
"30 545 CURVE SMOOTH",
"30 520 OFFCURVE",
"31 500 OFFCURVE",
"33 484 CURVE",
"35 457 OFFCURVE",
"36 438 OFFCURVE",
"36 424 CURVE",
"35 413 LINE",
"33 396 LINE",
"33 387 OFFCURVE",
"33 382 OFFCURVE",
"32 378 CURVE",
"32 373 OFFCURVE",
"32 370 OFFCURVE",
"32 369 CURVE",
"31 368 OFFCURVE",
"31 367 OFFCURVE",
"31 366 CURVE SMOOTH",
"31 343 OFFCURVE",
"29 319 OFFCURVE",
"33 293 CURVE SMOOTH",
"36 272 LINE SMOOTH",
"38 259 OFFCURVE",
"39 241 OFFCURVE",
"39 218 CURVE",
"41 183 LINE SMOOTH",
"43 141 OFFCURVE",
"47 112 OFFCURVE",
"48 95 CURVE",
"47 104 OFFCURVE",
"47 69 OFFCURVE",
"51 30 CURVE SMOOTH",
"52 19 OFFCURVE",
"54 12 OFFCURVE",
"54 9 CURVE SMOOTH",
"54 5 OFFCURVE",
"54 3 OFFCURVE",
"55 1 CURVE",
"55 0 OFFCURVE",
"55 -1 OFFCURVE",
"55 -3 CURVE",
"58 -10 LINE",
"92 -22 LINE",
"101 -22 LINE",
"119 -22 LINE",
"139 -22 LINE",
"143 -23 OFFCURVE",
"148 -24 OFFCURVE",
"155 -24 CURVE SMOOTH",
"201 -24 OFFCURVE",
"310 -17 OFFCURVE",
"356 -13 CURVE",
"356 -13 OFFCURVE",
"356 -13 OFFCURVE",
"357 -13 CURVE",
"358 -14 OFFCURVE",
"359 -14 OFFCURVE",
"360 -15 CURVE",
"367 -15 LINE SMOOTH",
"370 -15 OFFCURVE",
"374 -12 OFFCURVE",
"375 -3 CURVE",
"378 14 OFFCURVE",
"380 38 OFFCURVE",
"380 65 CURVE SMOOTH",
"380 95 OFFCURVE",
"380 138 OFFCURVE",
"383 155 CURVE SMOOTH",
"384 161 OFFCURVE",
"386 166 OFFCURVE",
"389 166 CURVE SMOOTH",
"392 166 OFFCURVE",
"394 164 OFFCURVE",
"397 160 CURVE",
"400 155 OFFCURVE",
"403 150 OFFCURVE",
"409 146 CURVE",
"416 137 OFFCURVE",
"422 128 OFFCURVE",
"425 119 CURVE",
"523 -12 LINE",
"523 -12 OFFCURVE",
"524 -13 OFFCURVE",
"528 -16 CURVE",
"529 -16 LINE",
"530 -16 OFFCURVE",
"531 -17 OFFCURVE",
"532 -18 CURVE",
"533 -18 OFFCURVE",
"533 -21 OFFCURVE",
"536 -23 CURVE",
"542 -30 OFFCURVE",
"550 -37 OFFCURVE",
"559 -43 CURVE",
"561 -44 OFFCURVE",
"563 -44 OFFCURVE",
"567 -44 CURVE SMOOTH",
"569 -44 LINE"
);
},
{
closed = 1;
nodes = (
"371 306 LINE",
"370 306 OFFCURVE",
"369 308 OFFCURVE",
"369 309 CURVE SMOOTH",
"369 333 OFFCURVE",
"369 364 OFFCURVE",
"370 402 CURVE SMOOTH",
"371 431 LINE SMOOTH",
"372 448 OFFCURVE",
"373 463 OFFCURVE",
"375 475 CURVE",
"376 506 OFFCURVE",
"379 528 OFFCURVE",
"385 543 CURVE",
"386 550 OFFCURVE",
"389 555 OFFCURVE",
"392 555 CURVE SMOOTH",
"403 555 OFFCURVE",
"414 551 OFFCURVE",
"421 546 CURVE",
"451 527 OFFCURVE",
"450 485 OFFCURVE",
"450 455 CURVE SMOOTH",
"450 445 LINE SMOOTH",
"450 426 OFFCURVE",
"449 410 OFFCURVE",
"448 396 CURVE SMOOTH",
"445 350 OFFCURVE",
"432 305 OFFCURVE",
"392 305 CURVE SMOOTH",
"378 305 LINE"
);
}
);
};
layerId = "CBDECE4A-293B-4E5C-B714-A3FD26C7130D";
paths = (
{
closed = 1;
nodes = (
"573 -44 LINE SMOOTH",
"575 -44 OFFCURVE",
"575 -42 OFFCURVE",
"576 -40 CURVE",
"580 -40 LINE SMOOTH",
"584 -40 OFFCURVE",
"589 -38 OFFCURVE",
"593 -35 CURVE",
"601 -34 OFFCURVE",
"606 -33 OFFCURVE",
"610 -30 CURVE",
"628 -25 OFFCURVE",
"638 -22 OFFCURVE",
"641 -19 CURVE SMOOTH",
"643 -17 OFFCURVE",
"646 -18 OFFCURVE",
"646 -17 CURVE SMOOTH",
"646 -16 OFFCURVE",
"647 -16 OFFCURVE",
"648 -16 CURVE SMOOTH",
"663 -12 OFFCURVE",
"676 -8 OFFCURVE",
"689 1 CURVE SMOOTH",
"723 25 LINE",
"728 30 OFFCURVE",
"735 34 OFFCURVE",
"746 39 CURVE SMOOTH",
"756 44 OFFCURVE",
"764 49 OFFCURVE",
"773 55 CURVE SMOOTH",
"794 69 OFFCURVE",
"803 79 OFFCURVE",
"803 92 CURVE SMOOTH",
"803 96 OFFCURVE",
"801 102 OFFCURVE",
"796 111 CURVE",
"791 124 OFFCURVE",
"775 141 OFFCURVE",
"757 168 CURVE SMOOTH",
"726 214 LINE SMOOTH",
"723 218 OFFCURVE",
"722 221 OFFCURVE",
"718 225 CURVE SMOOTH",
"711 232 LINE",
"698 248 LINE SMOOTH",
"692 255 OFFCURVE",
"687 254 OFFCURVE",
"685 260 CURVE SMOOTH",
"682 270 OFFCURVE",
"674 282 OFFCURVE",
"669 284 CURVE",
"689 293 OFFCURVE",
"707 305 OFFCURVE",
"724 321 CURVE SMOOTH",
"759 354 OFFCURVE",
"779 400 OFFCURVE",
"779 458 CURVE SMOOTH",
"779 509 OFFCURVE",
"760 556 OFFCURVE",
"722 588 CURVE SMOOTH",
"680 625 OFFCURVE",
"616 647 OFFCURVE",
"534 650 CURVE SMOOTH",
"398 652 LINE",
"361 653 LINE SMOOTH",
"328 654 OFFCURVE",
"303 655 OFFCURVE",
"286 655 CURVE SMOOTH",
"212 655 OFFCURVE",
"138 658 OFFCURVE",
"66 658 CURVE SMOOTH",
"51 658 OFFCURVE",
"42 647 OFFCURVE",
"37 623 CURVE SMOOTH",
"32 607 OFFCURVE",
"30 579 OFFCURVE",
"30 545 CURVE SMOOTH",
"30 520 OFFCURVE",
"31 500 OFFCURVE",
"33 484 CURVE SMOOTH",
"35 457 OFFCURVE",
"36 438 OFFCURVE",
"36 424 CURVE SMOOTH",
"35 413 LINE",
"33 396 LINE SMOOTH",
"33 387 OFFCURVE",
"33 382 OFFCURVE",
"32 378 CURVE",
"32 369 LINE",
"31 368 OFFCURVE",
"31 367 OFFCURVE",
"31 366 CURVE SMOOTH",
"31 343 OFFCURVE",
"29 319 OFFCURVE",
"33 293 CURVE SMOOTH",
"36 272 LINE SMOOTH",
"38 259 OFFCURVE",
"39 241 OFFCURVE",
"39 218 CURVE SMOOTH",
"41 183 LINE SMOOTH",
"43 141 OFFCURVE",
"47 112 OFFCURVE",
"48 95 CURVE",
"47 104 OFFCURVE",
"47 69 OFFCURVE",
"51 30 CURVE SMOOTH",
"52 19 OFFCURVE",
"54 12 OFFCURVE",
"54 9 CURVE SMOOTH",
"54 5 OFFCURVE",
"54 3 OFFCURVE",
"55 1 CURVE",
"55 -3 LINE",
"58 -10 LINE",
"92 -22 LINE",
"139 -22 LINE",
"143 -23 OFFCURVE",
"148 -24 OFFCURVE",
"155 -24 CURVE SMOOTH",
"201 -24 OFFCURVE",
"310 -17 OFFCURVE",
"356 -13 CURVE SMOOTH",
"357 -13 LINE",
"360 -15 LINE",
"367 -15 LINE SMOOTH",
"370 -15 OFFCURVE",
"374 -12 OFFCURVE",
"375 -3 CURVE SMOOTH",
"378 14 OFFCURVE",
"380 38 OFFCURVE",
"380 65 CURVE SMOOTH",
"380 95 OFFCURVE",
"380 138 OFFCURVE",
"383 155 CURVE SMOOTH",
"384 161 OFFCURVE",
"386 166 OFFCURVE",
"389 166 CURVE SMOOTH",
"392 166 OFFCURVE",
"394 164 OFFCURVE",
"397 160 CURVE SMOOTH",
"400 155 OFFCURVE",
"403 150 OFFCURVE",
"409 146 CURVE",
"416 137 OFFCURVE",
"422 128 OFFCURVE",
"425 119 CURVE",
"523 -12 LINE",
"528 -16 LINE",
"529 -16 LINE SMOOTH",
"530 -16 OFFCURVE",
"531 -17 OFFCURVE",
"532 -18 CURVE",
"533 -18 OFFCURVE",
"533 -21 OFFCURVE",
"536 -23 CURVE",
"542 -30 OFFCURVE",
"550 -37 OFFCURVE",
"559 -43 CURVE SMOOTH",
"561 -44 OFFCURVE",
"563 -44 OFFCURVE",
"567 -44 CURVE SMOOTH"
);
},
{
closed = 1;
nodes = (
"371 306 LINE SMOOTH",
"370 306 OFFCURVE",
"369 308 OFFCURVE",
"369 309 CURVE SMOOTH",
"369 333 OFFCURVE",
"369 364 OFFCURVE",
"370 402 CURVE SMOOTH",
"371 431 LINE SMOOTH",
"372 448 OFFCURVE",
"373 463 OFFCURVE",
"375 475 CURVE",
"376 506 OFFCURVE",
"379 528 OFFCURVE",
"385 543 CURVE",
"386 550 OFFCURVE",
"389 555 OFFCURVE",
"392 555 CURVE SMOOTH",
"403 555 OFFCURVE",
"414 551 OFFCURVE",
"421 546 CURVE SMOOTH",
"451 527 OFFCURVE",
"450 485 OFFCURVE",
"450 455 CURVE SMOOTH",
"450 445 LINE SMOOTH",
"450 426 OFFCURVE",
"449 410 OFFCURVE",
"448 396 CURVE SMOOTH",
"445 350 OFFCURVE",
"432 305 OFFCURVE",
"392 305 CURVE SMOOTH",
"378 305 LINE"
);
}
);
width = 808;
}
);
leftKerningGroup = H;
leftMetricsKey = "=H";
note = R;
rightKerningGroup = R;
unicode = 0052;
},
{
color = 6;
glyphname = S;
lastChange = "2023-02-22 08:59:45 +0000";
layers = (
{
anchors = (
{
name = bottom;
position = "{307, 0}";
},
{
name = top;
position = "{307, 655}";
}
);
background = {
anchors = (
{
name = bottom;
position = "{307, 0}";
},
{
name = top;
position = "{307, 676}";
}
);
paths = (
{
closed = 1;
nodes = (
"334 -34 OFFCURVE",
"382 -27 OFFCURVE",
"423 -12 CURVE",
"468 4 OFFCURVE",
"507 27 OFFCURVE",
"540 60 CURVE",
"570 97 OFFCURVE",
"587 140 OFFCURVE",
"593 189 CURVE",
"595 238 OFFCURVE",
"584 293 OFFCURVE",
"546 331 CURVE SMOOTH",
"510 367 OFFCURVE",
"471 389 OFFCURVE",
"425 405 CURVE",
"423 406 OFFCURVE",
"417 409 OFFCURVE",
"406 412 CURVE",
"397 415 OFFCURVE",
"389 421 OFFCURVE",
"380 426 CURVE",
"358 437 OFFCURVE",
"349 453 OFFCURVE",
"349 469 CURVE SMOOTH",
"349 496 OFFCURVE",
"450 487 OFFCURVE",
"468 487 CURVE SMOOTH",
"471 487 LINE",
"482 487 LINE",
"569 476 LINE",
"584 487 OFFCURVE",
"589 507 OFFCURVE",
"589 540 CURVE SMOOTH",
"589 559 OFFCURVE",
"587 576 OFFCURVE",
"585 594 CURVE",
"584 603 OFFCURVE",
"582 613 OFFCURVE",
"582 625 CURVE",
"580 647 LINE",
"579 647 LINE",
"578 647 LINE SMOOTH",
"577 647 OFFCURVE",
"574 648 OFFCURVE",
"571 655 CURVE",
"570 656 OFFCURVE",
"569 657 OFFCURVE",
"567 658 CURVE",
"566 658 OFFCURVE",
"565 659 OFFCURVE",
"564 659 CURVE SMOOTH",
"554 659 OFFCURVE",
"539 659 OFFCURVE",
"517 664 CURVE SMOOTH",
"491 670 LINE",
"478 671 OFFCURVE",
"470 673 OFFCURVE",
"464 676 CURVE",
"408 684 OFFCURVE",
"374 687 OFFCURVE",
"343 687 CURVE SMOOTH",
"288 687 OFFCURVE",
"241 681 OFFCURVE",
"195 668 CURVE SMOOTH",
"94 639 OFFCURVE",
"21 576 OFFCURVE",
"21 458 CURVE SMOOTH",
"21 358 OFFCURVE",
"112 267 OFFCURVE",
"204 256 CURVE SMOOTH",
"269 248 OFFCURVE",
"288 201 OFFCURVE",
"236 182 CURVE SMOOTH",
"222 177 OFFCURVE",
"207 175 OFFCURVE",
"193 175 CURVE",
"176 176 LINE",
"146 176 LINE SMOOTH",
"120 176 OFFCURVE",
"81 190 OFFCURVE",
"34 221 CURVE",
"26 216 OFFCURVE",
"21 210 OFFCURVE",
"20 204 CURVE",
"20 201 LINE",
"31 112 OFFCURVE",
"38 75 OFFCURVE",
"49 27 CURVE",
"107 -12 OFFCURVE",
"188 -34 OFFCURVE",
"278 -34 CURVE SMOOTH"
);
}
);
};
layerId = "CBDECE4A-293B-4E5C-B714-A3FD26C7130D";
paths = (
{
closed = 1;
nodes = (
"334 -34 OFFCURVE",
"382 -27 OFFCURVE",
"423 -12 CURVE SMOOTH",
"468 4 OFFCURVE",
"507 27 OFFCURVE",
"540 60 CURVE",
"570 97 OFFCURVE",
"587 140 OFFCURVE",
"593 189 CURVE",
"595 238 OFFCURVE",
"584 293 OFFCURVE",
"546 331 CURVE SMOOTH",
"510 367 OFFCURVE",
"471 389 OFFCURVE",
"425 405 CURVE SMOOTH",
"423 406 OFFCURVE",
"417 409 OFFCURVE",
"406 412 CURVE SMOOTH",
"397 415 OFFCURVE",
"389 421 OFFCURVE",
"380 426 CURVE SMOOTH",
"358 437 OFFCURVE",
"349 453 OFFCURVE",
"349 469 CURVE SMOOTH",
"349 496 OFFCURVE",
"450 487 OFFCURVE",
"468 487 CURVE SMOOTH",
"482 487 LINE",
"569 476 LINE",
"584 487 OFFCURVE",
"589 507 OFFCURVE",
"589 540 CURVE SMOOTH",
"589 559 OFFCURVE",
"587 576 OFFCURVE",
"585 594 CURVE SMOOTH",
"584 603 OFFCURVE",
"582 613 OFFCURVE",
"582 625 CURVE SMOOTH",
"580 647 LINE",
"578 647 LINE SMOOTH",
"577 647 OFFCURVE",
"574 648 OFFCURVE",
"571 655 CURVE",
"570 656 OFFCURVE",
"569 657 OFFCURVE",
"567 658 CURVE",
"566 658 OFFCURVE",
"565 659 OFFCURVE",
"564 659 CURVE SMOOTH",
"554 659 OFFCURVE",
"539 659 OFFCURVE",
"517 664 CURVE SMOOTH",
"491 670 LINE",
"478 671 OFFCURVE",
"470 673 OFFCURVE",
"464 676 CURVE",
"408 684 OFFCURVE",
"374 687 OFFCURVE",
"343 687 CURVE SMOOTH",
"288 687 OFFCURVE",
"241 681 OFFCURVE",
"195 668 CURVE SMOOTH",
"94 639 OFFCURVE",
"21 576 OFFCURVE",
"21 458 CURVE SMOOTH",
"21 358 OFFCURVE",
"112 267 OFFCURVE",
"204 256 CURVE SMOOTH",
"269 248 OFFCURVE",
"288 201 OFFCURVE",
"236 182 CURVE SMOOTH",
"222 177 OFFCURVE",
"207 175 OFFCURVE",
"193 175 CURVE SMOOTH",
"176 176 LINE",
"146 176 LINE SMOOTH",
"120 176 OFFCURVE",
"81 190 OFFCURVE",
"34 221 CURVE",
"26 216 OFFCURVE",
"21 210 OFFCURVE",
"20 204 CURVE SMOOTH",
"20 201 LINE SMOOTH",
"31 112 OFFCURVE",
"38 75 OFFCURVE",
"49 27 CURVE",
"107 -12 OFFCURVE",
"188 -34 OFFCURVE",
"278 -34 CURVE SMOOTH"
);
}
);
width = 613;
}
);
leftKerningGroup = S;
note = S;
rightKerningGroup = S;
unicode = 0053;
},
{
color = 10;
glyphname = Scedilla;
lastChange = "2023-02-22 08:59:45 +0000";
layers = (
{
background = {
paths = (
{
closed = 1;
nodes = (
"567 371 OFFCURVE",
"524 395 OFFCURVE",
"475 409 CURVE",
"472 410 OFFCURVE",
"466 413 OFFCURVE",
"456 417 CURVE",
"446 420 OFFCURVE",
"436 425 OFFCURVE",
"426 430 CURVE",
"405 444 OFFCURVE",
"395 459 OFFCURVE",
"395 475 CURVE SMOOTH",
"395 476 OFFCURVE",
"399 478 OFFCURVE",
"407 479 CURVE",
"440 486 LINE",
"469 491 OFFCURVE",
"495 493 OFFCURVE",
"518 493 CURVE SMOOTH",
"532 493 LINE",
"542 493 LINE",
"635 481 LINE",
"652 493 OFFCURVE",
"656 513 OFFCURVE",
"656 546 CURVE SMOOTH",
"656 565 OFFCURVE",
"655 583 OFFCURVE",
"653 600 CURVE",
"651 611 OFFCURVE",
"650 622 OFFCURVE",
"650 632 CURVE",
"648 653 LINE",
"647 653 LINE",
"646 653 LINE SMOOTH",
"643 653 OFFCURVE",
"641 655 OFFCURVE",
"638 660 CURVE",
"637 661 OFFCURVE",
"635 663 OFFCURVE",
"634 665 CURVE",
"632 667 OFFCURVE",
"631 668 OFFCURVE",
"630 668 CURVE SMOOTH",
"619 668 OFFCURVE",
"603 670 OFFCURVE",
"580 674 CURVE SMOOTH",
"550 680 LINE",
"539 681 OFFCURVE",
"531 683 OFFCURVE",
"525 684 CURVE",
"466 691 OFFCURVE",
"420 695 OFFCURVE",
"387 695 CURVE SMOOTH",
"330 695 OFFCURVE",
"278 689 OFFCURVE",
"231 678 CURVE SMOOTH",
"122 650 OFFCURVE",
"46 583 OFFCURVE",
"46 463 CURVE SMOOTH",
"46 414 OFFCURVE",
"62 350 OFFCURVE",
"130 301 CURVE",
"163 279 OFFCURVE",
"199 258 OFFCURVE",
"240 239 CURVE SMOOTH",
"293 213 LINE",
"290 204 OFFCURVE",
"284 197 OFFCURVE",
"275 194 CURVE SMOOTH",
"259 189 OFFCURVE",
"243 187 OFFCURVE",
"228 187 CURVE",
"212 188 LINE",
"188 188 LINE SMOOTH",
"132 188 OFFCURVE",
"89 203 OFFCURVE",
"38 234 CURVE",
"31 230 OFFCURVE",
"26 224 OFFCURVE",
"25 216 CURVE",
"25 213 LINE",
"37 124 OFFCURVE",
"42 86 OFFCURVE",
"58 38 CURVE",
"89 19 OFFCURVE",
"128 3 OFFCURVE",
"175 -8 CURVE SMOOTH",
"208 -15 OFFCURVE",
"237 -19 OFFCURVE",
"262 -21 CURVE",
"253 -88 LINE",
"251 -128 LINE",
"264 -122 OFFCURVE",
"278 -119 OFFCURVE",
"293 -119 CURVE SMOOTH",
"332 -119 OFFCURVE",
"356 -138 OFFCURVE",
"356 -173 CURVE SMOOTH",
"356 -206 OFFCURVE",
"336 -239 OFFCURVE",
"291 -239 CURVE SMOOTH",
"266 -239 OFFCURVE",
"243 -234 OFFCURVE",
"222 -225 CURVE",
"221 -226 OFFCURVE",
"220 -229 OFFCURVE",
"218 -234 CURVE SMOOTH",
"216 -239 OFFCURVE",
"214 -246 OFFCURVE",
"211 -253 CURVE",
"201 -308 LINE",
"207 -315 OFFCURVE",
"216 -321 OFFCURVE",
"227 -325 CURVE SMOOTH",
"250 -333 OFFCURVE",
"271 -338 OFFCURVE",
"291 -338 CURVE SMOOTH",
"308 -338 LINE SMOOTH",
"477 -338 OFFCURVE",
"531 -271 OFFCURVE",
"531 -184 CURVE SMOOTH",
"531 -125 OFFCURVE",
"479 -75 OFFCURVE",
"366 -58 CURVE",
"371 -22 LINE",
"444 -15 OFFCURVE",
"530 6 OFFCURVE",
"595 71 CURVE",
"628 108 OFFCURVE",
"647 151 OFFCURVE",
"652 201 CURVE",
"655 212 OFFCURVE",
"656 223 OFFCURVE",
"656 233 CURVE SMOOTH",
"656 266 OFFCURVE",
"636 304 OFFCURVE",
"603 336 CURVE SMOOTH"
);
}
);
};
components = (
{
name = S;
},
{
name = cedillacomb;
transform = "{1, 0, 0, 1, 7, 0}";
}
);
layerId = "CBDECE4A-293B-4E5C-B714-A3FD26C7130D";
width = 613;
}
);
leftKerningGroup = S;
note = Scedilla;
rightKerningGroup = S;
unicode = 015E;
},
{
color = 6;
glyphname = Germandbls;
lastChange = "2023-02-22 08:59:45 +0000";
layers = (
{
background = {
anchors = (
{
name = bottom;
position = "{399, 0}";
},
{
name = center;
position = "{399, 338}";
},
{
name = top;
position = "{399, 676}";
},
{
name = topleft;
position = "{-21, 676}";
}
);
paths = (
{
closed = 1;
nodes = (
"809 354 OFFCURVE",
"774 394 OFFCURVE",
"753 395 CURVE",
"746 398 OFFCURVE",
"707 416 OFFCURVE",
"699 421 CURVE SMOOTH",
"681 432 OFFCURVE",
"673 441 OFFCURVE",
"673 447 CURVE SMOOTH",
"673 483 OFFCURVE",
"707 479 OFFCURVE",
"751 479 CURVE",
"832 468 LINE",
"845 478 OFFCURVE",
"849 517 OFFCURVE",
"852 549 CURVE SMOOTH",
"854 568 OFFCURVE",
"853 585 OFFCURVE",
"853 602 CURVE",
"852 611 OFFCURVE",
"851 621 OFFCURVE",
"851 632 CURVE",
"852 654 LINE",
"850 654 LINE SMOOTH",
"849 654 OFFCURVE",
"847 655 OFFCURVE",
"845 663 CURVE",
"844 664 OFFCURVE",
"844 665 OFFCURVE",
"842 666 CURVE",
"841 665 OFFCURVE",
"840 667 OFFCURVE",
"839 667 CURVE SMOOTH",
"770 686 OFFCURVE",
"564 698 OFFCURVE",
"400 688 CURVE SMOOTH",
"361 686 OFFCURVE",
"258 679 OFFCURVE",
"159 624 CURVE SMOOTH",
"75 577 OFFCURVE",
"29 501 OFFCURVE",
"30 362 CURVE",
"29 352 OFFCURVE",
"29 343 OFFCURVE",
"29 338 CURVE SMOOTH",
"29 327 LINE",
"28 35 LINE SMOOTH",
"28 28 OFFCURVE",
"34 9 OFFCURVE",
"39 9 CURVE",
"87 -4 OFFCURVE",
"133 -5 OFFCURVE",
"197 -5 CURVE",
"218 -4 OFFCURVE",
"253 -3 OFFCURVE",
"305 0 CURVE SMOOTH",
"321 1 LINE",
"342 8 OFFCURVE",
"345 34 OFFCURVE",
"342 78 CURVE SMOOTH",
"332 225 LINE SMOOTH",
"324 337 OFFCURVE",
"321 400 OFFCURVE",
"343 446 CURVE",
"382 515 OFFCURVE",
"419 513 OFFCURVE",
"459 527 CURVE",
"460 527 OFFCURVE",
"462 527 OFFCURVE",
"465 526 CURVE",
"412 478 OFFCURVE",
"399 445 OFFCURVE",
"399 395 CURVE SMOOTH",
"399 308 OFFCURVE",
"475 271 OFFCURVE",
"552 248 CURVE SMOOTH",
"604 232 OFFCURVE",
"612 221 OFFCURVE",
"602 202 CURVE SMOOTH",
"590 181 OFFCURVE",
"555 179 OFFCURVE",
"514 180 CURVE SMOOTH",
"492 181 OFFCURVE",
"449 193 OFFCURVE",
"410 224 CURVE",
"399 214 OFFCURVE",
"395 208 OFFCURVE",
"394 202 CURVE",
"394 199 LINE",
"403 112 OFFCURVE",
"409 76 OFFCURVE",
"418 29 CURVE",
"467 -9 OFFCURVE",
"539 -25 OFFCURVE",
"614 -25 CURVE SMOOTH",
"661 -25 OFFCURVE",
"701 -19 OFFCURVE",
"735 -4 CURVE SMOOTH",
"773 12 OFFCURVE",
"806 34 OFFCURVE",
"833 66 CURVE",
"858 103 OFFCURVE",
"873 145 OFFCURVE",
"878 192 CURVE",
"879 230 OFFCURVE",
"870 284 OFFCURVE",
"838 321 CURVE SMOOTH"
);
}
);
};
layerId = "CBDECE4A-293B-4E5C-B714-A3FD26C7130D";
paths = (
{
closed = 1;
nodes = (
"809 354 OFFCURVE",
"774 394 OFFCURVE",
"753 395 CURVE",
"746 398 OFFCURVE",
"707 416 OFFCURVE",
"699 421 CURVE SMOOTH",
"681 432 OFFCURVE",
"673 441 OFFCURVE",
"673 447 CURVE SMOOTH",
"673 483 OFFCURVE",
"707 479 OFFCURVE",
"751 479 CURVE",
"832 468 LINE",
"845 478 OFFCURVE",
"849 517 OFFCURVE",
"852 549 CURVE SMOOTH",
"854 568 OFFCURVE",
"853 585 OFFCURVE",
"853 602 CURVE SMOOTH",
"852 611 OFFCURVE",
"851 621 OFFCURVE",
"851 632 CURVE SMOOTH",
"852 654 LINE",
"850 654 LINE SMOOTH",
"849 654 OFFCURVE",
"847 655 OFFCURVE",
"845 663 CURVE",
"844 664 OFFCURVE",
"844 665 OFFCURVE",
"842 666 CURVE",
"841 665 OFFCURVE",
"840 667 OFFCURVE",
"839 667 CURVE",
"770 686 OFFCURVE",
"564 698 OFFCURVE",
"400 688 CURVE SMOOTH",
"361 686 OFFCURVE",
"258 679 OFFCURVE",
"159 624 CURVE SMOOTH",
"75 577 OFFCURVE",
"29 501 OFFCURVE",
"30 362 CURVE",
"29 352 OFFCURVE",
"29 343 OFFCURVE",
"29 338 CURVE SMOOTH",
"29 327 LINE",
"28 35 LINE SMOOTH",
"28 28 OFFCURVE",
"34 9 OFFCURVE",
"39 9 CURVE",
"87 -4 OFFCURVE",
"133 -5 OFFCURVE",
"197 -5 CURVE SMOOTH",
"218 -4 OFFCURVE",
"253 -3 OFFCURVE",
"305 0 CURVE SMOOTH",
"321 1 LINE",
"342 8 OFFCURVE",
"345 34 OFFCURVE",
"342 78 CURVE SMOOTH",
"332 225 LINE SMOOTH",
"324 337 OFFCURVE",
"321 400 OFFCURVE",
"343 446 CURVE",
"382 515 OFFCURVE",
"419 513 OFFCURVE",
"459 527 CURVE",
"460 527 OFFCURVE",
"462 527 OFFCURVE",
"465 526 CURVE",
"412 478 OFFCURVE",
"399 445 OFFCURVE",
"399 395 CURVE SMOOTH",
"399 308 OFFCURVE",
"475 271 OFFCURVE",
"552 248 CURVE SMOOTH",
"604 232 OFFCURVE",
"612 221 OFFCURVE",
"602 202 CURVE SMOOTH",
"590 181 OFFCURVE",
"555 179 OFFCURVE",
"514 180 CURVE SMOOTH",
"492 181 OFFCURVE",
"449 193 OFFCURVE",
"410 224 CURVE",
"399 214 OFFCURVE",
"395 208 OFFCURVE",
"394 202 CURVE SMOOTH",
"394 199 LINE SMOOTH",
"403 112 OFFCURVE",
"409 76 OFFCURVE",
"418 29 CURVE",
"467 -9 OFFCURVE",
"539 -25 OFFCURVE",
"614 -25 CURVE SMOOTH",
"661 -25 OFFCURVE",
"701 -19 OFFCURVE",
"735 -4 CURVE SMOOTH",
"773 12 OFFCURVE",
"806 34 OFFCURVE",
"833 66 CURVE",
"858 103 OFFCURVE",
"873 145 OFFCURVE",
"878 192 CURVE",
"879 230 OFFCURVE",
"870 284 OFFCURVE",
"838 321 CURVE SMOOTH"
);
}
);
width = 901;
}
);
leftKerningGroup = H;
rightKerningGroup = S;
unicode = 1E9E;
},
{
color = 6;
glyphname = T;
lastChange = "2023-02-22 08:59:45 +0000";
layers = (
{
anchors = (
{
name = bottom;
position = "{336, 0}";
},
{
name = center;
position = "{336, 338}";
},
{
name = top;
position = "{336, 655}";
}
);
background = {
anchors = (
{
name = bottom;
position = "{356, 0}";
},
{
name = center;
position = "{336, 338}";
},
{
name = top;
position = "{336, 676}";
}
);
paths = (
{
closed = 1;
nodes = (
"247 -10 OFFCURVE",
"271 -10 OFFCURVE",
"283 -9 CURVE",
"386 -7 LINE",
"397 -6 OFFCURVE",
"415 -5 OFFCURVE",
"441 -5 CURVE",
"464 -4 LINE",
"468 -3 OFFCURVE",
"473 -2 OFFCURVE",
"482 1 CURVE",
"492 7 OFFCURVE",
"496 21 OFFCURVE",
"496 43 CURVE SMOOTH",
"496 137 LINE",
"497 149 OFFCURVE",
"500 190 OFFCURVE",
"501 216 CURVE SMOOTH",
"502 246 LINE SMOOTH",
"504 310 OFFCURVE",
"506 352 OFFCURVE",
"506 371 CURVE",
"507 375 OFFCURVE",
"507 384 OFFCURVE",
"507 394 CURVE SMOOTH",
"507 426 LINE",
"507 447 LINE SMOOTH",
"507 447 OFFCURVE",
"507 447 OFFCURVE",
"509 447 CURVE SMOOTH",
"509 447 OFFCURVE",
"509 447 OFFCURVE",
"509 447 CURVE",
"510 447 OFFCURVE",
"513 447 OFFCURVE",
"518 447 CURVE SMOOTH",
"558 447 LINE",
"569 447 OFFCURVE",
"576 447 OFFCURVE",
"612 447 CURVE",
"644 447 LINE SMOOTH",
"656 447 OFFCURVE",
"667 447 OFFCURVE",
"667 465 CURVE SMOOTH",
"667 627 LINE SMOOTH",
"667 634 OFFCURVE",
"667 638 OFFCURVE",
"667 642 CURVE SMOOTH",
"667 647 OFFCURVE",
"657 651 OFFCURVE",
"645 653 CURVE",
"639 654 OFFCURVE",
"634 654 OFFCURVE",
"631 654 CURVE",
"623 655 OFFCURVE",
"608 655 OFFCURVE",
"581 655 CURVE SMOOTH",
"231 655 LINE",
"196 656 LINE",
"187 657 OFFCURVE",
"175 657 OFFCURVE",
"158 657 CURVE SMOOTH",
"55 657 LINE SMOOTH",
"42 657 OFFCURVE",
"32 656 OFFCURVE",
"25 654 CURVE SMOOTH",
"15 651 OFFCURVE",
"6 646 OFFCURVE",
"6 638 CURVE SMOOTH",
"6 628 LINE",
"6 614 LINE",
"5 610 OFFCURVE",
"5 605 OFFCURVE",
"5 599 CURVE SMOOTH",
"5 585 LINE SMOOTH",
"5 548 OFFCURVE",
"7 519 OFFCURVE",
"9 501 CURVE SMOOTH",
"13 465 OFFCURVE",
"24 447 OFFCURVE",
"41 447 CURVE SMOOTH",
"178 447 LINE",
"181 447 LINE",
"181 395 OFFCURVE",
"181 358 OFFCURVE",
"180 336 CURVE SMOOTH",
"177 265 OFFCURVE",
"177 182 OFFCURVE",
"177 127 CURVE SMOOTH",
"177 71 OFFCURVE",
"182 31 OFFCURVE",
"192 9 CURVE",
"198 -3 OFFCURVE",
"204 -10 OFFCURVE",
"213 -10 CURVE SMOOTH"
);
}
);
};
layerId = "CBDECE4A-293B-4E5C-B714-A3FD26C7130D";
paths = (
{
closed = 1;
nodes = (
"247 -10 OFFCURVE",
"271 -9 OFFCURVE",
"283 -9 CURVE SMOOTH",
"386 -7 LINE SMOOTH",
"397 -7 OFFCURVE",
"415 -6 OFFCURVE",
"441 -5 CURVE SMOOTH",
"464 -4 LINE",
"468 -3 OFFCURVE",
"473 -2 OFFCURVE",
"482 1 CURVE",
"492 7 OFFCURVE",
"496 21 OFFCURVE",
"496 43 CURVE SMOOTH",
"496 137 LINE",
"497 149 OFFCURVE",
"500 190 OFFCURVE",
"501 216 CURVE SMOOTH",
"502 246 LINE SMOOTH",
"504 310 OFFCURVE",
"506 352 OFFCURVE",
"506 371 CURVE",
"507 375 OFFCURVE",
"507 384 OFFCURVE",
"507 394 CURVE SMOOTH",
"507 447 LINE",
"509 447 LINE",
"509 447 OFFCURVE",
"509 447 OFFCURVE",
"509 447 CURVE",
"518 447 LINE",
"558 447 LINE",
"612 447 LINE",
"644 447 LINE SMOOTH",
"656 447 OFFCURVE",
"667 447 OFFCURVE",
"667 465 CURVE SMOOTH",
"667 627 LINE",
"667 642 LINE SMOOTH",
"667 647 OFFCURVE",
"657 651 OFFCURVE",
"645 653 CURVE SMOOTH",
"639 654 OFFCURVE",
"634 654 OFFCURVE",
"631 654 CURVE SMOOTH",
"623 655 OFFCURVE",
"608 655 OFFCURVE",
"581 655 CURVE SMOOTH",
"231 655 LINE",
"196 656 LINE SMOOTH",
"187 656 OFFCURVE",
"175 657 OFFCURVE",
"158 657 CURVE SMOOTH",
"55 657 LINE SMOOTH",
"42 657 OFFCURVE",
"32 656 OFFCURVE",
"25 654 CURVE SMOOTH",
"15 651 OFFCURVE",
"6 646 OFFCURVE",
"6 638 CURVE SMOOTH",
"6 614 LINE",
"5 610 OFFCURVE",
"5 605 OFFCURVE",
"5 599 CURVE SMOOTH",
"5 585 LINE SMOOTH",
"5 548 OFFCURVE",
"7 519 OFFCURVE",
"9 501 CURVE SMOOTH",
"13 465 OFFCURVE",
"24 447 OFFCURVE",
"41 447 CURVE SMOOTH",
"181 447 LINE",
"181 395 OFFCURVE",
"181 358 OFFCURVE",
"180 336 CURVE SMOOTH",
"177 265 OFFCURVE",
"177 182 OFFCURVE",
"177 127 CURVE SMOOTH",
"177 71 OFFCURVE",
"182 31 OFFCURVE",
"192 9 CURVE SMOOTH",
"198 -3 OFFCURVE",
"204 -10 OFFCURVE",
"213 -10 CURVE SMOOTH"
);
}
);
width = 672;
}
);
leftKerningGroup = T;
note = T;
rightKerningGroup = T;
unicode = 0054;
},
{
color = 6;
glyphname = Tbar;
lastChange = "2023-02-22 08:59:45 +0000";
layers = (
{
background = {
paths = (
{
closed = 1;
nodes = (
"223 -1 OFFCURVE",
"247 -1 OFFCURVE",
"260 0 CURVE",
"365 1 LINE",
"376 2 OFFCURVE",
"394 3 OFFCURVE",
"420 3 CURVE",
"445 4 LINE",
"448 5 OFFCURVE",
"454 7 OFFCURVE",
"463 10 CURVE",
"472 16 OFFCURVE",
"477 30 OFFCURVE",
"477 53 CURVE SMOOTH",
"477 148 LINE",
"480 189 LINE",
"490 188 OFFCURVE",
"512 188 OFFCURVE",
"546 188 CURVE SMOOTH",
"570 188 OFFCURVE",
"575 203 OFFCURVE",
"575 230 CURVE SMOOTH",
"575 248 LINE",
"575 259 LINE",
"575 268 LINE",
"574 269 OFFCURVE",
"573 272 OFFCURVE",
"573 275 CURVE",
"572 305 LINE",
"572 322 OFFCURVE",
"546 324 OFFCURVE",
"506 324 CURVE SMOOTH",
"486 324 LINE",
"488 389 LINE",
"488 423 LINE",
"488 438 LINE SMOOTH",
"488 439 OFFCURVE",
"488 441 OFFCURVE",
"489 442 CURVE SMOOTH",
"490 443 OFFCURVE",
"490 443 OFFCURVE",
"490 444 CURVE",
"491 447 OFFCURVE",
"494 448 OFFCURVE",
"500 448 CURVE SMOOTH",
"530 448 LINE",
"538 447 OFFCURVE",
"550 446 OFFCURVE",
"565 446 CURVE SMOOTH",
"630 446 LINE SMOOTH",
"643 446 OFFCURVE",
"655 448 OFFCURVE",
"655 463 CURVE SMOOTH",
"655 628 LINE SMOOTH",
"655 634 OFFCURVE",
"655 639 OFFCURVE",
"654 642 CURVE SMOOTH",
"652 648 OFFCURVE",
"644 652 OFFCURVE",
"632 653 CURVE",
"626 654 OFFCURVE",
"621 654 OFFCURVE",
"618 655 CURVE",
"610 656 OFFCURVE",
"593 656 OFFCURVE",
"567 656 CURVE SMOOTH",
"207 656 LINE",
"170 657 LINE",
"161 658 OFFCURVE",
"149 658 OFFCURVE",
"132 658 CURVE SMOOTH",
"56 658 LINE SMOOTH",
"43 658 OFFCURVE",
"33 657 OFFCURVE",
"26 655 CURVE SMOOTH",
"15 652 OFFCURVE",
"6 646 OFFCURVE",
"6 638 CURVE SMOOTH",
"6 629 LINE",
"6 614 LINE",
"5 610 OFFCURVE",
"5 605 OFFCURVE",
"5 598 CURVE SMOOTH",
"5 584 LINE SMOOTH",
"5 547 OFFCURVE",
"7 518 OFFCURVE",
"10 498 CURVE SMOOTH",
"15 463 OFFCURVE",
"25 443 OFFCURVE",
"42 443 CURVE SMOOTH",
"153 443 LINE",
"156 439 LINE",
"156 390 OFFCURVE",
"156 354 OFFCURVE",
"155 330 CURVE",
"155 328 LINE",
"90 328 LINE SMOOTH",
"87 328 OFFCURVE",
"80 326 OFFCURVE",
"70 323 CURVE",
"69 322 OFFCURVE",
"60 314 OFFCURVE",
"60 310 CURVE SMOOTH",
"60 297 OFFCURVE",
"60 288 OFFCURVE",
"61 283 CURVE",
"61 261 LINE",
"61 238 LINE",
"61 211 LINE SMOOTH",
"61 206 OFFCURVE",
"64 201 OFFCURVE",
"70 198 CURVE SMOOTH",
"80 193 OFFCURVE",
"97 191 OFFCURVE",
"121 191 CURVE SMOOTH",
"152 191 LINE",
"152 138 LINE SMOOTH",
"152 80 OFFCURVE",
"157 40 OFFCURVE",
"167 18 CURVE",
"172 5 OFFCURVE",
"179 -1 OFFCURVE",
"188 -1 CURVE SMOOTH"
);
}
);
};
layerId = "CBDECE4A-293B-4E5C-B714-A3FD26C7130D";
paths = (
{
closed = 1;
nodes = (
"243 -1 OFFCURVE",
"251 -1 OFFCURVE",
"260 0 CURVE",
"365 1 LINE",
"383 2 OFFCURVE",
"403 3 OFFCURVE",
"420 3 CURVE",
"445 4 LINE",
"448 5 OFFCURVE",
"454 7 OFFCURVE",
"463 10 CURVE",
"472 16 OFFCURVE",
"477 31 OFFCURVE",
"477 53 CURVE SMOOTH",
"477 148 LINE",
"480 189 LINE",
"487 188 OFFCURVE",
"495 188 OFFCURVE",
"546 188 CURVE SMOOTH",
"567 188 OFFCURVE",
"575 199 OFFCURVE",
"575 230 CURVE SMOOTH",
"575 248 LINE",
"575 259 LINE",
"575 268 LINE",
"574 269 OFFCURVE",
"573 272 OFFCURVE",
"573 275 CURVE",
"572 305 LINE",
"572 319 OFFCURVE",
"555 324 OFFCURVE",
"506 324 CURVE SMOOTH",
"486 324 LINE",
"488 389 LINE",
"488 423 LINE",
"488 438 LINE SMOOTH",
"488 441 OFFCURVE",
"488 441 OFFCURVE",
"489 442 CURVE SMOOTH",
"490 443 OFFCURVE",
"490 443 OFFCURVE",
"490 444 CURVE",
"491 447 OFFCURVE",
"494 448 OFFCURVE",
"500 448 CURVE SMOOTH",
"530 448 LINE",
"543 447 OFFCURVE",
"555 446 OFFCURVE",
"565 446 CURVE SMOOTH",
"630 446 LINE SMOOTH",
"648 446 OFFCURVE",
"655 451 OFFCURVE",
"655 463 CURVE SMOOTH",
"655 628 LINE SMOOTH",
"655 639 OFFCURVE",
"655 640 OFFCURVE",
"654 642 CURVE SMOOTH",
"652 648 OFFCURVE",
"644 652 OFFCURVE",
"632 653 CURVE",
"626 654 OFFCURVE",
"621 654 OFFCURVE",
"618 655 CURVE",
"613 656 OFFCURVE",
"607 656 OFFCURVE",
"567 656 CURVE SMOOTH",
"207 656 LINE",
"170 657 LINE",
"161 658 OFFCURVE",
"149 658 OFFCURVE",
"132 658 CURVE SMOOTH",
"56 658 LINE SMOOTH",
"43 658 OFFCURVE",
"33 657 OFFCURVE",
"26 655 CURVE SMOOTH",
"14 652 OFFCURVE",
"6 645 OFFCURVE",
"6 638 CURVE SMOOTH",
"6 629 LINE",
"6 614 LINE",
"5 611 OFFCURVE",
"5 610 OFFCURVE",
"5 598 CURVE SMOOTH",
"5 584 LINE SMOOTH",
"5 552 OFFCURVE",
"7 522 OFFCURVE",
"10 498 CURVE SMOOTH",
"15 462 OFFCURVE",
"26 443 OFFCURVE",
"42 443 CURVE SMOOTH",
"153 443 LINE",
"156 439 LINE",
"156 361 OFFCURVE",
"156 347 OFFCURVE",
"155 330 CURVE",
"155 328 LINE",
"90 328 LINE SMOOTH",
"88 328 OFFCURVE",
"81 326 OFFCURVE",
"70 323 CURVE",
"69 322 OFFCURVE",
"60 314 OFFCURVE",
"60 310 CURVE SMOOTH",
"60 290 OFFCURVE",
"60 286 OFFCURVE",
"61 283 CURVE",
"61 261 LINE",
"61 238 LINE",
"61 211 LINE SMOOTH",
"61 206 OFFCURVE",
"64 201 OFFCURVE",
"70 198 CURVE SMOOTH",
"80 193 OFFCURVE",
"95 191 OFFCURVE",
"121 191 CURVE SMOOTH",
"152 191 LINE",
"152 138 LINE SMOOTH",
"152 80 OFFCURVE",
"157 40 OFFCURVE",
"167 18 CURVE",
"172 5 OFFCURVE",
"179 -1 OFFCURVE",
"188 -1 CURVE SMOOTH"
);
}
);
width = 660;
}
);
leftKerningGroup = T;
leftMetricsKey = T;
note = Tbar;
rightKerningGroup = T;
rightMetricsKey = T;
unicode = 0166;
},
